<svg width="147" height="62" viewBox="0 0 147 62" fill="none" xmlns="http://www.w3.org/2000/svg">
<g filter="url(#filter0_d_3388_463)">
<rect x="3.08887" y="1.25293" width="140" height="55" fill="white"/>
<rect x="2.58887" y="0.75293" width="141" height="56" stroke="black"/>
</g>
<mask id="path-3-inside-1_3388_463" fill="white">
<path d="M3 44H143V56H3V44Z"/>
</mask>
<path d="M3 44H143V56H3V44Z" fill="#D9D9D9"/>
<path d="M3 45H143V43H3V45Z" fill="black" mask="url(#path-3-inside-1_3388_463)"/>
<g filter="url(#filter1_i_3388_463)">
<rect x="8" y="47" width="22" height="8" fill="#D9D9D9"/>
</g>
<rect x="8.25" y="47.25" width="21.5" height="7.5" stroke="black" stroke-width="0.5"/>
<path d="M14.9791 48.9365V50.3105H14.8707C14.8355 50.0469 14.7721 49.8369 14.6803 49.6807C14.5904 49.5244 14.4615 49.4004 14.2936 49.3086C14.1256 49.2168 13.9518 49.1709 13.7721 49.1709C13.5689 49.1709 13.401 49.2334 13.2682 49.3584C13.1354 49.4814 13.0689 49.6221 13.0689 49.7803C13.0689 49.9014 13.1109 50.0117 13.1949 50.1113C13.316 50.2578 13.6041 50.4531 14.0592 50.6973C14.4303 50.8965 14.6832 51.0498 14.818 51.1572C14.9547 51.2627 15.0592 51.3877 15.1314 51.5322C15.2057 51.6768 15.2428 51.8281 15.2428 51.9863C15.2428 52.2871 15.1256 52.5469 14.8912 52.7656C14.6588 52.9824 14.359 53.0908 13.9918 53.0908C13.8766 53.0908 13.7682 53.082 13.6666 53.0645C13.6061 53.0547 13.4801 53.0195 13.2887 52.959C13.0992 52.8965 12.9791 52.8652 12.9283 52.8652C12.8795 52.8652 12.8404 52.8799 12.8111 52.9092C12.7838 52.9385 12.7633 52.999 12.7496 53.0908H12.6412V51.7285H12.7496C12.8004 52.0137 12.8688 52.2275 12.9547 52.3701C13.0406 52.5107 13.1715 52.6279 13.3473 52.7217C13.525 52.8154 13.7193 52.8623 13.9303 52.8623C14.1744 52.8623 14.3668 52.7979 14.5074 52.6689C14.65 52.54 14.7213 52.3877 14.7213 52.2119C14.7213 52.1143 14.6939 52.0156 14.6393 51.916C14.5865 51.8164 14.5035 51.7236 14.3902 51.6377C14.3141 51.5791 14.1061 51.4551 13.7662 51.2656C13.4264 51.0742 13.1842 50.9219 13.0396 50.8086C12.8971 50.6953 12.7887 50.5703 12.7145 50.4336C12.6402 50.2969 12.6031 50.1465 12.6031 49.9824C12.6031 49.6973 12.7125 49.4521 12.9313 49.2471C13.15 49.04 13.4283 48.9365 13.7662 48.9365C13.9771 48.9365 14.2008 48.9883 14.4371 49.0918C14.5465 49.1406 14.6236 49.165 14.6686 49.165C14.7193 49.165 14.7604 49.1504 14.7916 49.1211C14.8248 49.0898 14.8512 49.0283 14.8707 48.9365H14.9791ZM16.8348 49.4346V50.3164H17.4617V50.5215H16.8348V52.2617C16.8348 52.4355 16.8592 52.5527 16.908 52.6133C16.9588 52.6738 17.0232 52.7041 17.1014 52.7041C17.1658 52.7041 17.2283 52.6846 17.2889 52.6455C17.3494 52.6045 17.3963 52.5449 17.4295 52.4668H17.5437C17.4754 52.6582 17.3787 52.8027 17.2537 52.9004C17.1287 52.9961 16.9998 53.0439 16.867 53.0439C16.7771 53.0439 16.6893 53.0195 16.6033 52.9707C16.5174 52.9199 16.4539 52.8486 16.4129 52.7568C16.3719 52.6631 16.3514 52.5195 16.3514 52.3262V50.5215H15.9266V50.4248C16.034 50.3818 16.1434 50.3096 16.2547 50.208C16.368 50.1045 16.4686 49.9824 16.5564 49.8418C16.6014 49.7676 16.6639 49.6318 16.7439 49.4346H16.8348ZM19.5459 52.6133C19.2705 52.8262 19.0977 52.9492 19.0273 52.9824C18.9219 53.0312 18.8096 53.0557 18.6904 53.0557C18.5049 53.0557 18.3516 52.9922 18.2305 52.8652C18.1113 52.7383 18.0518 52.5713 18.0518 52.3643C18.0518 52.2334 18.0811 52.1201 18.1396 52.0244C18.2197 51.8916 18.3584 51.7666 18.5557 51.6494C18.7549 51.5322 19.085 51.3896 19.5459 51.2217V51.1162C19.5459 50.8486 19.5029 50.665 19.417 50.5654C19.333 50.4658 19.21 50.416 19.0479 50.416C18.9248 50.416 18.8271 50.4492 18.7549 50.5156C18.6807 50.582 18.6436 50.6582 18.6436 50.7441L18.6494 50.9141C18.6494 51.0039 18.626 51.0732 18.5791 51.1221C18.5342 51.1709 18.4746 51.1953 18.4004 51.1953C18.3281 51.1953 18.2686 51.1699 18.2217 51.1191C18.1768 51.0684 18.1543 50.999 18.1543 50.9111C18.1543 50.7432 18.2402 50.5889 18.4121 50.4482C18.584 50.3076 18.8252 50.2373 19.1357 50.2373C19.374 50.2373 19.5693 50.2773 19.7217 50.3574C19.8369 50.418 19.9219 50.5127 19.9766 50.6416C20.0117 50.7256 20.0293 50.8975 20.0293 51.1572V52.0684C20.0293 52.3242 20.0342 52.4814 20.0439 52.54C20.0537 52.5967 20.0693 52.6348 20.0908 52.6543C20.1143 52.6738 20.1406 52.6836 20.1699 52.6836C20.2012 52.6836 20.2285 52.6768 20.252 52.6631C20.293 52.6377 20.3721 52.5664 20.4893 52.4492V52.6133C20.2705 52.9062 20.0615 53.0527 19.8623 53.0527C19.7666 53.0527 19.6904 53.0195 19.6338 52.9531C19.5771 52.8867 19.5479 52.7734 19.5459 52.6133ZM19.5459 52.4229V51.4004C19.251 51.5176 19.0605 51.6006 18.9746 51.6494C18.8203 51.7354 18.71 51.8252 18.6436 51.9189C18.5771 52.0127 18.5439 52.1152 18.5439 52.2266C18.5439 52.3672 18.5859 52.4844 18.6699 52.5781C18.7539 52.6699 18.8506 52.7158 18.96 52.7158C19.1084 52.7158 19.3037 52.6182 19.5459 52.4229ZM21.7766 50.2373V50.8408C22.0012 50.4385 22.2316 50.2373 22.468 50.2373C22.5754 50.2373 22.6643 50.2705 22.7346 50.3369C22.8049 50.4014 22.84 50.4766 22.84 50.5625C22.84 50.6387 22.8146 50.7031 22.7639 50.7559C22.7131 50.8086 22.6525 50.835 22.5822 50.835C22.5139 50.835 22.4367 50.8018 22.3508 50.7354C22.2668 50.667 22.2043 50.6328 22.1633 50.6328C22.1281 50.6328 22.09 50.6523 22.049 50.6914C21.9611 50.7715 21.8703 50.9033 21.7766 51.0869V52.373C21.7766 52.5215 21.7951 52.6338 21.8322 52.71C21.8576 52.7627 21.9025 52.8066 21.967 52.8418C22.0314 52.877 22.1242 52.8945 22.2453 52.8945V53H20.8713V52.8945C21.008 52.8945 21.1096 52.873 21.176 52.8301C21.2248 52.7988 21.259 52.749 21.2785 52.6807C21.2883 52.6475 21.2932 52.5527 21.2932 52.3965V51.3564C21.2932 51.0439 21.2863 50.8584 21.2727 50.7998C21.2609 50.7393 21.2375 50.6953 21.2023 50.668C21.1691 50.6406 21.1271 50.627 21.0764 50.627C21.0158 50.627 20.9475 50.6416 20.8713 50.6709L20.842 50.5654L21.6535 50.2373H21.7766ZM24.0688 49.4346V50.3164H24.6957V50.5215H24.0688V52.2617C24.0688 52.4355 24.0932 52.5527 24.142 52.6133C24.1928 52.6738 24.2572 52.7041 24.3354 52.7041C24.3998 52.7041 24.4623 52.6846 24.5229 52.6455C24.5834 52.6045 24.6303 52.5449 24.6635 52.4668H24.7777C24.7094 52.6582 24.6127 52.8027 24.4877 52.9004C24.3627 52.9961 24.2338 53.0439 24.101 53.0439C24.0111 53.0439 23.9232 53.0195 23.8373 52.9707C23.7514 52.9199 23.6879 52.8486 23.6469 52.7568C23.6059 52.6631 23.5854 52.5195 23.5854 52.3262V50.5215H23.1605V50.4248C23.268 50.3818 23.3773 50.3096 23.4887 50.208C23.602 50.1045 23.7025 49.9824 23.7904 49.8418C23.8354 49.7676 23.8979 49.6318 23.9779 49.4346H24.0688Z" fill="black"/>
<rect x="2.5" y="0.75293" width="141" height="11" fill="#6EB8BC" stroke="black"/>
<rect x="126.75" y="3.00293" width="5.5" height="5.5" fill="white" stroke="black" stroke-width="0.5"/>
<rect x="128.25" y="4.25" width="2.5" height="2.5" stroke="black" stroke-width="0.5"/>
<rect x="118.75" y="3.00293" width="5.5" height="5.5" fill="white" stroke="black" stroke-width="0.5"/>
<line x1="120" y1="6.75" x2="123" y2="6.75" stroke="black" stroke-width="0.5"/>
<rect x="134.75" y="3.00293" width="5.5" height="5.5" fill="white" stroke="black" stroke-width="0.5"/>
<line x1="136.177" y1="3.82322" x2="139.177" y2="6.82322" stroke="black" stroke-width="0.5"/>
<line x1="135.823" y1="6.82322" x2="138.823" y2="3.82322" stroke="black" stroke-width="0.5"/>
<defs>
<filter id="filter0_d_3388_463" x="0.0888672" y="0.25293" width="146" height="61" filterUnits="userSpaceOnUse" color-interpolation-filters="sRGB">
<feFlood flood-opacity="0" result="BackgroundImageFix"/>
<feColorMatrix in="SourceAlpha" type="matrix" values="0 0 0 0 0 0 0 0 0 0 0 0 0 0 0 0 0 0 127 0" result="hardAlpha"/>
<feOffset dy="2"/>
<feGaussianBlur stdDeviation="1"/>
<feComposite in2="hardAlpha" operator="out"/>
<feColorMatrix type="matrix" values="0 0 0 0 0.0491228 0 0 0 0 0 0 0 0 0 0.233333 0 0 0 0.78 0"/>
<feBlend mode="normal" in2="BackgroundImageFix" result="effect1_dropShadow_3388_463"/>
<feBlend mode="normal" in="SourceGraphic" in2="effect1_dropShadow_3388_463" result="shape"/>
</filter>
<filter id="filter1_i_3388_463" x="8" y="47" width="22" height="8" filterUnits="userSpaceOnUse" color-interpolation-filters="sRGB">
<feFlood flood-opacity="0" result="BackgroundImageFix"/>
<feBlend mode="normal" in="SourceGraphic" in2="BackgroundImageFix" result="shape"/>
<feColorMatrix in="SourceAlpha" type="matrix" values="0 0 0 0 0 0 0 0 0 0 0 0 0 0 0 0 0 0 127 0" result="hardAlpha"/>
<feOffset dx="-1" dy="-1"/>
<feComposite in2="hardAlpha" operator="arithmetic" k2="-1" k3="1"/>
<feColorMatrix type="matrix" values="0 0 0 0 0 0 0 0 0 0 0 0 0 0 0 0 0 0 0.25 0"/>
<feBlend mode="normal" in2="shape" result="effect1_innerShadow_3388_463"/>
</filter>
</defs>
</svg>
