<svg width="165" height="116" viewBox="0 0 165 116" fill="none" xmlns="http://www.w3.org/2000/svg">
<path d="M33.5687 25.1781L32.6121 25.7226C26.6687 29.1056 25.0623 36.7936 29.289 41.6261L30.716 43.2575C35.7554 49.0191 31.3621 58.3432 23.3694 58.8494L21.6271 58.9597C15.1631 59.3691 11.0999 66.4049 14.2513 71.7315C15.7077 74.193 18.4281 75.6438 21.414 75.5512L35.9407 75.1011C42.5502 74.8963 47.3926 80.5683 46.0802 86.978C45.0728 91.8981 47.7121 96.6216 52.3896 98.2693L61.4395 101.457C67.3403 103.536 74.1562 100.637 76.9721 94.8514C80.6038 87.3892 90.4432 85.1791 96.3115 90.5073L99.3724 93.2866C103.21 96.7712 108.779 97.879 113.994 96.1952L128.08 91.6468C132.025 90.3731 133.772 85.7636 131.523 82.565C128.913 78.8517 131.717 73.5271 136.459 73.1928L143.175 72.7194C146.961 72.4525 150.373 70.0501 151.902 66.5748L152.54 65.1245C155.663 58.0247 151.443 50.3116 143.862 49.2622L141.684 48.9608C138.017 48.4532 135.083 45.9409 134.105 42.4704L132.807 37.8653C130.733 30.5048 120.092 30.5617 117.185 37.9488C115.134 43.1601 108.597 45.2015 104.276 41.9798L93.4006 33.8705C88.5163 30.2285 81.912 29.4043 75.8973 31.6861L73.9788 32.414C67.386 34.9151 60.1625 34.3142 54.462 30.7905L45.4197 25.201C41.9146 23.0343 37.3505 23.0255 33.5687 25.1781Z" fill="#A76D89" stroke="black"/>
<path d="M57.0906 82.2467L58.899 107.698L79.7591 80.9845L117.825 101.421L112.178 76.0976L151.273 84.2353L122.787 64.136L152.26 45.7576L113.298 47.9513L117.754 33.6589L93.3863 47.3439L73.1743 23.0299L63.7799 44.8581L15.9038 38.6118L49.9408 67.5254L15.3566 99.4071L57.0906 82.2467Z" fill="#FF9900" stroke="black"/>
</svg>
