<svg width="152" height="102" viewBox="0 0 152 102" fill="none" xmlns="http://www.w3.org/2000/svg">
<path d="M139.992 27.4609C141.227 31.0701 140.754 35.1774 138.766 39.5516C136.776 43.9287 133.282 48.5407 128.538 53.1122C119.05 62.254 104.634 71.1644 87.5338 77.6512C70.4339 84.138 53.9328 86.9562 41.0878 86.2863C34.6644 85.9513 29.1798 84.7452 24.996 82.71C20.8151 80.6761 17.9626 77.8304 16.7276 74.2211C15.4926 70.6119 15.9659 66.5046 17.9541 62.1304C19.9437 57.7533 23.4375 53.1413 28.182 48.5698C37.6696 39.428 52.0861 30.5177 69.186 24.0308C86.286 17.544 102.787 14.7258 115.632 15.3957C122.055 15.7307 127.54 16.9368 131.724 18.9721C135.905 21.0059 138.757 23.8516 139.992 27.4609Z" stroke="black" stroke-opacity="0.3"/>
<path d="M146.917 39.9907C147.414 43.6072 145.987 47.3995 142.861 51.1855C139.734 54.9716 134.941 58.7057 128.818 62.1717C116.575 69.1021 99.1091 74.9073 79.3247 77.923C59.5403 80.9386 41.2279 80.587 27.6209 77.5968C20.8157 76.1013 15.214 73.9516 11.1958 71.2546C7.17764 68.5577 4.78827 65.347 4.29104 61.7305C3.7938 58.1139 5.22031 54.3216 8.34713 50.5356C11.474 46.7495 16.2667 43.0155 22.3898 39.5494C34.6328 32.619 52.0987 26.8138 71.8831 23.7981C91.6675 20.7825 109.98 21.1342 123.587 24.1244C130.392 25.6198 135.994 27.7695 140.012 30.4665C144.03 33.1634 146.419 36.3741 146.917 39.9907Z" stroke="black" stroke-opacity="0.3"/>
<path d="M146.387 65.7249C145.857 68.3044 143.515 70.4558 139.473 72.0676C135.45 73.672 129.863 74.6895 123.091 75.0784C109.555 75.8557 91.4036 74.1151 71.8535 69.6602C52.3034 65.2054 35.0927 58.8881 23.0729 52.2874C17.06 48.9853 12.3722 45.6264 9.33888 42.4141C6.29143 39.1868 5.00414 36.2085 5.53434 33.629C6.06454 31.0495 8.40618 28.8981 12.4483 27.2863C16.4716 25.682 22.0589 24.6645 28.8305 24.2756C42.3667 23.4983 60.5181 25.2389 80.0682 29.6937C99.6183 34.1486 116.829 40.4659 128.849 47.0666C134.862 50.3686 139.549 53.7275 142.583 56.9398C145.63 60.1671 146.918 63.1454 146.387 65.7249Z" stroke="black" stroke-opacity="0.3"/>
<ellipse cx="78.3602" cy="50.5" rx="72.6556" ry="21.5" fill="#839966" fill-opacity="0.9"/>
</svg>
