<svg width="157" height="90" viewBox="0 0 157 90" fill="none" xmlns="http://www.w3.org/2000/svg">
<path d="M5.93221 42.1567C3.05667 35.2252 4.47658 28.6028 10.0124 23.127C15.5483 17.6512 24.9514 13.5678 37.0327 11.3933C49.114 9.21875 63.3309 9.05073 77.8855 10.9105C92.4401 12.7702 106.679 16.5741 118.801 21.8413C130.923 27.1084 140.384 33.6021 145.988 40.5013C151.592 47.4005 153.087 54.3953 150.283 60.6011C147.48 66.807 140.504 71.9451 130.239 75.3658C119.973 78.7865 106.878 80.3361 92.6104 79.8187L78.0714 44.7727L5.93221 42.1567Z" fill="#E0ADF8"/>
<path d="M151.63 55.5276C150.492 64.3396 141.65 71.6576 127.051 75.8716C112.451 80.0857 93.2897 80.8506 73.7811 77.9981C54.2725 75.1456 36.0151 68.9094 23.0252 60.6613C10.0353 52.4132 3.37712 42.8289 4.51526 34.0169L78.0725 44.7722L151.63 55.5276Z" fill="#ECB4D1"/>
<path d="M79.7418 70.5029C97.8045 70.5029 114.169 67.4211 126.027 62.4288C131.956 59.9328 136.769 56.9544 140.105 53.6344C143.441 50.3133 145.312 46.636 145.312 42.7529C145.312 38.8698 143.441 35.1925 140.105 31.8715C136.769 28.5514 131.956 25.573 126.027 23.0771C114.169 18.0848 97.8045 15.0029 79.7418 15.0029C61.6792 15.0029 45.3147 18.0848 33.4566 23.0771C27.5281 25.573 22.7142 28.5514 19.3787 31.8715C16.0422 35.1925 14.1719 38.8698 14.1719 42.7529C14.1719 46.636 16.0422 50.3133 19.3787 53.6344C22.7142 56.9544 27.5281 59.9328 33.4566 62.4288C45.3147 67.4211 61.6792 70.5029 79.7418 70.5029Z" fill="#CBCDCA" stroke="black" stroke-width="0.5"/>
<path d="M141.742 42.7529C141.742 46.2408 140.077 49.6067 136.976 52.7148C133.874 55.8249 129.359 58.6487 123.741 61.0309C112.506 65.7945 96.9501 68.7529 79.7416 68.7529C62.5331 68.7529 46.9773 65.7945 35.7423 61.0309C30.1239 58.6487 25.6093 55.8249 22.5068 52.7148C19.4062 49.6067 17.7412 46.2408 17.7412 42.7529C17.7412 39.2651 19.4062 35.8992 22.5068 32.7911C25.6093 29.6809 30.1239 26.8571 35.7423 24.4749C46.9773 19.7113 62.5331 16.7529 79.7416 16.7529C96.9501 16.7529 112.506 19.7113 123.741 24.4749C129.359 26.8571 133.874 29.6809 136.976 32.7911C140.077 35.8992 141.742 39.2651 141.742 42.7529Z" fill="#4F27D8" stroke="white"/>
</svg>
