<svg width="19" height="19" viewBox="0 0 19 19" fill="none" xmlns="http://www.w3.org/2000/svg">
<path d="M15.1433 0.833374H4.46181C2.35602 0.833374 0.646973 2.51343 0.646973 4.58349V15.0838C0.646973 17.1539 2.35602 18.8339 4.46181 18.8339H15.1433C17.2491 18.8339 18.9582 17.1539 18.9582 15.0838V4.58349C18.9582 2.51343 17.2491 0.833374 15.1433 0.833374ZM17.4323 15.0838C17.4323 16.3214 16.4022 17.3339 15.1433 17.3339H4.46181C3.20291 17.3339 2.17291 16.3214 2.17291 15.0838V4.58349C2.17291 3.34595 3.20291 2.33342 4.46181 2.33342H15.1433C16.4022 2.33342 17.4323 3.34595 17.4323 4.58349V15.0838Z" fill="white"/>
<path d="M9.80268 4.58337C6.85763 4.58337 4.46191 6.93845 4.46191 9.83354C4.46191 12.7286 6.85763 15.0837 9.80268 15.0837C12.7477 15.0837 15.1435 12.7286 15.1435 9.83354C15.1435 6.93845 12.7477 4.58337 9.80268 4.58337ZM9.80268 13.5837C7.69689 13.5837 5.98785 11.9036 5.98785 9.83354C5.98785 7.76347 7.69689 6.08342 9.80268 6.08342C11.9085 6.08342 13.6175 7.76347 13.6175 9.83354C13.6175 11.9036 11.9085 13.5837 9.80268 13.5837Z" fill="white"/>
<path d="M14.2088 5.37196C14.6301 5.37196 14.9717 5.03644 14.9717 4.62256C14.9717 4.20868 14.6301 3.87317 14.2088 3.87317C13.7874 3.87317 13.4458 4.20868 13.4458 4.62256C13.4458 5.03644 13.7874 5.37196 14.2088 5.37196Z" fill="white"/>
</svg>
