<svg width="17" height="17" viewBox="0 0 17 17" fill="none" xmlns="http://www.w3.org/2000/svg">
<path d="M6.26906 6.15769C7.1223 6.15411 7.97555 6.15024 8.82879 6.14715C9.06476 6.1463 9.30073 6.14776 9.55574 6.17274C9.57483 6.54641 9.57198 6.89555 9.57816 7.24454C9.57905 7.29495 9.62332 7.3446 9.64751 7.3946C9.67587 7.36465 9.70788 7.33735 9.73208 7.30436C10.5558 6.18143 11.6974 5.80808 13.0365 5.93128C14.9217 6.10472 16.0928 7.37017 16.3944 9.30376C16.4307 9.53689 16.4464 9.77324 16.4574 10.028C16.4509 10.0735 16.4587 10.0992 16.4664 10.1249C16.471 10.2008 16.4796 10.2767 16.4796 10.3526C16.4802 12.2816 16.4799 14.2106 16.4569 16.1588C15.42 16.1779 14.4059 16.1764 13.3918 16.1805C13.3194 16.1808 13.2472 16.2221 13.1749 16.2443C13.1364 16.2453 13.098 16.2462 13.062 16.2285C13.0584 16.199 13.0522 16.1882 13.0461 16.1773C13.0425 16.0807 13.0358 15.9841 13.0358 15.8874C13.0351 14.2308 13.0356 12.5742 13.0346 10.9175C13.0345 10.779 13.0252 10.6406 13.0336 10.4785C13.0386 10.4417 13.0302 10.4285 13.0218 10.4154C12.9851 10.2181 12.9625 10.017 12.9095 9.8242C12.5909 8.66461 11.2509 8.25075 10.3236 9.02854C9.94315 9.3476 9.70416 9.75375 9.64309 10.2755C9.63359 10.3039 9.64031 10.3153 9.64702 10.3267C9.64701 10.4296 9.64701 10.5326 9.62707 10.6589C9.59638 10.7411 9.57627 10.8 9.57622 10.859C9.57488 12.6544 9.5755 14.4497 9.57582 16.2451C9.53044 16.2478 9.48506 16.2504 9.42155 16.2399C9.39782 16.218 9.39223 16.2092 9.38664 16.2003C9.37999 16.2148 9.37334 16.2292 9.36668 16.2436C9.28041 16.2467 9.19413 16.2499 9.08711 16.238C9.0409 16.2299 9.01544 16.2368 8.98998 16.2436C8.77892 16.2467 8.56785 16.2499 8.33491 16.238C8.28758 16.2299 8.26212 16.2368 8.23666 16.2436C8.02559 16.2467 7.81452 16.2499 7.58158 16.238C7.53425 16.2299 7.5088 16.2368 7.48334 16.2436C7.09106 16.2468 6.69878 16.2499 6.28728 16.2304C6.26834 15.8969 6.27161 15.586 6.26633 15.2753C6.26529 15.2144 6.23116 15.1541 6.2123 15.0935C6.20879 15.0207 6.20529 14.948 6.21709 14.8549C6.22678 14.8096 6.22117 14.7846 6.21556 14.7596C6.21275 14.4271 6.20747 14.0945 6.20752 13.7619C6.20784 11.4223 6.20926 9.0828 6.22914 6.71305C6.25498 6.50779 6.26202 6.33274 6.26906 6.15769Z" fill="white"/>
<path d="M1.78443 16.2445C1.7165 16.2475 1.64856 16.2505 1.55487 16.2332C1.419 16.2234 1.30889 16.2338 1.19878 16.2443C1.17012 16.2472 1.14145 16.2501 1.09428 16.2353C1.06296 16.2043 1.05015 16.1911 1.03734 16.1778C1.03403 16.1365 1.02783 16.0951 1.02783 16.0538C1.02789 12.7827 1.02843 9.51153 1.04268 6.21652C1.0642 6.18112 1.07198 6.16958 1.07975 6.15805C1.88777 6.15432 2.69578 6.15021 3.5038 6.14708C3.81732 6.14587 4.13084 6.14688 4.45651 6.14688C4.46206 6.19737 4.47155 6.24347 4.47156 6.28956C4.47218 9.56338 4.4721 12.8372 4.4715 16.111C4.47149 16.1521 4.46413 16.1932 4.43743 16.2239C4.37706 16.2017 4.33949 16.1795 4.30186 16.1794C3.51606 16.1774 2.73023 16.1766 1.94444 16.1808C1.89099 16.181 1.83776 16.2223 1.78443 16.2445Z" fill="white"/>
<path d="M3.08857 0.640015C3.91157 0.69034 4.59255 1.35487 4.67749 2.19055C4.77046 3.10524 4.24714 3.86937 3.36702 4.10175C3.28673 4.12295 3.20394 4.13476 3.09254 4.13788C2.84789 4.13284 2.63302 4.14085 2.41814 4.14886C1.60073 4.08393 0.942572 3.44785 0.838336 2.62207C0.731173 1.77312 1.21214 0.998093 2.01869 0.72969C2.14992 0.68602 2.28921 0.666452 2.45473 0.649185C2.68598 0.655089 2.88728 0.647552 3.08857 0.640015Z" fill="white"/>
</svg>
