<svg width="23" height="17" viewBox="0 0 23 17" fill="none" xmlns="http://www.w3.org/2000/svg">
<path d="M21.0845 0.593384H2.18012C1.12736 0.593384 0.273926 1.4719 0.273926 2.5556V14.8718C0.273926 15.9555 1.12729 16.8339 2.17997 16.8339H21.0847C22.1373 16.8339 22.9907 15.9555 22.9907 14.8718V2.5556C22.9907 1.4719 22.1373 0.593384 21.0845 0.593384ZM2.32595 1.30771H20.9388C21.1656 1.30771 21.358 1.36571 21.5147 1.44424L11.7735 12.2063C11.6972 12.2906 11.5674 12.2906 11.4911 12.2063L1.74997 1.44424C1.90665 1.36571 2.09914 1.30771 2.32595 1.30771ZM1.03447 15.1307V2.29675C1.0732 2.16703 1.12968 2.04485 1.20186 1.93324L8.10806 9.51814L1.22548 15.5294C1.14186 15.4084 1.07731 15.274 1.03447 15.1307ZM21.0847 16.1196H2.18012C2.02006 16.1196 1.86789 16.0858 1.72787 16.0275L8.58239 10.0408L11.1746 12.9047C11.422 13.178 11.8426 13.178 12.09 12.9047L14.6518 10.0744L21.5731 16.0119C21.4233 16.0801 21.2587 16.1196 21.0847 16.1196ZM22.2968 14.7217C22.2968 15.0038 22.2149 15.2723 22.0623 15.5016L15.1274 9.55257L22.0867 1.96375C22.2236 2.18439 22.2968 2.43901 22.2968 2.70572V14.7217Z" fill="white"/>
</svg>
