<svg width="1122" height="117" viewBox="0 0 1122 117" fill="none" xmlns="http://www.w3.org/2000/svg">
<path d="M54.913 43.8466L40.8505 45.3807C40.4528 43.9602 39.7567 42.625 38.7624 41.375C37.7965 40.125 36.4897 39.1165 34.842 38.3494C33.1942 37.5824 31.1772 37.1989 28.7908 37.1989C25.5806 37.1989 22.8817 37.8949 20.6942 39.2869C18.5352 40.679 17.4698 42.483 17.4982 44.6989C17.4698 46.6023 18.1658 48.1506 19.5863 49.3438C21.0352 50.5369 23.4215 51.517 26.7454 52.2841L37.9102 54.6705C44.1033 56.0057 48.7056 58.1222 51.717 61.0199C54.7567 63.9176 56.2908 67.7102 56.3193 72.3977C56.2908 76.517 55.0835 80.1534 52.6971 83.3068C50.3391 86.4318 47.0579 88.875 42.8533 90.6364C38.6488 92.3977 33.8192 93.2784 28.3647 93.2784C20.3533 93.2784 13.9045 91.6023 9.01811 88.25C4.13175 84.8693 1.21982 80.1676 0.282315 74.1449L15.3249 72.696C16.0067 75.6506 17.4556 77.8807 19.6715 79.3864C21.8874 80.892 24.771 81.6449 28.3221 81.6449C31.9869 81.6449 34.9272 80.892 37.1431 79.3864C39.3874 77.8807 40.5096 76.0199 40.5096 73.804C40.5096 71.929 39.7852 70.3807 38.3363 69.1591C36.9158 67.9375 34.6999 67 31.6886 66.3466L20.5238 64.0028C14.2454 62.696 9.6005 60.4943 6.58913 57.3977C3.57777 54.2727 2.08629 50.3239 2.1147 45.5511C2.08629 41.517 3.18004 38.0227 5.39595 35.0682C7.64027 32.0852 10.7511 29.7841 14.7283 28.1648C18.734 26.517 23.3505 25.6932 28.5778 25.6932C36.2482 25.6932 42.2852 27.3267 46.6886 30.5938C51.1204 33.8608 53.8619 38.2784 54.913 43.8466ZM97.5906 93.2784C91.1985 93.2784 85.6587 91.8722 80.9712 89.0597C76.2837 86.2472 72.6474 82.3125 70.0621 77.2557C67.5053 72.1989 66.2269 66.2898 66.2269 59.5284C66.2269 52.767 67.5053 46.8437 70.0621 41.7585C72.6474 36.6733 76.2837 32.7244 80.9712 29.9119C85.6587 27.0994 91.1985 25.6932 97.5906 25.6932C103.983 25.6932 109.522 27.0994 114.21 29.9119C118.897 32.7244 122.52 36.6733 125.076 41.7585C127.662 46.8437 128.954 52.767 128.954 59.5284C128.954 66.2898 127.662 72.1989 125.076 77.2557C122.52 82.3125 118.897 86.2472 114.21 89.0597C109.522 91.8722 103.983 93.2784 97.5906 93.2784ZM97.6758 80.9205C101.142 80.9205 104.039 79.9687 106.369 78.0653C108.699 76.1335 110.431 73.5483 111.568 70.3097C112.733 67.071 113.315 63.4631 113.315 59.4858C113.315 55.4801 112.733 51.858 111.568 48.6193C110.431 45.3523 108.699 42.7528 106.369 40.821C104.039 38.8892 101.142 37.9233 97.6758 37.9233C94.1246 37.9233 91.1701 38.8892 88.8121 40.821C86.4826 42.7528 84.7354 45.3523 83.5707 48.6193C82.4343 51.858 81.8661 55.4801 81.8661 59.4858C81.8661 63.4631 82.4343 67.071 83.5707 70.3097C84.7354 73.5483 86.4826 76.1335 88.8121 78.0653C91.1701 79.9687 94.1246 80.9205 97.6758 80.9205ZM142.047 92V26.5455H156.792V37.6676H157.559C158.922 33.9176 161.181 30.9915 164.334 28.8892C167.488 26.7585 171.252 25.6932 175.627 25.6932C180.059 25.6932 183.794 26.7727 186.834 28.9318C189.902 31.0625 192.061 33.9744 193.311 37.6676H193.993C195.442 34.0312 197.885 31.1335 201.323 28.9744C204.789 26.7869 208.894 25.6932 213.638 25.6932C219.661 25.6932 224.576 27.5966 228.382 31.4034C232.189 35.2102 234.093 40.7642 234.093 48.0653V92H218.624V50.4517C218.624 46.3892 217.544 43.4205 215.385 41.5455C213.226 39.642 210.584 38.6903 207.459 38.6903C203.738 38.6903 200.826 39.8551 198.723 42.1847C196.65 44.4858 195.613 47.483 195.613 51.1761V92H180.485V49.8125C180.485 46.4318 179.462 43.733 177.417 41.7159C175.4 39.6989 172.757 38.6903 169.49 38.6903C167.275 38.6903 165.257 39.2585 163.439 40.3949C161.621 41.5028 160.172 43.0795 159.093 45.125C158.013 47.142 157.473 49.5 157.473 52.1989V92H142.047ZM278.72 93.2784C272.157 93.2784 266.49 91.9148 261.717 89.1875C256.973 86.4318 253.322 82.5398 250.765 77.5114C248.208 72.4545 246.93 66.5028 246.93 59.6562C246.93 52.9233 248.208 47.0142 250.765 41.929C253.35 36.8153 256.958 32.8381 261.589 29.9972C266.22 27.1278 271.66 25.6932 277.91 25.6932C281.944 25.6932 285.751 26.3466 289.331 27.6534C292.939 28.9318 296.12 30.9205 298.876 33.6193C301.66 36.3182 303.848 39.7557 305.439 43.9318C307.029 48.0795 307.825 53.0227 307.825 58.7614V63.4915H254.174V53.0938H293.038C293.01 50.1392 292.37 47.5114 291.12 45.2102C289.87 42.8807 288.123 41.0483 285.879 39.7131C283.663 38.3778 281.078 37.7102 278.123 37.7102C274.97 37.7102 272.2 38.4773 269.814 40.0114C267.427 41.517 265.566 43.5057 264.231 45.9773C262.924 48.4205 262.257 51.1051 262.228 54.0312V63.108C262.228 66.9148 262.924 70.1818 264.316 72.9091C265.708 75.608 267.654 77.6818 270.154 79.1307C272.654 80.5511 275.581 81.2614 278.933 81.2614C281.177 81.2614 283.208 80.9489 285.027 80.3239C286.845 79.6705 288.422 78.7188 289.757 77.4688C291.092 76.2188 292.1 74.6705 292.782 72.8239L307.186 74.4432C306.277 78.25 304.544 81.5739 301.987 84.4148C299.458 87.2273 296.22 89.4148 292.271 90.9773C288.322 92.5114 283.805 93.2784 278.72 93.2784ZM350.641 116.545V26.5455H365.811V37.3693H366.706C367.502 35.7784 368.624 34.0881 370.073 32.2983C371.522 30.4801 373.482 28.9318 375.953 27.6534C378.425 26.3466 381.578 25.6932 385.414 25.6932C390.471 25.6932 395.03 26.9858 399.093 29.571C403.184 32.1278 406.422 35.9205 408.809 40.9489C411.223 45.9489 412.431 52.0852 412.431 59.358C412.431 66.5455 411.252 72.6534 408.894 77.6818C406.536 82.7102 403.326 86.5455 399.263 89.1875C395.201 91.8295 390.598 93.1506 385.456 93.1506C381.706 93.1506 378.596 92.5256 376.124 91.2756C373.652 90.0256 371.664 88.5199 370.158 86.7585C368.681 84.9687 367.53 83.2784 366.706 81.6875H366.067V116.545H350.641ZM365.769 59.2727C365.769 63.5057 366.365 67.2131 367.559 70.3949C368.78 73.5767 370.527 76.0625 372.8 77.8523C375.101 79.6136 377.885 80.4943 381.152 80.4943C384.561 80.4943 387.417 79.5852 389.718 77.767C392.019 75.9205 393.752 73.4062 394.917 70.2244C396.11 67.0142 396.706 63.3636 396.706 59.2727C396.706 55.2102 396.124 51.6023 394.959 48.4489C393.794 45.2955 392.061 42.8239 389.76 41.0341C387.459 39.2443 384.59 38.3494 381.152 38.3494C377.857 38.3494 375.059 39.2159 372.757 40.9489C370.456 42.6818 368.709 45.1108 367.516 48.2358C366.351 51.3608 365.769 55.0398 365.769 59.2727ZM454.618 93.2784C448.056 93.2784 442.388 91.9148 437.615 89.1875C432.871 86.4318 429.221 82.5398 426.664 77.5114C424.107 72.4545 422.828 66.5028 422.828 59.6562C422.828 52.9233 424.107 47.0142 426.664 41.929C429.249 36.8153 432.857 32.8381 437.488 29.9972C442.118 27.1278 447.559 25.6932 453.809 25.6932C457.843 25.6932 461.65 26.3466 465.229 27.6534C468.837 28.9318 472.019 30.9205 474.775 33.6193C477.559 36.3182 479.746 39.7557 481.337 43.9318C482.928 48.0795 483.723 53.0227 483.723 58.7614V63.4915H430.073V53.0938H468.936C468.908 50.1392 468.269 47.5114 467.019 45.2102C465.769 42.8807 464.022 41.0483 461.777 39.7131C459.561 38.3778 456.976 37.7102 454.022 37.7102C450.868 37.7102 448.098 38.4773 445.712 40.0114C443.326 41.517 441.465 43.5057 440.13 45.9773C438.823 48.4205 438.155 51.1051 438.127 54.0312V63.108C438.127 66.9148 438.823 70.1818 440.215 72.9091C441.607 75.608 443.553 77.6818 446.053 79.1307C448.553 80.5511 451.479 81.2614 454.831 81.2614C457.076 81.2614 459.107 80.9489 460.925 80.3239C462.743 79.6705 464.32 78.7188 465.655 77.4688C466.99 76.2188 467.999 74.6705 468.681 72.8239L483.084 74.4432C482.175 78.25 480.442 81.5739 477.885 84.4148C475.357 87.2273 472.118 89.4148 468.169 90.9773C464.221 92.5114 459.703 93.2784 454.618 93.2784ZM525.751 93.2784C519.189 93.2784 513.521 91.9148 508.748 89.1875C504.004 86.4318 500.353 82.5398 497.797 77.5114C495.24 72.4545 493.961 66.5028 493.961 59.6562C493.961 52.9233 495.24 47.0142 497.797 41.929C500.382 36.8153 503.99 32.8381 508.62 29.9972C513.251 27.1278 518.691 25.6932 524.941 25.6932C528.975 25.6932 532.782 26.3466 536.362 27.6534C539.97 28.9318 543.152 30.9205 545.907 33.6193C548.691 36.3182 550.879 39.7557 552.47 43.9318C554.061 48.0795 554.856 53.0227 554.856 58.7614V63.4915H501.206V53.0938H540.069C540.041 50.1392 539.402 47.5114 538.152 45.2102C536.902 42.8807 535.154 41.0483 532.91 39.7131C530.694 38.3778 528.109 37.7102 525.154 37.7102C522.001 37.7102 519.231 38.4773 516.845 40.0114C514.458 41.517 512.598 43.5057 511.262 45.9773C509.956 48.4205 509.288 51.1051 509.26 54.0312V63.108C509.26 66.9148 509.956 70.1818 511.348 72.9091C512.74 75.608 514.686 77.6818 517.186 79.1307C519.686 80.5511 522.612 81.2614 525.964 81.2614C528.208 81.2614 530.24 80.9489 532.058 80.3239C533.876 79.6705 535.453 78.7188 536.788 77.4688C538.123 76.2188 539.132 74.6705 539.814 72.8239L554.217 74.4432C553.308 78.25 551.575 81.5739 549.018 84.4148C546.49 87.2273 543.251 89.4148 539.302 90.9773C535.353 92.5114 530.836 93.2784 525.751 93.2784ZM567.907 116.545V26.5455H583.077V37.3693H583.972C584.767 35.7784 585.89 34.0881 587.338 32.2983C588.787 30.4801 590.748 28.9318 593.219 27.6534C595.691 26.3466 598.844 25.6932 602.679 25.6932C607.736 25.6932 612.296 26.9858 616.358 29.571C620.449 32.1278 623.688 35.9205 626.074 40.9489C628.489 45.9489 629.696 52.0852 629.696 59.358C629.696 66.5455 628.517 72.6534 626.159 77.6818C623.801 82.7102 620.591 86.5455 616.529 89.1875C612.466 91.8295 607.864 93.1506 602.722 93.1506C598.972 93.1506 595.861 92.5256 593.39 91.2756C590.918 90.0256 588.929 88.5199 587.424 86.7585C585.946 84.9687 584.796 83.2784 583.972 81.6875H583.333V116.545H567.907ZM583.034 59.2727C583.034 63.5057 583.631 67.2131 584.824 70.3949C586.046 73.5767 587.793 76.0625 590.066 77.8523C592.367 79.6136 595.151 80.4943 598.418 80.4943C601.827 80.4943 604.682 79.5852 606.983 77.767C609.284 75.9205 611.017 73.4062 612.182 70.2244C613.375 67.0142 613.972 63.3636 613.972 59.2727C613.972 55.2102 613.39 51.6023 612.225 48.4489C611.06 45.2955 609.327 42.8239 607.026 41.0341C604.725 39.2443 601.855 38.3494 598.418 38.3494C595.123 38.3494 592.324 39.2159 590.023 40.9489C587.722 42.6818 585.975 45.1108 584.782 48.2358C583.617 51.3608 583.034 55.0398 583.034 59.2727ZM694.64 43.8466L680.577 45.3807C680.179 43.9602 679.483 42.625 678.489 41.375C677.523 40.125 676.216 39.1165 674.569 38.3494C672.921 37.5824 670.904 37.1989 668.517 37.1989C665.307 37.1989 662.608 37.8949 660.421 39.2869C658.262 40.679 657.196 42.483 657.225 44.6989C657.196 46.6023 657.892 48.1506 659.313 49.3438C660.762 50.5369 663.148 51.517 666.472 52.2841L677.637 54.6705C683.83 56.0057 688.432 58.1222 691.444 61.0199C694.483 63.9176 696.017 67.7102 696.046 72.3977C696.017 76.517 694.81 80.1534 692.424 83.3068C690.066 86.4318 686.784 88.875 682.58 90.6364C678.375 92.3977 673.546 93.2784 668.091 93.2784C660.08 93.2784 653.631 91.6023 648.745 88.25C643.858 84.8693 640.946 80.1676 640.009 74.1449L655.051 72.696C655.733 75.6506 657.182 77.8807 659.398 79.3864C661.614 80.892 664.498 81.6449 668.049 81.6449C671.713 81.6449 674.654 80.892 676.87 79.3864C679.114 77.8807 680.236 76.0199 680.236 73.804C680.236 71.929 679.512 70.3807 678.063 69.1591C676.642 67.9375 674.426 67 671.415 66.3466L660.25 64.0028C653.972 62.696 649.327 60.4943 646.316 57.3977C643.304 54.2727 641.813 50.3239 641.841 45.5511C641.813 41.517 642.907 38.0227 645.123 35.0682C647.367 32.0852 650.478 29.7841 654.455 28.1648C658.461 26.517 663.077 25.6932 668.304 25.6932C675.975 25.6932 682.012 27.3267 686.415 30.5938C690.847 33.8608 693.588 38.2784 694.64 43.8466ZM790.265 43.8466L776.202 45.3807C775.804 43.9602 775.108 42.625 774.114 41.375C773.148 40.125 771.841 39.1165 770.194 38.3494C768.546 37.5824 766.529 37.1989 764.142 37.1989C760.932 37.1989 758.233 37.8949 756.046 39.2869C753.887 40.679 752.821 42.483 752.85 44.6989C752.821 46.6023 753.517 48.1506 754.938 49.3438C756.387 50.5369 758.773 51.517 762.097 52.2841L773.262 54.6705C779.455 56.0057 784.057 58.1222 787.069 61.0199C790.108 63.9176 791.642 67.7102 791.671 72.3977C791.642 76.517 790.435 80.1534 788.049 83.3068C785.691 86.4318 782.409 88.875 778.205 90.6364C774 92.3977 769.171 93.2784 763.716 93.2784C755.705 93.2784 749.256 91.6023 744.37 88.25C739.483 84.8693 736.571 80.1676 735.634 74.1449L750.676 72.696C751.358 75.6506 752.807 77.8807 755.023 79.3864C757.239 80.892 760.123 81.6449 763.674 81.6449C767.338 81.6449 770.279 80.892 772.495 79.3864C774.739 77.8807 775.861 76.0199 775.861 73.804C775.861 71.929 775.137 70.3807 773.688 69.1591C772.267 67.9375 770.051 67 767.04 66.3466L755.875 64.0028C749.597 62.696 744.952 60.4943 741.941 57.3977C738.929 54.2727 737.438 50.3239 737.466 45.5511C737.438 41.517 738.532 38.0227 740.748 35.0682C742.992 32.0852 746.103 29.7841 750.08 28.1648C754.086 26.517 758.702 25.6932 763.929 25.6932C771.6 25.6932 777.637 27.3267 782.04 30.5938C786.472 33.8608 789.213 38.2784 790.265 43.8466ZM837.076 26.5455V38.4773H799.448V26.5455H837.076ZM808.738 10.8636H824.164V72.3125C824.164 74.3864 824.476 75.9773 825.101 77.0852C825.755 78.1648 826.607 78.9034 827.658 79.3011C828.709 79.6989 829.874 79.8977 831.152 79.8977C832.118 79.8977 832.999 79.8267 833.794 79.6847C834.618 79.5426 835.243 79.4148 835.669 79.3011L838.269 91.3608C837.445 91.6449 836.266 91.9574 834.732 92.2983C833.226 92.6392 831.38 92.8381 829.192 92.8949C825.328 93.0085 821.848 92.4261 818.752 91.1477C815.655 89.8409 813.198 87.8239 811.38 85.0966C809.59 82.3693 808.709 78.9602 808.738 74.8693V10.8636ZM891.696 64.4716V26.5455H907.122V92H892.164V80.3665H891.483C890.005 84.0312 887.576 87.0284 884.196 89.358C880.843 91.6875 876.71 92.8523 871.795 92.8523C867.505 92.8523 863.713 91.9006 860.417 89.9972C857.15 88.0653 854.593 85.267 852.747 81.6023C850.9 77.9091 849.977 73.4489 849.977 68.2216V26.5455H865.403V65.8352C865.403 69.983 866.539 73.2784 868.812 75.7216C871.085 78.1648 874.068 79.3864 877.761 79.3864C880.034 79.3864 882.235 78.8324 884.366 77.7244C886.497 76.6165 888.244 74.9688 889.608 72.7812C891 70.5653 891.696 67.7955 891.696 64.4716ZM947.275 93.1506C942.132 93.1506 937.53 91.8295 933.468 89.1875C929.405 86.5455 926.195 82.7102 923.837 77.6818C921.479 72.6534 920.3 66.5455 920.3 59.358C920.3 52.0852 921.493 45.9489 923.88 40.9489C926.294 35.9205 929.547 32.1278 933.638 29.571C937.729 26.9858 942.289 25.6932 947.317 25.6932C951.152 25.6932 954.306 26.3466 956.777 27.6534C959.249 28.9318 961.209 30.4801 962.658 32.2983C964.107 34.0881 965.229 35.7784 966.025 37.3693H966.664V4.72727H982.132V92H966.962V81.6875H966.025C965.229 83.2784 964.078 84.9687 962.573 86.7585C961.067 88.5199 959.078 90.0256 956.607 91.2756C954.135 92.5256 951.025 93.1506 947.275 93.1506ZM951.578 80.4943C954.846 80.4943 957.63 79.6136 959.931 77.8523C962.232 76.0625 963.979 73.5767 965.172 70.3949C966.365 67.2131 966.962 63.5057 966.962 59.2727C966.962 55.0398 966.365 51.3608 965.172 48.2358C964.007 45.1108 962.275 42.6818 959.973 40.9489C957.701 39.2159 954.902 38.3494 951.578 38.3494C948.141 38.3494 945.272 39.2443 942.971 41.0341C940.669 42.8239 938.936 45.2955 937.772 48.4489C936.607 51.6023 936.025 55.2102 936.025 59.2727C936.025 63.3636 936.607 67.0142 937.772 70.2244C938.965 73.4062 940.712 75.9205 943.013 77.767C945.343 79.5852 948.198 80.4943 951.578 80.4943ZM998.571 92V26.5455H1014V92H998.571ZM1006.33 17.2557C1003.88 17.2557 1001.78 16.446 1000.02 14.8267C998.258 13.179 997.377 11.2045 997.377 8.90341C997.377 6.57386 998.258 4.59943 1000.02 2.98011C1001.78 1.33238 1003.88 0.50852 1006.33 0.50852C1008.8 0.50852 1010.9 1.33238 1012.63 2.98011C1014.39 4.59943 1015.28 6.57386 1015.28 8.90341C1015.28 11.2045 1014.39 13.179 1012.63 14.8267C1010.9 16.446 1008.8 17.2557 1006.33 17.2557ZM1058.41 93.2784C1052.02 93.2784 1046.48 91.8722 1041.79 89.0597C1037.1 86.2472 1033.47 82.3125 1030.88 77.2557C1028.33 72.1989 1027.05 66.2898 1027.05 59.5284C1027.05 52.767 1028.33 46.8437 1030.88 41.7585C1033.47 36.6733 1037.1 32.7244 1041.79 29.9119C1046.48 27.0994 1052.02 25.6932 1058.41 25.6932C1064.8 25.6932 1070.34 27.0994 1075.03 29.9119C1079.72 32.7244 1083.34 36.6733 1085.9 41.7585C1088.48 46.8437 1089.77 52.767 1089.77 59.5284C1089.77 66.2898 1088.48 72.1989 1085.9 77.2557C1083.34 82.3125 1079.72 86.2472 1075.03 89.0597C1070.34 91.8722 1064.8 93.2784 1058.41 93.2784ZM1058.5 80.9205C1061.96 80.9205 1064.86 79.9687 1067.19 78.0653C1069.52 76.1335 1071.25 73.5483 1072.39 70.3097C1073.55 67.071 1074.14 63.4631 1074.14 59.4858C1074.14 55.4801 1073.55 51.858 1072.39 48.6193C1071.25 45.3523 1069.52 42.7528 1067.19 40.821C1064.86 38.8892 1061.96 37.9233 1058.5 37.9233C1054.94 37.9233 1051.99 38.8892 1049.63 40.821C1047.3 42.7528 1045.56 45.3523 1044.39 48.6193C1043.25 51.858 1042.69 55.4801 1042.69 59.4858C1042.69 63.4631 1043.25 67.071 1044.39 70.3097C1045.56 73.5483 1047.3 76.1335 1049.63 78.0653C1051.99 79.9687 1054.94 80.9205 1058.5 80.9205ZM1112.37 92.9375C1109.79 92.9375 1107.57 92.0284 1105.72 90.2102C1103.88 88.392 1102.97 86.1761 1103 83.5625C1102.97 81.0057 1103.88 78.8182 1105.72 77C1107.57 75.1818 1109.79 74.2727 1112.37 74.2727C1114.87 74.2727 1117.04 75.1818 1118.89 77C1120.77 78.8182 1121.72 81.0057 1121.75 83.5625C1121.72 85.2955 1121.26 86.8722 1120.38 88.2926C1119.53 89.7131 1118.39 90.8494 1116.97 91.7017C1115.58 92.5256 1114.05 92.9375 1112.37 92.9375Z" fill="white"/>
</svg>
