<svg width="41" height="44" viewBox="0 0 41 44" fill="none" xmlns="http://www.w3.org/2000/svg">
<path d="M40.255 4.87432C39.9619 4.71184 39.6688 4.71184 39.3757 4.79308C36.933 5.6867 34.3927 5.03679 32.9271 3.41202C32.2431 2.68087 31.8523 1.70601 31.8523 0.812386C31.8523 0.56867 31.7546 0.406193 31.5592 0.243716C31.3638 0.0812384 31.1683 0 30.8752 0H20.9092C20.3229 0 19.9321 0.324954 19.9321 0.812386V29.6521C19.9321 29.7333 19.9321 29.7333 19.9321 29.8146C19.7367 31.2769 18.3688 32.333 16.6101 32.333C14.7537 32.333 13.1904 31.0331 13.1904 29.4896C13.1904 28.0273 14.4605 26.89 16.2193 26.7275C16.7078 26.6463 17.0986 26.3213 17.0986 25.9151V16.4914C17.0986 16.004 16.7078 15.6791 16.1216 15.6791C16.1216 15.6791 16.0239 15.6791 15.9261 15.6791C6.93716 16.004 0 22.0157 0 29.4896C0 37.126 7.42569 43.3002 16.6101 43.3002C25.2083 43.3002 32.4385 37.776 33.1225 30.7082C33.2202 30.627 33.2202 30.4645 33.2202 30.3832V14.7042C35.3697 15.1104 37.617 15.2729 39.9619 14.9479C40.4505 14.8667 40.7436 14.5417 40.7436 14.1355V5.52423C40.7436 5.28051 40.5482 5.03679 40.255 4.87432ZM38.7895 13.4856C36.5422 13.6481 34.4904 13.4856 32.4385 12.9169C32.1454 12.8357 31.8523 12.9169 31.5592 12.9982C31.2661 13.1607 31.1683 13.4044 31.1683 13.6481V30.0583C31.1683 30.1395 31.1683 30.2208 31.0706 30.302C30.5821 36.6386 24.1335 41.6754 16.5124 41.6754C8.40275 41.6754 1.85642 36.2324 1.85642 29.4896C1.85642 23.153 7.5234 17.9537 15.0468 17.3851V25.2652C12.7995 25.8339 11.1385 27.5399 11.1385 29.4896C11.1385 31.9268 13.5812 33.9577 16.5124 33.9577C19.1505 33.9577 21.3977 32.333 21.7885 30.2208C21.8862 30.1395 21.8862 29.977 21.8862 29.8958V1.62477H29.9959C30.1913 2.68087 30.6798 3.5745 31.3638 4.38688C33.0248 6.25537 35.956 7.23024 38.7895 6.66157V13.4856Z" fill="#ffffff"/>
</svg>
