<svg width="106" height="106" viewBox="0 0 106 106" fill="none" xmlns="http://www.w3.org/2000/svg">
<circle cx="53" cy="53" r="53" fill="#00CC21" fill-opacity="0.5"/>
<path d="M77.553 26.5889C76.7646 25.8037 75.5031 25.8037 74.7934 26.5889L44.5958 56.6602L30.246 42.2919C29.4575 41.5068 28.2748 41.5068 27.4864 42.2919L17.6308 51.9493C17.2365 52.2634 17 52.813 17 53.2841C17 53.8337 17.2365 54.3048 17.5519 54.6974L43.1766 80.4504C43.5708 80.843 44.0439 81 44.5958 81C45.1477 81 45.6208 80.7645 46.015 80.4504L87.4087 39.2298C88.1971 38.4447 88.1971 37.1884 87.4087 36.4818L77.553 26.5889ZM44.5958 76.2891L21.7307 53.3626L28.8268 46.4532L43.2554 60.8216C44.0439 61.6067 45.3054 61.6067 46.015 60.8216L76.1338 30.7502L83.2299 37.8166L44.5958 76.2891Z" fill="#F2FFE6"/>
<rect x="28.2825" y="43.5366" width="36.4489" height="14.6319" transform="rotate(44.9832 28.2825 43.5366)" fill="#F2FFE6"/>
<rect x="28.2825" y="43.5366" width="36.4489" height="14.6319" transform="rotate(44.9832 28.2825 43.5366)" fill="#F2FFE6"/>
<rect x="86.2074" y="38.4136" width="50.0081" height="14.6319" transform="rotate(136.024 86.2074 38.4136)" fill="#F2FFE6"/>
<rect x="86.2074" y="38.4136" width="50.0081" height="14.6319" transform="rotate(136.024 86.2074 38.4136)" fill="#F2FFE6"/>
</svg>
