<?xml version="1.0" encoding="UTF-8" standalone="no"?>
<!DOCTYPE svg PUBLIC "-//W3C//DTD SVG 1.1//EN" "http://www.w3.org/Graphics/SVG/1.1/DTD/svg11.dtd">
<svg width="100%" height="100%" viewBox="0 0 108 93" version="1.1" xmlns="http://www.w3.org/2000/svg" xmlns:xlink="http://www.w3.org/1999/xlink" xml:space="preserve" xmlns:serif="http://www.serif.com/" style="fill-rule:evenodd;clip-rule:evenodd;stroke-linejoin:round;stroke-miterlimit:2;">
    <g transform="matrix(1,0,0,1,-1.021906,-21.339934)">
        <g transform="matrix(1.199532,0,0,1.199532,-4.975633,7.524888)">
            <path d="M26.812,71.301C33.398,77.106 40.414,82.395 47.808,87.125L49.999,88.481L52.163,87.141C59.57,82.41 66.597,77.114 73.186,71.301C87.659,58.418 94.998,46.574 94.998,36.098C94.998,29.024 91.952,22.289 86.635,17.625C81.315,12.957 74.244,10.804 67.229,11.726C60.214,12.644 53.936,16.543 49.999,22.421C46.062,16.542 39.784,12.644 32.769,11.726C25.754,10.804 18.683,12.957 13.363,17.625C8.047,22.289 5,29.023 5,36.098C5,46.575 12.34,58.418 26.812,71.301L26.812,71.301Z" style="fill-rule:nonzero;"/>
        </g>
    </g>
</svg>
