<svg width="41" height="41" viewBox="0 0 41 41" fill="none" xmlns="http://www.w3.org/2000/svg">
<rect x="0.804688" y="0.804688" width="39" height="39" rx="19.5" fill="white" stroke="black"/>
<path d="M24.506 15.1351C23.263 13.892 21.5774 13.195 19.8203 13.1949C18.0632 13.1949 16.3777 13.892 15.1345 15.1351C13.8914 16.3782 13.1944 18.0638 13.1944 19.8208C13.1943 21.5779 13.8914 23.2635 15.1345 24.5066C16.3776 25.7497 18.0632 26.4467 19.8203 26.4468C21.5773 26.4468 23.2629 25.7497 24.506 24.5066C25.7458 23.2619 26.442 21.5771 26.4412 19.8209C26.442 18.0647 25.7458 16.3798 24.506 15.1351ZM16.3169 23.3242C15.4163 22.4005 14.917 21.1575 14.9278 19.8677C14.9393 18.577 15.4598 17.3438 16.3752 16.435C17.2915 15.5269 18.5304 15.017 19.8202 15.0163C21.1101 15.0171 22.3491 15.5269 23.2653 16.435C24.1807 17.3438 24.7013 18.577 24.7127 19.8677C24.7233 21.1575 24.2242 22.4006 23.3235 23.3242C22.3941 24.2536 21.1338 24.775 19.8202 24.7749C18.5066 24.7749 17.2463 24.2536 16.3169 23.3242ZM14.0492 26.8185L12.2889 28.5789C11.9506 28.9171 11.4005 28.9171 11.0623 28.5789C10.724 28.2406 10.724 27.6905 11.0623 27.3522L12.8661 25.5484C13.2052 25.2093 13.7545 25.2101 14.0927 25.5484C14.431 25.8867 14.4318 26.4359 14.0927 26.775L14.0492 26.8185ZM11.7281 19.8208C11.7265 20.3036 11.3357 20.6944 10.8521 20.6969L8.30438 20.6878C8.07038 20.6903 7.84705 20.5983 7.68203 20.4333C7.52029 20.2716 7.43162 20.0499 7.43736 19.8208C7.43161 19.5868 7.52111 19.361 7.68695 19.1952C7.85278 19.0294 8.07859 18.9398 8.31258 18.9456L10.8783 18.9366C11.3545 18.953 11.7314 19.3446 11.7281 19.8208ZM12.8661 14.0932L11.0623 12.2894C10.724 11.9511 10.724 11.401 11.0623 11.0627C11.4005 10.7245 11.9506 10.7245 12.2889 11.0627L14.0927 12.8666C14.4318 13.2057 14.431 13.7549 14.0927 14.0932C13.7545 14.4315 13.2052 14.4323 12.8661 14.0932ZM18.9525 8.30403L18.9533 8.30485C18.9533 7.82046 19.3449 7.42882 19.8294 7.4288C20.3129 7.42798 20.7054 7.82044 20.7046 8.30403L20.6874 10.8616C20.6857 11.3443 20.2949 11.7352 19.8113 11.7376C19.5814 11.7294 19.363 11.6358 19.1988 11.4749C19.0387 11.3132 18.9484 11.0964 18.9443 10.8706L18.9525 8.30403ZM25.5479 12.8666L27.3517 11.0627C27.69 10.7245 28.2401 10.7245 28.5784 11.0627C28.9166 11.401 28.9166 11.9511 28.5784 12.2894L26.7745 14.0932C26.4355 14.4323 25.8862 14.4315 25.5479 14.0932C25.2096 13.7549 25.2088 13.2057 25.5479 12.8666ZM27.9125 19.8208C27.9141 19.3381 28.305 18.9472 28.7886 18.9448L31.3453 18.9447C31.8297 18.9447 32.2213 19.3364 32.2213 19.8208C32.2213 20.3052 31.8297 20.6968 31.3453 20.6969L28.7795 20.6878C28.5529 20.6845 28.337 20.5934 28.1752 20.4333C28.0135 20.2699 27.9199 20.0515 27.9125 19.8208ZM28.5784 28.5789C28.2401 28.9171 27.69 28.9171 27.3517 28.5789L25.5479 26.7751C25.2088 26.436 25.2096 25.8867 25.5479 25.5484C25.8862 25.2101 26.4354 25.2093 26.7745 25.5484L28.5784 27.3522C28.7409 27.5148 28.8321 27.7356 28.8321 27.9655C28.8321 28.1954 28.7409 28.4163 28.5784 28.5789ZM20.6882 31.3376L20.6873 31.3368C20.6849 31.8203 20.2941 32.2112 19.8113 32.2128C19.5822 32.2202 19.3597 32.1307 19.1988 31.9681C19.0337 31.8031 18.9426 31.579 18.9443 31.3458L18.9443 28.7891C18.9443 28.3047 19.3359 27.913 19.8203 27.913C20.3047 27.913 20.6964 28.3047 20.6964 28.7891L20.6882 31.3376Z" fill="black"/>
</svg>
