<svg width="78" height="49" viewBox="0 0 78 49" fill="none" xmlns="http://www.w3.org/2000/svg">
<mask id="mask0_214_33" style="mask-type:luminance" maskUnits="userSpaceOnUse" x="0" y="0" width="78" height="49">
<path d="M0 0.666748H77.2448V48.1876H0V0.666748Z" fill="white"/>
</mask>
<g mask="url(#mask0_214_33)">
<path d="M76.6146 31.474C76.6094 31.3177 76.6042 31.1615 76.599 31.0052C76.599 33.375 76.1615 35.8542 75.0157 37.9688C70.0001 47.1875 36.8074 48.3282 13.4115 48.3802C12.4584 48.3802 9.02089 48.1042 7.96881 47.7657C4.82298 46.7552 1.88027 44.8594 1.47923 41.4167L1.64069 41.8802C0.677143 38.7604 -0.749939 20.7344 0.546936 14.4584C1.26048 11 2.69277 8.23441 5.34381 7.39066C12.5469 5.1094 45.5782 3.10941 54.2501 2.39586C60.6042 1.86982 71.0105 -0.739554 73.6199 7.02607C75.9896 11.4271 76.8646 28.0729 76.6146 31.474Z" fill="#F80000"/>
</g>
</svg>
