<svg xmlns="http://www.w3.org/2000/svg" xmlns:xlink="http://www.w3.org/1999/xlink" width="314" zoomAndPan="magnify" viewBox="0 0 235.5 228.749994" height="305" preserveAspectRatio="xMidYMid meet" version="1.0"><defs><g/><clipPath id="cbd3878fc2"><path d="M 9.335938 11.675781 L 225.730469 11.675781 L 225.730469 228.074219 L 9.335938 228.074219 Z M 9.335938 11.675781 " clip-rule="nonzero"/></clipPath><clipPath id="100f3a5389"><path d="M 117.535156 11.675781 C 57.777344 11.675781 9.335938 60.121094 9.335938 119.875 C 9.335938 179.632812 57.777344 228.074219 117.535156 228.074219 C 177.289062 228.074219 225.730469 179.632812 225.730469 119.875 C 225.730469 60.121094 177.289062 11.675781 117.535156 11.675781 Z M 117.535156 11.675781 " clip-rule="nonzero"/></clipPath></defs><g clip-path="url(#cbd3878fc2)"><g clip-path="url(#100f3a5389)"><path fill="#d4ac74" d="M 9.335938 11.675781 L 225.730469 11.675781 L 225.730469 228.074219 L 9.335938 228.074219 Z M 9.335938 11.675781 " fill-opacity="1" fill-rule="nonzero"/></g></g><g fill="#000000" fill-opacity="1"><g transform="translate(81.697087, 180.804772)"><g><path d="M -15.382812 3.304688 C -16.863281 2.171875 -17.214844 0.683594 -16.335938 -0.582031 L -20.578125 -3.828125 C -22.597656 -0.769531 -21.859375 3.628906 -17.789062 6.742188 C -13.601562 9.941406 -8.527344 9.085938 -5.785156 5.5 C -3.042969 1.914062 -3.398438 -3.050781 -7.753906 -6.378906 C -11.566406 -9.296875 -15.753906 -9.070312 -18.3125 -6.609375 L -14.160156 -3.429688 C -13.144531 -4.460938 -11.683594 -4.246094 -10.375 -3.242188 C -8.382812 -1.71875 -9.207031 0.535156 -10.316406 1.988281 C -11.40625 3.410156 -13.449219 4.78125 -15.382812 3.304688 Z M -15.382812 3.304688 "/></g></g></g><g fill="#000000" fill-opacity="1"><g transform="translate(60.216706, 161.395022)"><g><path d="M -4.160156 -6.273438 L -26.558594 8.582031 L -23.585938 13.0625 L -1.1875 -1.792969 Z M -4.160156 -6.273438 "/></g></g></g><g fill="#000000" fill-opacity="1"><g transform="translate(50.515407, 144.342181)"><g><path d="M -20.765625 4.714844 C -19.128906 4.191406 -18.191406 2.421875 -18.730469 0.75 C -19.253906 -0.886719 -21.058594 -1.8125 -22.695312 -1.289062 C -24.367188 -0.75 -25.257812 1.042969 -24.734375 2.679688 C -24.195312 4.351562 -22.4375 5.253906 -20.765625 4.714844 Z M -2.355469 -7.335938 L -17.402344 -2.5 L -15.757812 2.617188 L -0.710938 -2.21875 Z M -2.355469 -7.335938 "/></g></g></g><g fill="#000000" fill-opacity="1"><g transform="translate(45.311415, 125.686866)"><g><path d="M -11.726562 -10.492188 C -11.679688 -12.355469 -10.6875 -13.515625 -9.144531 -13.550781 L -9.019531 -18.886719 C -12.679688 -18.722656 -15.800781 -15.535156 -15.921875 -10.410156 C -16.042969 -5.144531 -12.367188 -1.546875 -7.851562 -1.4375 C -3.339844 -1.332031 0.464844 -4.542969 0.59375 -10.023438 C 0.707031 -14.824219 -1.941406 -18.074219 -5.4375 -18.695312 L -5.5625 -13.464844 C -4.132812 -13.253906 -3.445312 -11.945312 -3.484375 -10.296875 C -3.542969 -7.789062 -5.855469 -7.128906 -7.679688 -7.171875 C -9.472656 -7.210938 -11.78125 -8.054688 -11.726562 -10.492188 Z M -11.726562 -10.492188 "/></g></g></g><g fill="#000000" fill-opacity="1"><g transform="translate(47.746812, 97.363857)"><g><path d="M -3.402344 -9.6875 L 5.21875 -11.992188 L 7.964844 -18.300781 L -2.628906 -14.703125 L -6.808594 -23.949219 L -9.46875 -17.839844 L -5.738281 -10.703125 L -21.640625 -17.625 L -23.785156 -12.695312 L 0.859375 -1.972656 L 3.003906 -6.898438 Z M -3.402344 -9.6875 "/></g></g></g><g fill="#000000" fill-opacity="1"><g transform="translate(61.064673, 72.537185)"><g/></g></g><g fill="#000000" fill-opacity="1"><g transform="translate(74.477269, 59.37262)"><g><path d="M 1.484375 -14.597656 L 3.921875 -16.101562 L 1.742188 -19.640625 L -0.699219 -18.132812 L -3.859375 -23.257812 L -8.402344 -20.457031 L -5.242188 -15.332031 L -7.683594 -13.828125 L -5.503906 -10.289062 L -3.0625 -11.792969 L 3.050781 -1.878906 L 7.59375 -4.683594 Z M 1.484375 -14.597656 "/></g></g></g><g fill="#000000" fill-opacity="1"><g transform="translate(93.342244, 48.806746)"><g><path d="M 9.34375 -5.683594 C 6.5 -5.113281 5.308594 -7.027344 4.914062 -8.996094 C 4.523438 -10.925781 4.949219 -13.171875 7.722656 -13.730469 C 10.464844 -14.28125 11.726562 -12.378906 12.113281 -10.445312 C 12.511719 -8.480469 12.15625 -6.25 9.34375 -5.683594 Z M 6.894531 -17.839844 C 2.046875 -16.863281 -1.304688 -12.824219 -0.328125 -7.976562 C 0.671875 -3.023438 5.191406 -0.71875 10.144531 -1.714844 C 15.0625 -2.707031 18.339844 -6.585938 17.339844 -11.539062 C 16.363281 -16.382812 11.707031 -18.808594 6.894531 -17.839844 Z M 6.894531 -17.839844 "/></g></g></g><g fill="#000000" fill-opacity="1"><g transform="translate(122.834777, 45.402802)"><g/></g></g><g fill="#000000" fill-opacity="1"><g transform="translate(140.947549, 48.504594)"><g><path d="M 14.476562 -6.164062 C 16.144531 -5.335938 16.769531 -3.941406 16.148438 -2.53125 L 20.929688 -0.152344 C 22.332031 -3.535156 20.769531 -7.714844 16.183594 -9.996094 C 11.46875 -12.34375 6.648438 -10.539062 4.636719 -6.5 C 2.625 -2.457031 3.914062 2.347656 8.824219 4.792969 C 13.121094 6.929688 17.191406 5.914062 19.234375 3.007812 L 14.550781 0.679688 C 13.753906 1.882812 12.277344 1.949219 10.804688 1.214844 C 8.558594 0.0976562 8.9375 -2.277344 9.753906 -3.914062 C 10.550781 -5.515625 12.292969 -7.25 14.476562 -6.164062 Z M 14.476562 -6.164062 "/></g></g></g><g fill="#000000" fill-opacity="1"><g transform="translate(165.552611, 62.635129)"><g><path d="M 18.777344 7.9375 C 22.019531 5.117188 23.082031 1.914062 20.308594 -1.277344 C 18.941406 -2.847656 17.136719 -3.503906 15.402344 -3.421875 L 25.21875 -11.960938 L 21.6875 -16.015625 L 1.410156 1.621094 L 4.9375 5.679688 L 10.886719 0.503906 C 12.507812 -0.90625 14.730469 -1.082031 15.835938 0.1875 C 16.941406 1.460938 16.65625 2.660156 15.25 3.882812 L 8.488281 9.761719 L 12.015625 13.816406 Z M 18.777344 7.9375 "/></g></g></g><g fill="#000000" fill-opacity="1"><g transform="translate(183.020814, 85.035442)"><g><path d="M 11.925781 11.425781 C 9.949219 12.058594 7.683594 11.089844 7.027344 9.039062 C 6.371094 6.992188 7.65625 4.890625 9.636719 4.257812 C 11.617188 3.625 13.882812 4.59375 14.535156 6.640625 C 15.191406 8.6875 13.90625 10.792969 11.925781 11.425781 Z M 21.074219 14.144531 L 19.4375 9.023438 L 17.628906 9.601562 C 18.839844 7.746094 18.777344 5.660156 18.164062 3.75 C 16.800781 -0.515625 12.054688 -2.535156 7.890625 -1.207031 C 3.726562 0.125 1.066406 4.511719 2.429688 8.777344 C 3.039062 10.691406 4.363281 12.710938 6.226562 13.246094 L 4.417969 13.824219 L 6.054688 18.945312 Z M 21.074219 14.144531 "/></g></g></g><g fill="#000000" fill-opacity="1"><g transform="translate(190.424824, 114.57826)"><g><path d="M 7.140625 19.09375 C 11.417969 19.511719 14.476562 18.082031 14.886719 13.871094 C 15.085938 11.804688 14.324219 10.039062 13.070312 8.835938 L 14.996094 9.023438 L 15.519531 3.671875 L -0.207031 2.140625 L -0.730469 7.488281 L 7.117188 8.253906 C 9.257812 8.464844 10.910156 9.957031 10.746094 11.632812 C 10.582031 13.308594 9.515625 13.925781 7.660156 13.746094 L -1.253906 12.875 L -1.777344 18.226562 Z M 7.140625 19.09375 "/></g></g></g><g fill="#000000" fill-opacity="1"><g transform="translate(186.159632, 142.661424)"><g><path d="M -1.738281 11.316406 C -0.699219 9.433594 1.710938 8.921875 3.5625 9.941406 C 5.382812 10.945312 6.238281 13.257812 5.199219 15.140625 C 4.160156 17.023438 1.75 17.535156 -0.0703125 16.53125 C -1.921875 15.511719 -2.773438 13.199219 -1.738281 11.316406 Z M 5.140625 19.402344 C 7.453125 18.917969 8.792969 17.53125 9.761719 15.773438 C 11.921875 11.847656 10.160156 7.03125 6.332031 4.921875 C 2.5 2.8125 -2.546875 3.875 -4.707031 7.796875 C -5.675781 9.554688 -6.234375 11.90625 -5.308594 13.644531 L -7.507812 12.433594 C -9.484375 11.34375 -10.554688 8.832031 -9.414062 6.757812 C -8.582031 5.253906 -6.902344 4.503906 -5.078125 5.058594 L -2.484375 0.347656 C -6.808594 -1.75 -10.960938 1.324219 -13.035156 5.089844 C -15.457031 9.484375 -14.117188 14.925781 -9.566406 17.433594 L 4.242188 25.046875 L 6.835938 20.339844 Z M 5.140625 19.402344 "/></g></g></g><g fill="#000000" fill-opacity="1"><g transform="translate(169.841915, 168.346864)"><g><path d="M 0.414062 12.035156 C 0.414062 12.035156 2.066406 14.472656 -0.597656 16.527344 C -3.179688 18.519531 -5.175781 16.347656 -5.175781 16.347656 Z M -10.199219 18.28125 C -7.113281 22.28125 -2.214844 22.121094 1.589844 19.1875 C 5.785156 15.949219 6.84375 10.921875 3.824219 7.007812 C 0.757812 3.035156 -4.191406 2.78125 -8.503906 6.109375 C -11.824219 8.667969 -13.21875 12.371094 -11.417969 16.234375 L -7.078125 12.882812 C -7.75 11.953125 -7.578125 10.238281 -6.074219 9.078125 C -4.402344 7.785156 -2.199219 8.53125 -1.082031 9.976562 L -10.785156 17.464844 C -10.589844 17.71875 -10.398438 18.023438 -10.199219 18.28125 Z M -10.199219 18.28125 "/></g></g></g></svg>