<svg width="71" height="88" viewBox="0 0 71 88" fill="none" xmlns="http://www.w3.org/2000/svg">
<path d="M35.5 62.5608V5.5" stroke="black" stroke-width="5" stroke-linecap="square" stroke-linejoin="round"/>
<path d="M48.2359 15.7488L35.4999 3L22.7639 15.7488" stroke="black" stroke-width="5" stroke-linecap="square" stroke-linejoin="round"/>
<path d="M9 25L5.57308 25C4.89066 25 4.23618 25.2502 3.75364 25.6957C3.27109 26.1411 3 26.7452 3 27.3752V82.6248C3 83.2548 3.27109 83.8589 3.75364 84.3043C4.23618 84.7497 4.89066 85 5.57308 85H65.4269C66.1094 85 66.7638 84.7497 67.2464 84.3043C67.7289 83.8589 68 83.2548 68 82.6248V27.3752C68 26.7452 67.7289 26.1411 67.2464 25.6957C66.7638 25.2502 66.1094 25 65.4269 25L61 25" stroke="black" stroke-width="5" stroke-miterlimit="10" stroke-linecap="square"/>
</svg>
