<svg width="461" height="711" viewBox="0 0 461 711" fill="none" xmlns="http://www.w3.org/2000/svg">
<path d="M-13.0437 85.8655L29.4768 61.8395C49.4548 50.551 73.0753 47.5865 95.2233 53.5878V53.5878C127.084 62.221 151.345 88.094 157.914 120.443L160.074 131.076C166.683 163.626 150.952 196.621 121.502 211.978L115.345 215.189C101.777 222.264 85.9562 223.664 71.357 219.081L64.6434 216.974C44.5687 210.673 30.9089 192.069 30.9089 171.028V171.028C30.9089 154.329 39.5601 138.823 53.7698 130.051L64.2081 123.608C68.5277 120.941 73.1239 118.752 77.9161 117.077L80.6695 116.115C104.033 107.952 129.633 109.034 152.224 119.14L178.339 130.823C183.856 133.291 189.138 136.254 194.12 139.676L235.326 167.977C242.332 172.789 248.696 178.474 254.264 184.896L298.548 235.968C306.082 244.657 312.061 254.58 316.221 265.301L330.154 301.201C332.885 308.239 334.81 315.564 335.893 323.035L340.158 352.452C341.756 363.478 341.5 374.694 339.401 385.636L330.994 429.467C328.606 441.915 323.873 453.796 317.047 464.477L300.814 489.879C295.831 497.676 288.925 504.061 280.761 508.418L279.382 509.154C258.399 520.353 232.49 515.866 216.494 498.263V498.263V498.263C197.94 481.111 193.649 453.436 206.139 431.47L210.394 423.986C219.543 407.897 235.608 396.933 253.925 394.278V394.278C268.853 392.114 284.048 395.655 296.482 404.194L323.581 422.806C332.069 428.636 339.606 435.742 345.924 443.873L387.737 497.676C392.215 503.437 396.048 509.671 399.169 516.267L427.605 576.361C431.862 585.357 434.752 594.938 436.18 604.787L441.897 644.229" stroke="black" stroke-width="7"/>
<path d="M443.868 657.811L455.302 636.519L426.86 640.642L443.868 657.811Z" fill="black"/>
</svg>
