<svg width="479" height="635" viewBox="0 0 479 635" fill="none" xmlns="http://www.w3.org/2000/svg">
<path d="M538.001 199.5L518.41 176.77C484.127 136.993 428.908 122.4 379.45 140.046L361.442 146.471C350.801 150.268 341.439 156.976 334.422 165.832L325.832 176.674C309.357 197.469 313.369 227.774 334.689 243.565V243.565C341.105 248.317 348.627 251.355 356.543 252.391L362.513 253.172C379.917 255.449 396.778 246.141 404.124 230.201V230.201C408.69 220.294 409.022 208.954 405.043 198.796L403.133 193.922C396.132 176.05 379.915 163.438 360.869 161.053L344.472 159L314.314 159C301.965 159 289.67 160.634 277.75 163.859L272.385 165.311C265.882 167.07 259.514 169.297 253.332 171.973L233.816 180.422C220.694 186.102 208.595 193.899 198 203.5V203.5L191.569 211.004C187.896 215.289 183.381 218.773 178.304 221.238V221.238C171.879 224.359 166.377 229.099 162.339 234.992L158.708 240.292C154.095 247.024 152.365 255.32 153.901 263.335L154.333 265.584C155.998 274.272 161.916 281.543 170.085 284.937V284.937C177.833 288.156 186.65 287.49 193.826 283.143L196.978 281.234C205.997 275.771 211.928 266.389 212.994 255.898L213.092 254.932C213.68 249.154 212.268 243.349 209.092 238.485L202.262 228.026C199.448 223.718 195.811 220.008 191.56 217.109V217.109C181.728 210.406 169.378 208.548 158.01 212.064L149.501 214.696L132.202 219.382C122.465 222.02 114.168 228.403 109.122 237.138V237.138C105.767 242.945 104.001 249.532 104.001 256.238L104.001 273.164C104.001 290.117 108.255 306.799 116.372 321.682L134 354L135.54 357.943C142.764 376.436 153.839 393.181 168.029 407.067L182.014 420.751L190.561 428.84C203.281 440.879 222.525 442.813 237.387 433.546V433.546V433.546C253.922 425.142 262.405 406.385 257.796 388.418L256.261 382.436C252.852 369.149 243.531 358.162 230.977 352.633V352.633C220.759 348.133 209.228 347.62 198.651 351.193L179.287 357.735C169.768 360.951 160.805 365.621 152.715 371.58L121.402 394.643C113.119 400.743 105.533 407.738 98.7829 415.501L78.3681 438.977C69.1358 449.594 61.5566 461.542 55.886 474.418L48.2383 491.784" stroke="black" stroke-width="7"/>
<path d="M44.1882 500.981L40.1911 483.664L59.6619 492.239L44.1882 500.981Z" fill="black"/>
</svg>
