<svg width="53" height="53" viewBox="0 0 53 53" fill="none" xmlns="http://www.w3.org/2000/svg">
<path d="M41.9582 0.222656H11.0417C4.94666 0.222656 0 5.07784 0 11.0601V41.4049C0 47.3873 4.94666 52.2423 11.0417 52.2423H41.9582C48.0532 52.2423 53 47.3873 53 41.4049V11.0601C53 5.07784 48.0532 0.222656 41.9582 0.222656ZM48.5834 41.4049C48.5834 44.9814 45.6019 47.9074 41.9582 47.9074H11.0417C7.3979 47.9074 4.41667 44.9814 4.41667 41.4049V11.0601C4.41667 7.48374 7.3979 4.55763 11.0417 4.55763H41.9582C45.6019 4.55763 48.5834 7.48374 48.5834 11.0601V41.4049Z" fill="#1A2342"/>
<path d="M27.0198 10.627C18.4241 10.627 11.4316 17.394 11.4316 25.7127C11.4316 34.0312 18.4241 40.7983 27.0198 40.7983C35.6155 40.7983 42.6081 34.0312 42.6081 25.7127C42.6081 17.394 35.6155 10.627 27.0198 10.627ZM27.0198 36.4883C20.8736 36.4883 15.8854 31.6607 15.8854 25.7127C15.8854 19.7646 20.8736 14.9372 27.0198 14.9372C33.1661 14.9372 38.1542 19.7646 38.1542 25.7127C38.1542 31.6607 33.1661 36.4883 27.0198 36.4883Z" fill="#1A2342"/>
<path d="M39.4897 13.7469C40.6374 13.7469 41.568 12.5824 41.568 11.1459C41.568 9.7094 40.6374 8.54492 39.4897 8.54492C38.3417 8.54492 37.4111 9.7094 37.4111 11.1459C37.4111 12.5824 38.3417 13.7469 39.4897 13.7469Z" fill="#1A2342"/>
</svg>
