<svg width="73" height="56" viewBox="0 0 73 56" fill="none" xmlns="http://www.w3.org/2000/svg">
<path d="M66.8745 0H6.12552C2.7425 0 0 3.02927 0 6.76605V49.2344C0 52.9711 2.74227 56 6.12504 56H66.8751C70.2576 56 73 52.9711 73 49.2344V6.76605C73 3.02927 70.2576 0 66.8745 0ZM6.59415 2.46311H66.4063C67.1351 2.46311 67.7533 2.66311 68.2569 2.93389L36.9537 40.0433C36.7085 40.3339 36.2914 40.3339 36.0462 40.0433L4.74324 2.93389C5.24673 2.66311 5.8653 2.46311 6.59415 2.46311ZM2.444 50.1271V5.87349C2.56845 5.42619 2.74995 5.0049 2.9819 4.62005L25.1749 30.774L3.0578 51.5019C2.78909 51.0846 2.58166 50.6212 2.444 50.1271ZM66.8751 53.537H6.12552C5.61117 53.537 5.12218 53.4204 4.67223 53.2194L26.6991 32.5763L35.0291 42.4515C35.8242 43.3938 37.1758 43.3938 37.9708 42.4515L46.2031 32.6921L68.4446 53.1656C67.9632 53.4008 67.4342 53.537 66.8751 53.537ZM70.7702 48.7168C70.7702 49.6895 70.507 50.6153 70.0166 51.406L47.7314 30.8928L70.095 4.72525C70.5349 5.48605 70.7702 6.36402 70.7702 7.28369V48.7168Z" fill="#1A2342"/>
</svg>
