<svg width="20" height="20" viewBox="0 0 20 20" fill="none" xmlns="http://www.w3.org/2000/svg">
<path d="M17.1887 2.78215C15.8733 1.51716 14.1312 0.833374 12.2825 0.833374H6.94973C5.10103 0.833374 3.35898 1.51716 2.04355 2.78215C0.72813 4.04715 0.0170898 5.72242 0.0170898 7.50025V12.6286C0.0170898 14.4064 0.72813 16.0817 2.04355 17.3467C3.35898 18.6117 5.10103 19.2955 6.94973 19.2955H12.2825C14.1312 19.2955 15.8733 18.6117 17.1887 17.3467C18.5041 16.0817 19.2152 14.4064 19.2152 12.6286V7.50025C19.2152 5.72242 18.5041 4.04715 17.1887 2.78215ZM14.5934 14.0987C14.5223 14.2355 14.4157 14.3039 14.2734 14.3039C14.2379 14.3039 14.1668 14.3039 14.1312 14.2697C12.7092 13.6885 11.1804 13.3808 9.61613 13.3808C8.05184 13.3808 6.52311 13.6885 5.10103 14.2697C4.92327 14.3381 4.70996 14.2697 4.63885 14.0987C4.56775 13.9278 4.63885 13.7227 4.81661 13.6543C6.34535 13.0047 7.94519 12.697 9.61613 12.697C11.2871 12.697 12.9225 13.0047 14.4157 13.6543C14.5934 13.7227 14.7001 13.9278 14.5934 14.0987ZM15.8733 11.3294C15.8022 11.432 15.6955 11.5004 15.5533 11.5004C15.4822 11.5004 15.4111 11.5004 15.3756 11.4662C13.6335 10.4747 11.6426 9.96187 9.58058 9.96187C7.51856 9.96187 5.59876 10.4747 3.82115 11.432C3.64339 11.5346 3.43008 11.4662 3.32343 11.2952C3.21677 11.1243 3.28787 10.9192 3.46563 10.8166C5.31434 9.75673 7.44746 9.20971 9.61613 9.20971C11.7848 9.20971 13.8824 9.75673 15.7666 10.8166C15.9444 10.9534 15.9799 11.1585 15.8733 11.3294ZM17.011 8.69687C16.9398 8.79944 16.8332 8.83363 16.7265 8.83363C16.6554 8.83363 16.5843 8.79944 16.5132 8.76525C14.5223 7.29512 12.1403 6.54296 9.61613 6.54296C7.09194 6.54296 4.70996 7.3293 2.71904 8.76525C2.57683 8.86781 2.32797 8.83363 2.22131 8.69687C2.11466 8.56011 2.15021 8.32079 2.29242 8.21822C4.42554 6.67971 6.94973 5.85917 9.61613 5.85917C12.2825 5.85917 14.8067 6.67971 16.9398 8.21822C17.0821 8.32079 17.1176 8.52592 17.011 8.69687Z" fill="black"/>
</svg>
