<svg xmlns="http://www.w3.org/2000/svg" xmlns:xlink="http://www.w3.org/1999/xlink" width="1080" zoomAndPan="magnify" viewBox="0 0 810 809.999993" height="1080" preserveAspectRatio="xMidYMid meet" version="1.0"><rect x="-81" width="972" fill="#ffffff" y="-80.999999" height="971.999992" fill-opacity="1"/><rect x="-81" width="972" fill="#ff9b49" y="-80.999999" height="971.999992" fill-opacity="1"/><path fill="#111b40" d="M 54.203125 61.054688 C 55.046875 61.054688 55.726562 61.316406 56.242188 61.835938 C 56.761719 62.351562 57.023438 63.074219 57.023438 64.003906 L 57.023438 68.050781 L 55.285156 68.050781 L 55.285156 64.242188 C 55.285156 63.699219 55.148438 63.289062 54.875 63.007812 C 54.601562 62.71875 54.226562 62.570312 53.753906 62.570312 C 53.28125 62.570312 52.90625 62.71875 52.625 63.007812 C 52.351562 63.289062 52.214844 63.699219 52.214844 64.242188 L 52.214844 68.050781 L 50.472656 68.050781 L 50.472656 64.242188 C 50.472656 63.699219 50.335938 63.289062 50.0625 63.007812 C 49.789062 62.71875 49.414062 62.570312 48.945312 62.570312 C 48.460938 62.570312 48.082031 62.71875 47.800781 63.007812 C 47.527344 63.289062 47.390625 63.699219 47.390625 64.242188 L 47.390625 68.050781 L 45.648438 68.050781 L 45.648438 61.152344 L 47.390625 61.152344 L 47.390625 61.988281 C 47.613281 61.695312 47.898438 61.46875 48.246094 61.300781 C 48.605469 61.136719 48.992188 61.054688 49.414062 61.054688 C 49.953125 61.054688 50.433594 61.167969 50.859375 61.402344 C 51.28125 61.625 51.609375 61.949219 51.839844 62.371094 C 52.0625 61.972656 52.386719 61.65625 52.808594 61.414062 C 53.242188 61.171875 53.703125 61.054688 54.203125 61.054688 Z M 57.484375 64.578125 C 57.484375 63.878906 57.621094 63.261719 57.894531 62.722656 C 58.175781 62.183594 58.550781 61.765625 59.023438 61.476562 C 59.503906 61.1875 60.039062 61.039062 60.628906 61.039062 C 61.140625 61.039062 61.589844 61.144531 61.972656 61.351562 C 62.359375 61.558594 62.671875 61.820312 62.902344 62.136719 L 62.902344 61.152344 L 64.65625 61.152344 L 64.65625 68.050781 L 62.902344 68.050781 L 62.902344 67.042969 C 62.679688 67.363281 62.367188 67.636719 61.972656 67.851562 C 61.582031 68.058594 61.128906 68.160156 60.617188 68.160156 C 60.035156 68.160156 59.503906 68.011719 59.023438 67.714844 C 58.550781 67.414062 58.175781 66.996094 57.894531 66.457031 C 57.621094 65.910156 57.484375 65.28125 57.484375 64.578125 Z M 62.902344 64.601562 C 62.902344 64.179688 62.820312 63.816406 62.65625 63.519531 C 62.488281 63.210938 62.265625 62.980469 61.984375 62.820312 C 61.703125 62.65625 61.398438 62.570312 61.074219 62.570312 C 60.753906 62.570312 60.453125 62.652344 60.179688 62.808594 C 59.90625 62.964844 59.683594 63.199219 59.507812 63.503906 C 59.34375 63.804688 59.261719 64.160156 59.261719 64.578125 C 59.261719 64.992188 59.34375 65.355469 59.507812 65.671875 C 59.683594 65.980469 59.90625 66.214844 60.179688 66.382812 C 60.460938 66.546875 60.761719 66.628906 61.074219 66.628906 C 61.398438 66.628906 61.703125 66.550781 61.984375 66.394531 C 62.265625 66.226562 62.488281 65.996094 62.65625 65.695312 C 62.820312 65.390625 62.902344 65.023438 62.902344 64.601562 Z M 65.164062 64.578125 C 65.164062 63.878906 65.300781 63.261719 65.574219 62.722656 C 65.855469 62.183594 66.234375 61.765625 66.71875 61.476562 C 67.199219 61.1875 67.730469 61.039062 68.320312 61.039062 C 68.769531 61.039062 69.195312 61.140625 69.601562 61.339844 C 70.007812 61.53125 70.332031 61.789062 70.570312 62.113281 L 70.570312 58.835938 L 72.335938 58.835938 L 72.335938 68.050781 L 70.570312 68.050781 L 70.570312 67.027344 C 70.355469 67.371094 70.054688 67.644531 69.664062 67.851562 C 69.273438 68.058594 68.820312 68.160156 68.308594 68.160156 C 67.726562 68.160156 67.199219 68.011719 66.71875 67.714844 C 66.234375 67.414062 65.855469 66.996094 65.574219 66.457031 C 65.300781 65.910156 65.164062 65.28125 65.164062 64.578125 Z M 70.582031 64.601562 C 70.582031 64.179688 70.5 63.816406 70.335938 63.519531 C 70.167969 63.210938 69.945312 62.980469 69.664062 62.820312 C 69.382812 62.65625 69.078125 62.570312 68.757812 62.570312 C 68.433594 62.570312 68.132812 62.652344 67.859375 62.808594 C 67.585938 62.964844 67.363281 63.199219 67.1875 63.503906 C 67.023438 63.804688 66.941406 64.160156 66.941406 64.578125 C 66.941406 64.992188 67.023438 65.355469 67.1875 65.671875 C 67.363281 65.980469 67.585938 66.214844 67.859375 66.382812 C 68.140625 66.546875 68.441406 66.628906 68.757812 66.628906 C 69.078125 66.628906 69.382812 66.550781 69.664062 66.394531 C 69.945312 66.226562 70.167969 65.996094 70.335938 65.695312 C 70.5 65.390625 70.582031 65.023438 70.582031 64.601562 Z M 79.691406 64.453125 C 79.691406 64.699219 79.675781 64.925781 79.644531 65.125 L 74.609375 65.125 C 74.648438 65.621094 74.824219 66.011719 75.128906 66.292969 C 75.4375 66.578125 75.8125 66.71875 76.261719 66.71875 C 76.910156 66.71875 77.367188 66.441406 77.640625 65.882812 L 79.519531 65.882812 C 79.320312 66.546875 78.9375 67.09375 78.375 67.527344 C 77.8125 67.949219 77.121094 68.160156 76.300781 68.160156 C 75.636719 68.160156 75.039062 68.015625 74.507812 67.726562 C 73.988281 67.425781 73.578125 67.007812 73.277344 66.46875 C 72.988281 65.929688 72.84375 65.308594 72.84375 64.601562 C 72.84375 63.886719 72.988281 63.261719 73.277344 62.722656 C 73.566406 62.183594 73.972656 61.765625 74.496094 61.476562 C 75.019531 61.1875 75.621094 61.039062 76.300781 61.039062 C 76.953125 61.039062 77.539062 61.183594 78.050781 61.464844 C 78.574219 61.746094 78.976562 62.148438 79.257812 62.671875 C 79.546875 63.1875 79.691406 63.78125 79.691406 64.453125 Z M 77.890625 63.953125 C 77.882812 63.503906 77.71875 63.148438 77.40625 62.882812 C 77.089844 62.609375 76.707031 62.472656 76.25 62.472656 C 75.820312 62.472656 75.453125 62.605469 75.15625 62.871094 C 74.867188 63.128906 74.6875 63.488281 74.621094 63.953125 Z M 47.390625 74.609375 C 47.613281 74.277344 47.917969 74.007812 48.308594 73.800781 C 48.707031 73.59375 49.160156 73.492188 49.664062 73.492188 C 50.253906 73.492188 50.785156 73.636719 51.253906 73.925781 C 51.738281 74.214844 52.113281 74.632812 52.386719 75.171875 C 52.667969 75.703125 52.808594 76.320312 52.808594 77.027344 C 52.808594 77.730469 52.667969 78.359375 52.386719 78.90625 C 52.113281 79.445312 51.738281 79.863281 51.253906 80.164062 C 50.785156 80.460938 50.253906 80.609375 49.664062 80.609375 C 49.152344 80.609375 48.699219 80.511719 48.308594 80.3125 C 47.929688 80.105469 47.621094 79.839844 47.390625 79.515625 L 47.390625 80.5 L 45.648438 80.5 L 45.648438 71.285156 L 47.390625 71.285156 Z M 51.03125 77.027344 C 51.03125 76.609375 50.945312 76.253906 50.769531 75.957031 C 50.605469 75.648438 50.382812 75.414062 50.101562 75.257812 C 49.824219 75.101562 49.527344 75.023438 49.203125 75.023438 C 48.890625 75.023438 48.589844 75.105469 48.308594 75.269531 C 48.035156 75.429688 47.8125 75.660156 47.636719 75.96875 C 47.472656 76.273438 47.390625 76.636719 47.390625 77.050781 C 47.390625 77.464844 47.472656 77.828125 47.636719 78.132812 C 47.8125 78.441406 48.035156 78.675781 48.308594 78.84375 C 48.589844 79 48.890625 79.078125 49.203125 79.078125 C 49.527344 79.078125 49.824219 78.996094 50.101562 78.832031 C 50.382812 78.664062 50.605469 78.429688 50.769531 78.121094 C 50.945312 77.8125 51.03125 77.449219 51.03125 77.027344 Z M 59.917969 73.601562 L 55.652344 83.761719 L 53.800781 83.761719 L 55.292969 80.324219 L 52.53125 73.601562 L 54.484375 73.601562 L 56.261719 78.421875 L 58.066406 73.601562 Z M 59.917969 73.601562 " fill-opacity="1" fill-rule="nonzero"/><path stroke-linecap="butt" transform="matrix(0.414419, 0, 0, 0.414979, -87.408611, 6.217935)" fill="none" stroke-linejoin="miter" d="M 409.003023 117.496482 L 318.995523 117.496482 " stroke="#111b40" stroke-width="3" stroke-opacity="1" stroke-miterlimit="4"/><path fill="#111b40" d="M 55.757812 90.433594 C 56.726562 88.921875 58.0625 87.703125 59.761719 86.773438 C 61.464844 85.84375 63.457031 85.378906 65.738281 85.378906 C 68.40625 85.378906 70.824219 86.058594 72.992188 87.414062 C 75.15625 88.769531 76.859375 90.703125 78.097656 93.222656 C 79.375 95.738281 80.011719 98.664062 80.011719 101.996094 C 80.011719 105.328125 79.375 108.269531 78.097656 110.824219 C 76.859375 113.34375 75.15625 115.300781 72.992188 116.695312 C 70.824219 118.050781 68.40625 118.726562 65.738281 118.726562 C 63.496094 118.726562 61.503906 118.261719 59.761719 117.332031 C 58.0625 116.402344 56.726562 115.203125 55.757812 113.730469 L 55.757812 133.714844 L 45.839844 133.714844 L 45.839844 85.84375 L 55.757812 85.84375 Z M 69.917969 101.996094 C 69.917969 99.515625 69.21875 97.578125 67.828125 96.183594 C 66.472656 94.753906 64.792969 94.035156 62.78125 94.035156 C 60.808594 94.035156 59.125 94.753906 57.730469 96.183594 C 56.378906 97.617188 55.703125 99.574219 55.703125 102.054688 C 55.703125 104.53125 56.378906 106.488281 57.730469 107.921875 C 59.125 109.355469 60.808594 110.070312 62.78125 110.070312 C 64.753906 110.070312 66.433594 109.355469 67.828125 107.921875 C 69.21875 106.449219 69.917969 104.472656 69.917969 101.996094 Z M 112.832031 101.53125 C 112.832031 102.460938 112.777344 103.429688 112.660156 104.433594 L 90.207031 104.433594 C 90.359375 106.449219 91 108 92.121094 109.082031 C 93.28125 110.128906 94.691406 110.652344 96.355469 110.652344 C 98.832031 110.652344 100.554688 109.605469 101.519531 107.515625 L 112.078125 107.515625 C 111.539062 109.644531 110.550781 111.5625 109.121094 113.265625 C 107.726562 114.96875 105.96875 116.304688 103.839844 117.273438 C 101.714844 118.242188 99.335938 118.726562 96.703125 118.726562 C 93.53125 118.726562 90.707031 118.050781 88.234375 116.695312 C 85.757812 115.339844 83.824219 113.402344 82.433594 110.882812 C 81.039062 108.367188 80.34375 105.421875 80.34375 102.054688 C 80.34375 98.683594 81.019531 95.738281 82.375 93.222656 C 83.765625 90.703125 85.699219 88.769531 88.175781 87.414062 C 90.652344 86.058594 93.492188 85.378906 96.703125 85.378906 C 99.835938 85.378906 102.621094 86.039062 105.058594 87.355469 C 107.496094 88.671875 109.390625 90.550781 110.746094 92.988281 C 112.136719 95.429688 112.832031 98.277344 112.832031 101.53125 Z M 102.679688 98.917969 C 102.679688 97.210938 102.101562 95.855469 100.941406 94.847656 C 99.777344 93.84375 98.328125 93.339844 96.589844 93.339844 C 94.925781 93.339844 93.511719 93.824219 92.351562 94.792969 C 91.230469 95.757812 90.535156 97.132812 90.265625 98.917969 Z M 145.683594 101.53125 C 145.683594 102.460938 145.625 103.429688 145.511719 104.433594 L 123.058594 104.433594 C 123.210938 106.449219 123.851562 108 124.972656 109.082031 C 126.132812 110.128906 127.542969 110.652344 129.207031 110.652344 C 131.683594 110.652344 133.402344 109.605469 134.371094 107.515625 L 144.929688 107.515625 C 144.386719 109.644531 143.402344 111.5625 141.972656 113.265625 C 140.578125 114.96875 138.820312 116.304688 136.691406 117.273438 C 134.5625 118.242188 132.183594 118.726562 129.554688 118.726562 C 126.382812 118.726562 123.558594 118.050781 121.085938 116.695312 C 118.609375 115.339844 116.675781 113.402344 115.28125 110.882812 C 113.890625 108.367188 113.195312 105.421875 113.195312 102.054688 C 113.195312 98.683594 113.871094 95.738281 115.222656 93.222656 C 116.617188 90.703125 118.550781 88.769531 121.027344 87.414062 C 123.5 86.058594 126.34375 85.378906 129.554688 85.378906 C 132.6875 85.378906 135.472656 86.039062 137.910156 87.355469 C 140.347656 88.671875 142.242188 90.550781 143.59375 92.988281 C 144.988281 95.429688 145.683594 98.277344 145.683594 101.53125 Z M 135.53125 98.917969 C 135.53125 97.210938 134.949219 95.855469 133.789062 94.847656 C 132.628906 93.84375 131.179688 93.339844 129.4375 93.339844 C 127.777344 93.339844 126.363281 93.824219 125.203125 94.792969 C 124.082031 95.757812 123.386719 97.132812 123.113281 98.917969 Z M 157.9375 90.433594 C 158.90625 88.921875 160.238281 87.703125 161.941406 86.773438 C 163.644531 85.84375 165.636719 85.378906 167.917969 85.378906 C 170.585938 85.378906 173.003906 86.058594 175.167969 87.414062 C 177.335938 88.769531 179.039062 90.703125 180.277344 93.222656 C 181.550781 95.738281 182.191406 98.664062 182.191406 101.996094 C 182.191406 105.328125 181.550781 108.269531 180.277344 110.824219 C 179.039062 113.34375 177.335938 115.300781 175.167969 116.695312 C 173.003906 118.050781 170.585938 118.726562 167.917969 118.726562 C 165.675781 118.726562 163.683594 118.261719 161.941406 117.332031 C 160.238281 116.402344 158.90625 115.203125 157.9375 113.730469 L 157.9375 133.714844 L 148.015625 133.714844 L 148.015625 85.84375 L 157.9375 85.84375 Z M 172.09375 101.996094 C 172.09375 99.515625 171.398438 97.578125 170.007812 96.183594 C 168.652344 94.753906 166.96875 94.035156 164.957031 94.035156 C 162.984375 94.035156 161.304688 94.753906 159.910156 96.183594 C 158.558594 97.617188 157.878906 99.574219 157.878906 102.054688 C 157.878906 104.53125 158.558594 106.488281 159.910156 107.921875 C 161.304688 109.355469 162.984375 110.070312 164.957031 110.070312 C 166.929688 110.070312 168.613281 109.355469 170.007812 107.921875 C 171.398438 106.449219 172.09375 104.472656 172.09375 101.996094 Z M 197.664062 118.726562 C 194.839844 118.726562 192.328125 118.242188 190.121094 117.273438 C 187.917969 116.304688 186.175781 114.988281 184.902344 113.324219 C 183.625 111.621094 182.910156 109.722656 182.753906 107.628906 L 192.558594 107.628906 C 192.675781 108.753906 193.195312 109.664062 194.125 110.359375 C 195.054688 111.058594 196.195312 111.40625 197.546875 111.40625 C 198.785156 111.40625 199.734375 111.175781 200.390625 110.710938 C 201.085938 110.207031 201.4375 109.566406 201.4375 108.792969 C 201.4375 107.863281 200.953125 107.183594 199.984375 106.757812 C 199.019531 106.292969 197.453125 105.792969 195.285156 105.25 C 192.964844 104.707031 191.03125 104.144531 189.484375 103.5625 C 187.9375 102.945312 186.601562 101.996094 185.480469 100.71875 C 184.359375 99.398438 183.796875 97.636719 183.796875 95.429688 C 183.796875 93.570312 184.300781 91.886719 185.304688 90.375 C 186.351562 88.828125 187.859375 87.605469 189.832031 86.714844 C 191.84375 85.824219 194.222656 85.378906 196.96875 85.378906 C 201.03125 85.378906 204.21875 86.386719 206.542969 88.402344 C 208.902344 90.414062 210.253906 93.085938 210.601562 96.417969 L 201.4375 96.417969 C 201.28125 95.292969 200.777344 94.402344 199.925781 93.746094 C 199.113281 93.085938 198.03125 92.757812 196.679688 92.757812 C 195.519531 92.757812 194.628906 92.988281 194.007812 93.453125 C 193.390625 93.882812 193.082031 94.480469 193.082031 95.257812 C 193.082031 96.183594 193.5625 96.882812 194.53125 97.347656 C 195.535156 97.8125 197.085938 98.277344 199.171875 98.742188 C 201.570312 99.359375 203.523438 99.980469 205.03125 100.601562 C 206.542969 101.183594 207.855469 102.148438 208.976562 103.503906 C 210.136719 104.824219 210.738281 106.605469 210.777344 108.851562 C 210.777344 110.75 210.234375 112.453125 209.152344 113.964844 C 208.109375 115.433594 206.578125 116.597656 204.570312 117.449219 C 202.597656 118.300781 200.292969 118.726562 197.664062 118.726562 Z M 197.664062 118.726562 " fill-opacity="1" fill-rule="nonzero"/><path fill="#111b40" d="M 95.988281 81.300781 C 93.628906 81.300781 91.527344 80.898438 89.6875 80.089844 C 87.84375 79.28125 86.390625 78.179688 85.324219 76.789062 C 84.257812 75.363281 83.65625 73.777344 83.527344 72.027344 L 91.722656 72.027344 C 91.820312 72.96875 92.257812 73.726562 93.03125 74.3125 C 93.808594 74.894531 94.761719 75.183594 95.894531 75.183594 C 96.925781 75.183594 97.71875 74.992188 98.269531 74.601562 C 98.851562 74.179688 99.140625 73.648438 99.140625 73 C 99.140625 72.222656 98.738281 71.65625 97.929688 71.300781 C 97.121094 70.914062 95.8125 70.492188 94 70.039062 C 92.0625 69.585938 90.445312 69.117188 89.152344 68.628906 C 87.859375 68.113281 86.746094 67.320312 85.808594 66.25 C 84.871094 65.152344 84.402344 63.679688 84.402344 61.832031 C 84.402344 60.28125 84.820312 58.871094 85.664062 57.609375 C 86.535156 56.3125 87.796875 55.292969 89.445312 54.550781 C 91.125 53.804688 93.113281 53.433594 95.40625 53.433594 C 98.800781 53.433594 101.46875 54.273438 103.410156 55.957031 C 105.378906 57.640625 106.511719 59.875 106.800781 62.660156 L 99.140625 62.660156 C 99.011719 61.71875 98.59375 60.976562 97.878906 60.425781 C 97.203125 59.875 96.296875 59.601562 95.164062 59.601562 C 94.195312 59.601562 93.453125 59.792969 92.933594 60.183594 C 92.417969 60.539062 92.160156 61.039062 92.160156 61.6875 C 92.160156 62.464844 92.5625 63.046875 93.371094 63.433594 C 94.210938 63.824219 95.503906 64.210938 97.25 64.601562 C 99.253906 65.117188 100.886719 65.636719 102.148438 66.152344 C 103.410156 66.640625 104.507812 67.449219 105.445312 68.582031 C 106.414062 69.683594 106.914062 71.171875 106.949219 73.046875 C 106.949219 74.636719 106.496094 76.058594 105.589844 77.320312 C 104.71875 78.550781 103.441406 79.523438 101.761719 80.234375 C 100.109375 80.945312 98.1875 81.300781 95.988281 81.300781 Z M 121.425781 81.300781 C 118.777344 81.300781 116.382812 80.734375 114.25 79.601562 C 112.148438 78.46875 110.484375 76.851562 109.257812 74.75 C 108.0625 72.644531 107.460938 70.183594 107.460938 67.367188 C 107.460938 64.585938 108.078125 62.140625 109.304688 60.035156 C 110.535156 57.898438 112.214844 56.265625 114.347656 55.132812 C 116.480469 54 118.875 53.433594 121.523438 53.433594 C 124.175781 53.433594 126.566406 54 128.699219 55.132812 C 130.832031 56.265625 132.515625 57.898438 133.742188 60.035156 C 134.972656 62.140625 135.585938 64.585938 135.585938 67.367188 C 135.585938 70.152344 134.953125 72.613281 133.695312 74.75 C 132.464844 76.851562 130.769531 78.46875 128.601562 79.601562 C 126.46875 80.734375 124.078125 81.300781 121.425781 81.300781 Z M 121.425781 74.117188 C 123.011719 74.117188 124.351562 73.535156 125.453125 72.367188 C 126.582031 71.203125 127.148438 69.535156 127.148438 67.367188 C 127.148438 65.199219 126.597656 63.53125 125.5 62.367188 C 124.433594 61.203125 123.109375 60.621094 121.523438 60.621094 C 119.90625 60.621094 118.566406 61.203125 117.5 62.367188 C 116.433594 63.5 115.898438 65.167969 115.898438 67.367188 C 115.898438 69.535156 116.417969 71.203125 117.449219 72.367188 C 118.519531 73.535156 119.84375 74.117188 121.425781 74.117188 Z M 171.597656 53.53125 C 174.957031 53.53125 177.625 54.550781 179.597656 56.589844 C 181.601562 58.628906 182.605469 61.460938 182.605469 65.085938 L 182.605469 80.914062 L 174.359375 80.914062 L 174.359375 66.203125 C 174.359375 64.453125 173.890625 63.113281 172.953125 62.171875 C 172.050781 61.203125 170.789062 60.714844 169.171875 60.714844 C 167.554688 60.714844 166.28125 61.203125 165.34375 62.171875 C 164.4375 63.113281 163.984375 64.453125 163.984375 66.203125 L 163.984375 80.914062 L 155.742188 80.914062 L 155.742188 66.203125 C 155.742188 64.453125 155.273438 63.113281 154.335938 62.171875 C 153.429688 61.203125 152.171875 60.714844 150.554688 60.714844 C 148.9375 60.714844 147.660156 61.203125 146.722656 62.171875 C 145.816406 63.113281 145.367188 64.453125 145.367188 66.203125 L 145.367188 80.914062 L 137.074219 80.914062 L 137.074219 53.820312 L 145.367188 53.820312 L 145.367188 57.21875 C 146.207031 56.085938 147.304688 55.199219 148.664062 54.550781 C 150.019531 53.871094 151.554688 53.53125 153.269531 53.53125 C 155.304688 53.53125 157.117188 53.96875 158.699219 54.839844 C 160.316406 55.714844 161.578125 56.960938 162.480469 58.578125 C 163.417969 57.089844 164.695312 55.878906 166.3125 54.9375 C 167.929688 54 169.691406 53.53125 171.597656 53.53125 Z M 210.996094 66.929688 C 210.996094 67.707031 210.949219 68.515625 210.851562 69.359375 L 192.085938 69.359375 C 192.21875 71.042969 192.75 72.335938 193.6875 73.242188 C 194.65625 74.117188 195.835938 74.554688 197.226562 74.554688 C 199.296875 74.554688 200.734375 73.679688 201.542969 71.933594 L 210.367188 71.933594 C 209.914062 73.710938 209.089844 75.316406 207.894531 76.738281 C 206.730469 78.164062 205.261719 79.28125 203.480469 80.089844 C 201.703125 80.898438 199.714844 81.300781 197.519531 81.300781 C 194.867188 81.300781 192.507812 80.734375 190.4375 79.601562 C 188.371094 78.46875 186.753906 76.851562 185.589844 74.75 C 184.425781 72.644531 183.84375 70.183594 183.84375 67.367188 C 183.84375 64.550781 184.410156 62.09375 185.542969 59.988281 C 186.707031 57.882812 188.320312 56.265625 190.390625 55.132812 C 192.460938 54 194.835938 53.433594 197.519531 53.433594 C 200.136719 53.433594 202.464844 53.984375 204.5 55.085938 C 206.535156 56.183594 208.121094 57.753906 209.253906 59.792969 C 210.414062 61.832031 210.996094 64.210938 210.996094 66.929688 Z M 202.511719 64.746094 C 202.511719 63.320312 202.027344 62.1875 201.058594 61.347656 C 200.089844 60.507812 198.875 60.085938 197.421875 60.085938 C 196.03125 60.085938 194.851562 60.488281 193.882812 61.300781 C 192.945312 62.109375 192.363281 63.257812 192.136719 64.746094 Z M 202.511719 64.746094 " fill-opacity="1" fill-rule="nonzero"/></svg>