<svg xmlns="http://www.w3.org/2000/svg" xmlns:xlink="http://www.w3.org/1999/xlink" width="1080" zoomAndPan="magnify" viewBox="0 0 810 809.999993" height="1080" preserveAspectRatio="xMidYMid meet" version="1.0"><rect x="-81" width="972" fill="#ffffff" y="-80.999999" height="971.999992" fill-opacity="1"/><rect x="-81" width="972" fill="#ff9b49" y="-80.999999" height="971.999992" fill-opacity="1"/><path fill="#111b40" d="M 69.253906 58.910156 C 70.1875 58.910156 70.9375 59.199219 71.507812 59.777344 C 72.085938 60.34375 72.375 61.144531 72.375 62.171875 L 72.375 66.640625 L 70.449219 66.640625 L 70.449219 62.433594 C 70.449219 61.835938 70.296875 61.382812 69.996094 61.070312 C 69.691406 60.75 69.28125 60.589844 68.757812 60.589844 C 68.234375 60.589844 67.816406 60.75 67.507812 61.070312 C 67.203125 61.382812 67.050781 61.835938 67.050781 62.433594 L 67.050781 66.640625 L 65.128906 66.640625 L 65.128906 62.433594 C 65.128906 61.835938 64.976562 61.382812 64.671875 61.070312 C 64.371094 60.75 63.957031 60.589844 63.4375 60.589844 C 62.902344 60.589844 62.480469 60.75 62.171875 61.070312 C 61.867188 61.382812 61.714844 61.835938 61.714844 62.433594 L 61.714844 66.640625 L 59.792969 66.640625 L 59.792969 59.019531 L 61.714844 59.019531 L 61.714844 59.941406 C 61.964844 59.621094 62.28125 59.367188 62.664062 59.183594 C 63.058594 59 63.492188 58.910156 63.957031 58.910156 C 64.554688 58.910156 65.085938 59.039062 65.554688 59.296875 C 66.019531 59.542969 66.382812 59.902344 66.640625 60.367188 C 66.886719 59.929688 67.246094 59.574219 67.710938 59.308594 C 68.1875 59.042969 68.703125 58.910156 69.253906 58.910156 Z M 72.882812 62.804688 C 72.882812 62.03125 73.03125 61.347656 73.335938 60.753906 C 73.644531 60.15625 74.0625 59.699219 74.585938 59.378906 C 75.117188 59.058594 75.710938 58.894531 76.359375 58.894531 C 76.929688 58.894531 77.421875 59.011719 77.84375 59.238281 C 78.277344 59.46875 78.621094 59.757812 78.875 60.105469 L 78.875 59.019531 L 80.816406 59.019531 L 80.816406 66.640625 L 78.875 66.640625 L 78.875 65.527344 C 78.628906 65.886719 78.285156 66.183594 77.84375 66.421875 C 77.414062 66.652344 76.914062 66.765625 76.347656 66.765625 C 75.703125 66.765625 75.117188 66.601562 74.585938 66.269531 C 74.0625 65.941406 73.644531 65.476562 73.335938 64.878906 C 73.03125 64.273438 72.882812 63.582031 72.882812 62.804688 Z M 78.875 62.832031 C 78.875 62.363281 78.785156 61.964844 78.601562 61.632812 C 78.417969 61.292969 78.171875 61.039062 77.859375 60.863281 C 77.546875 60.679688 77.210938 60.589844 76.855469 60.589844 C 76.496094 60.589844 76.167969 60.675781 75.863281 60.851562 C 75.5625 61.023438 75.316406 61.28125 75.121094 61.621094 C 74.9375 61.949219 74.847656 62.34375 74.847656 62.804688 C 74.847656 63.261719 74.9375 63.664062 75.121094 64.015625 C 75.316406 64.351562 75.5625 64.613281 75.863281 64.796875 C 76.175781 64.980469 76.507812 65.074219 76.855469 65.074219 C 77.210938 65.074219 77.546875 64.984375 77.859375 64.8125 C 78.171875 64.628906 78.417969 64.371094 78.601562 64.042969 C 78.785156 63.703125 78.875 63.296875 78.875 62.832031 Z M 81.375 62.804688 C 81.375 62.03125 81.527344 61.347656 81.828125 60.753906 C 82.140625 60.15625 82.5625 59.699219 83.09375 59.378906 C 83.625 59.058594 84.21875 58.894531 84.867188 58.894531 C 85.363281 58.894531 85.835938 59.007812 86.285156 59.226562 C 86.734375 59.4375 87.089844 59.722656 87.355469 60.078125 L 87.355469 56.460938 L 89.308594 56.460938 L 89.308594 66.640625 L 87.355469 66.640625 L 87.355469 65.511719 C 87.117188 65.890625 86.785156 66.191406 86.351562 66.421875 C 85.921875 66.652344 85.421875 66.765625 84.855469 66.765625 C 84.210938 66.765625 83.625 66.601562 83.09375 66.269531 C 82.5625 65.941406 82.140625 65.476562 81.828125 64.878906 C 81.527344 64.273438 81.375 63.582031 81.375 62.804688 Z M 87.371094 62.832031 C 87.371094 62.363281 87.277344 61.964844 87.097656 61.632812 C 86.914062 61.292969 86.664062 61.039062 86.351562 60.863281 C 86.042969 60.679688 85.707031 60.589844 85.347656 60.589844 C 84.992188 60.589844 84.660156 60.675781 84.359375 60.851562 C 84.058594 61.023438 83.808594 61.28125 83.617188 61.621094 C 83.433594 61.949219 83.34375 62.34375 83.34375 62.804688 C 83.34375 63.261719 83.433594 63.664062 83.617188 64.015625 C 83.808594 64.351562 84.058594 64.613281 84.359375 64.796875 C 84.671875 64.980469 85 65.074219 85.347656 65.074219 C 85.707031 65.074219 86.042969 64.984375 86.351562 64.8125 C 86.664062 64.628906 86.914062 64.371094 87.097656 64.042969 C 87.277344 63.703125 87.371094 63.296875 87.371094 62.832031 Z M 97.445312 62.664062 C 97.445312 62.941406 97.429688 63.1875 97.390625 63.410156 L 91.824219 63.410156 C 91.867188 63.957031 92.0625 64.390625 92.398438 64.703125 C 92.738281 65.011719 93.15625 65.167969 93.652344 65.167969 C 94.367188 65.167969 94.875 64.863281 95.179688 64.246094 L 97.253906 64.246094 C 97.035156 64.980469 96.613281 65.585938 95.988281 66.0625 C 95.367188 66.53125 94.601562 66.765625 93.691406 66.765625 C 92.960938 66.765625 92.300781 66.605469 91.710938 66.285156 C 91.136719 65.953125 90.679688 65.492188 90.351562 64.894531 C 90.03125 64.296875 89.871094 63.609375 89.871094 62.832031 C 89.871094 62.042969 90.03125 61.347656 90.351562 60.753906 C 90.671875 60.15625 91.121094 59.699219 91.699219 59.378906 C 92.277344 59.058594 92.941406 58.894531 93.691406 58.894531 C 94.417969 58.894531 95.0625 59.050781 95.632812 59.363281 C 96.210938 59.675781 96.652344 60.121094 96.964844 60.699219 C 97.285156 61.265625 97.445312 61.921875 97.445312 62.664062 Z M 95.453125 62.117188 C 95.445312 61.621094 95.265625 61.226562 94.917969 60.933594 C 94.566406 60.628906 94.140625 60.476562 93.636719 60.476562 C 93.160156 60.476562 92.757812 60.625 92.425781 60.917969 C 92.105469 61.203125 91.910156 61.601562 91.835938 62.117188 Z M 61.714844 73.890625 C 61.964844 73.523438 62.304688 73.226562 62.734375 72.996094 C 63.175781 72.769531 63.675781 72.652344 64.234375 72.652344 C 64.882812 72.652344 65.472656 72.8125 65.992188 73.132812 C 66.523438 73.457031 66.941406 73.914062 67.246094 74.511719 C 67.554688 75.097656 67.710938 75.78125 67.710938 76.558594 C 67.710938 77.339844 67.554688 78.03125 67.246094 78.636719 C 66.941406 79.234375 66.523438 79.695312 65.992188 80.027344 C 65.472656 80.355469 64.882812 80.523438 64.234375 80.523438 C 63.664062 80.523438 63.164062 80.410156 62.734375 80.191406 C 62.3125 79.960938 61.972656 79.667969 61.714844 79.3125 L 61.714844 80.398438 L 59.792969 80.398438 L 59.792969 70.21875 L 61.714844 70.21875 Z M 65.746094 76.558594 C 65.746094 76.101562 65.648438 75.707031 65.457031 75.378906 C 65.273438 75.039062 65.027344 74.78125 64.714844 74.605469 C 64.410156 74.433594 64.082031 74.34375 63.722656 74.34375 C 63.375 74.34375 63.046875 74.4375 62.734375 74.621094 C 62.433594 74.792969 62.183594 75.050781 61.992188 75.390625 C 61.808594 75.730469 61.714844 76.128906 61.714844 76.585938 C 61.714844 77.046875 61.808594 77.445312 61.992188 77.785156 C 62.183594 78.125 62.433594 78.386719 62.734375 78.570312 C 63.046875 78.742188 63.375 78.828125 63.722656 78.828125 C 64.082031 78.828125 64.410156 78.738281 64.714844 78.554688 C 65.027344 78.371094 65.273438 78.109375 65.457031 77.769531 C 65.648438 77.429688 65.746094 77.027344 65.746094 76.558594 Z M 75.574219 72.777344 L 70.859375 84.003906 L 68.808594 84.003906 L 70.457031 80.207031 L 67.40625 72.777344 L 69.566406 72.777344 L 71.53125 78.101562 L 73.523438 72.777344 Z M 75.574219 72.777344 " fill-opacity="1" fill-rule="nonzero"/><path stroke-linecap="butt" transform="matrix(0.458372, 0, 0, 0.458564, -87.377923, -1.684637)" fill="none" stroke-linejoin="miter" d="M 409.003063 117.497097 L 319.002146 117.497097 " stroke="#111b40" stroke-width="3" stroke-opacity="1" stroke-miterlimit="4"/><path fill="#111b40" d="M 70.976562 91.375 C 72.042969 89.707031 73.519531 88.359375 75.402344 87.332031 C 77.285156 86.304688 79.488281 85.792969 82.011719 85.792969 C 84.964844 85.792969 87.636719 86.539062 90.035156 88.039062 C 92.429688 89.535156 94.3125 91.675781 95.679688 94.457031 C 97.09375 97.238281 97.800781 100.472656 97.800781 104.152344 C 97.800781 107.832031 97.09375 111.085938 95.679688 113.910156 C 94.3125 116.691406 92.429688 118.851562 90.035156 120.394531 C 87.636719 121.890625 84.964844 122.640625 82.011719 122.640625 C 79.53125 122.640625 77.328125 122.128906 75.402344 121.101562 C 73.519531 120.074219 72.042969 118.746094 70.976562 117.121094 L 70.976562 139.203125 L 60 139.203125 L 60 86.304688 L 70.976562 86.304688 Z M 86.632812 104.152344 C 86.632812 101.414062 85.863281 99.273438 84.324219 97.730469 C 82.824219 96.148438 80.964844 95.355469 78.738281 95.355469 C 76.558594 95.355469 74.695312 96.148438 73.15625 97.730469 C 71.660156 99.316406 70.910156 101.476562 70.910156 104.214844 C 70.910156 106.957031 71.660156 109.117188 73.15625 110.699219 C 74.695312 112.285156 76.558594 113.074219 78.738281 113.074219 C 80.921875 113.074219 82.78125 112.285156 84.324219 110.699219 C 85.863281 109.074219 86.632812 106.890625 86.632812 104.152344 Z M 134.101562 103.636719 C 134.101562 104.664062 134.039062 105.734375 133.910156 106.847656 L 109.074219 106.847656 C 109.246094 109.074219 109.953125 110.785156 111.191406 111.984375 C 112.476562 113.140625 114.039062 113.71875 115.878906 113.71875 C 118.613281 113.71875 120.519531 112.5625 121.589844 110.25 L 133.269531 110.25 C 132.667969 112.605469 131.578125 114.722656 129.996094 116.605469 C 128.453125 118.488281 126.507812 119.964844 124.15625 121.035156 C 121.800781 122.105469 119.171875 122.640625 116.261719 122.640625 C 112.753906 122.640625 109.628906 121.890625 106.894531 120.394531 C 104.15625 118.894531 102.015625 116.757812 100.476562 113.972656 C 98.9375 111.191406 98.164062 107.941406 98.164062 104.214844 C 98.164062 100.492188 98.914062 97.238281 100.410156 94.457031 C 101.953125 91.675781 104.089844 89.535156 106.828125 88.039062 C 109.566406 86.539062 112.710938 85.792969 116.261719 85.792969 C 119.726562 85.792969 122.808594 86.519531 125.503906 87.972656 C 128.199219 89.429688 130.292969 91.503906 131.792969 94.199219 C 133.332031 96.898438 134.101562 100.042969 134.101562 103.636719 Z M 122.871094 100.75 C 122.871094 98.867188 122.230469 97.367188 120.945312 96.253906 C 119.664062 95.140625 118.058594 94.585938 116.132812 94.585938 C 114.292969 94.585938 112.734375 95.121094 111.449219 96.191406 C 110.207031 97.261719 109.4375 98.78125 109.140625 100.75 Z M 170.4375 103.636719 C 170.4375 104.664062 170.371094 105.734375 170.242188 106.847656 L 145.410156 106.847656 C 145.582031 109.074219 146.285156 110.785156 147.527344 111.984375 C 148.8125 113.140625 150.371094 113.71875 152.210938 113.71875 C 154.949219 113.71875 156.855469 112.5625 157.921875 110.25 L 169.601562 110.25 C 169.003906 112.605469 167.914062 114.722656 166.328125 116.605469 C 164.789062 118.488281 162.84375 119.964844 160.488281 121.035156 C 158.136719 122.105469 155.507812 122.640625 152.597656 122.640625 C 149.089844 122.640625 145.964844 121.890625 143.226562 120.394531 C 140.488281 118.894531 138.351562 116.757812 136.808594 113.972656 C 135.269531 111.191406 134.5 107.941406 134.5 104.214844 C 134.5 100.492188 135.25 97.238281 136.746094 94.457031 C 138.285156 91.675781 140.425781 89.535156 143.164062 88.039062 C 145.902344 86.539062 149.046875 85.792969 152.597656 85.792969 C 156.0625 85.792969 159.140625 86.519531 161.835938 87.972656 C 164.53125 89.429688 166.628906 91.503906 168.125 94.199219 C 169.667969 96.898438 170.4375 100.042969 170.4375 103.636719 Z M 159.207031 100.75 C 159.207031 98.867188 158.566406 97.367188 157.28125 96.253906 C 155.996094 95.140625 154.394531 94.585938 152.46875 94.585938 C 150.628906 94.585938 149.066406 95.121094 147.785156 96.191406 C 146.542969 97.261719 145.773438 98.78125 145.472656 100.75 Z M 183.992188 91.375 C 185.058594 89.707031 186.535156 88.359375 188.417969 87.332031 C 190.300781 86.304688 192.503906 85.792969 195.027344 85.792969 C 197.980469 85.792969 200.652344 86.539062 203.050781 88.039062 C 205.445312 89.535156 207.328125 91.675781 208.695312 94.457031 C 210.109375 97.238281 210.816406 100.472656 210.816406 104.152344 C 210.816406 107.832031 210.109375 111.085938 208.695312 113.910156 C 207.328125 116.691406 205.445312 118.851562 203.050781 120.394531 C 200.652344 121.890625 197.980469 122.640625 195.027344 122.640625 C 192.546875 122.640625 190.34375 122.128906 188.417969 121.101562 C 186.535156 120.074219 185.058594 118.746094 183.992188 117.121094 L 183.992188 139.203125 L 173.015625 139.203125 L 173.015625 86.304688 L 183.992188 86.304688 Z M 199.648438 104.152344 C 199.648438 101.414062 198.878906 99.273438 197.339844 97.730469 C 195.839844 96.148438 193.980469 95.355469 191.753906 95.355469 C 189.574219 95.355469 187.710938 96.148438 186.171875 97.730469 C 184.675781 99.316406 183.925781 101.476562 183.925781 104.214844 C 183.925781 106.957031 184.675781 109.117188 186.171875 110.699219 C 187.710938 112.285156 189.574219 113.074219 191.753906 113.074219 C 193.9375 113.074219 195.796875 112.285156 197.339844 110.699219 C 198.878906 109.074219 199.648438 106.890625 199.648438 104.152344 Z M 227.929688 122.640625 C 224.808594 122.640625 222.027344 122.105469 219.589844 121.035156 C 217.148438 119.964844 215.222656 118.511719 213.8125 116.671875 C 212.402344 114.789062 211.609375 112.691406 211.4375 110.378906 L 222.28125 110.378906 C 222.410156 111.621094 222.988281 112.625 224.015625 113.398438 C 225.042969 114.167969 226.304688 114.550781 227.800781 114.550781 C 229.171875 114.550781 230.21875 114.296875 230.945312 113.78125 C 231.714844 113.226562 232.101562 112.519531 232.101562 111.664062 C 232.101562 110.636719 231.566406 109.886719 230.496094 109.417969 C 229.425781 108.902344 227.695312 108.347656 225.300781 107.746094 C 222.730469 107.148438 220.59375 106.527344 218.882812 105.886719 C 217.171875 105.199219 215.695312 104.152344 214.453125 102.738281 C 213.214844 101.285156 212.59375 99.335938 212.59375 96.898438 C 212.59375 94.84375 213.148438 92.980469 214.261719 91.3125 C 215.417969 89.601562 217.085938 88.253906 219.265625 87.269531 C 221.492188 86.28125 224.121094 85.792969 227.160156 85.792969 C 231.652344 85.792969 235.183594 86.902344 237.75 89.128906 C 240.359375 91.355469 241.855469 94.308594 242.242188 97.988281 L 232.101562 97.988281 C 231.929688 96.746094 231.375 95.761719 230.433594 95.035156 C 229.535156 94.308594 228.335938 93.945312 226.839844 93.945312 C 225.554688 93.945312 224.570312 94.199219 223.886719 94.714844 C 223.203125 95.1875 222.859375 95.847656 222.859375 96.703125 C 222.859375 97.730469 223.394531 98.503906 224.464844 99.015625 C 225.578125 99.53125 227.289062 100.042969 229.597656 100.558594 C 232.25 101.242188 234.410156 101.925781 236.082031 102.609375 C 237.75 103.253906 239.203125 104.324219 240.445312 105.820312 C 241.726562 107.277344 242.390625 109.246094 242.433594 111.726562 C 242.433594 113.824219 241.835938 115.707031 240.636719 117.375 C 239.480469 119.003906 237.792969 120.289062 235.566406 121.230469 C 233.386719 122.171875 230.839844 122.640625 227.929688 122.640625 Z M 227.929688 122.640625 " fill-opacity="1" fill-rule="nonzero"/><path fill="#111b40" d="M 115.472656 81.285156 C 112.863281 81.285156 110.539062 80.839844 108.5 79.945312 C 106.460938 79.050781 104.851562 77.835938 103.671875 76.296875 C 102.492188 74.722656 101.832031 72.96875 101.6875 71.039062 L 110.753906 71.039062 C 110.859375 72.074219 111.34375 72.917969 112.199219 73.558594 C 113.058594 74.203125 114.113281 74.527344 115.363281 74.527344 C 116.507812 74.527344 117.382812 74.3125 117.992188 73.882812 C 118.636719 73.417969 118.957031 72.828125 118.957031 72.113281 C 118.957031 71.253906 118.511719 70.628906 117.617188 70.234375 C 116.722656 69.804688 115.273438 69.339844 113.273438 68.839844 C 111.128906 68.339844 109.339844 67.820312 107.910156 67.28125 C 106.480469 66.710938 105.246094 65.835938 104.210938 64.652344 C 103.171875 63.4375 102.65625 61.808594 102.65625 59.773438 C 102.65625 58.054688 103.121094 56.5 104.046875 55.105469 C 105.015625 53.671875 106.410156 52.546875 108.230469 51.722656 C 110.089844 50.902344 112.289062 50.488281 114.828125 50.488281 C 118.582031 50.488281 121.53125 51.417969 123.675781 53.28125 C 125.859375 55.140625 127.109375 57.609375 127.429688 60.683594 L 118.957031 60.683594 C 118.816406 59.644531 118.351562 58.824219 117.5625 58.214844 C 116.8125 57.609375 115.8125 57.304688 114.558594 57.304688 C 113.488281 57.304688 112.664062 57.519531 112.09375 57.949219 C 111.519531 58.339844 111.234375 58.894531 111.234375 59.609375 C 111.234375 60.46875 111.683594 61.113281 112.574219 61.542969 C 113.503906 61.972656 114.9375 62.402344 116.867188 62.828125 C 119.082031 63.402344 120.886719 63.972656 122.28125 64.546875 C 123.675781 65.082031 124.894531 65.976562 125.929688 67.230469 C 127.003906 68.445312 127.554688 70.089844 127.59375 72.164062 C 127.59375 73.917969 127.089844 75.492188 126.089844 76.886719 C 125.125 78.246094 123.714844 79.320312 121.855469 80.105469 C 120.03125 80.894531 117.902344 81.285156 115.472656 81.285156 Z M 143.605469 81.285156 C 140.675781 81.285156 138.027344 80.660156 135.667969 79.410156 C 133.34375 78.15625 131.503906 76.367188 130.144531 74.042969 C 128.824219 71.71875 128.160156 69 128.160156 65.886719 C 128.160156 62.8125 128.839844 60.113281 130.199219 57.785156 C 131.558594 55.425781 133.417969 53.621094 135.777344 52.367188 C 138.136719 51.117188 140.78125 50.488281 143.714844 50.488281 C 146.644531 50.488281 149.292969 51.117188 151.652344 52.367188 C 154.011719 53.621094 155.871094 55.425781 157.230469 57.785156 C 158.585938 60.113281 159.265625 62.8125 159.265625 65.886719 C 159.265625 68.964844 158.570312 71.683594 157.175781 74.042969 C 155.816406 76.367188 153.9375 78.15625 151.542969 79.410156 C 149.183594 80.660156 146.539062 81.285156 143.605469 81.285156 Z M 143.605469 73.34375 C 145.359375 73.34375 146.84375 72.703125 148.058594 71.414062 C 149.308594 70.125 149.933594 68.285156 149.933594 65.886719 C 149.933594 63.492188 149.328125 61.648438 148.113281 60.363281 C 146.933594 59.074219 145.464844 58.429688 143.714844 58.429688 C 141.925781 58.429688 140.441406 59.074219 139.261719 60.363281 C 138.082031 61.613281 137.492188 63.457031 137.492188 65.886719 C 137.492188 68.285156 138.066406 70.125 139.210938 71.414062 C 140.390625 72.703125 141.855469 73.34375 143.605469 73.34375 Z M 199.097656 50.597656 C 202.816406 50.597656 205.765625 51.722656 207.945312 53.976562 C 210.164062 56.230469 211.273438 59.359375 211.273438 63.367188 L 211.273438 80.855469 L 202.15625 80.855469 L 202.15625 64.601562 C 202.15625 62.667969 201.636719 61.183594 200.601562 60.148438 C 199.597656 59.074219 198.203125 58.539062 196.417969 58.539062 C 194.628906 58.539062 193.21875 59.074219 192.179688 60.148438 C 191.179688 61.183594 190.679688 62.667969 190.679688 64.601562 L 190.679688 80.855469 L 181.5625 80.855469 L 181.5625 64.601562 C 181.5625 62.667969 181.042969 61.183594 180.007812 60.148438 C 179.003906 59.074219 177.609375 58.539062 175.824219 58.539062 C 174.035156 58.539062 172.625 59.074219 171.585938 60.148438 C 170.585938 61.183594 170.085938 62.667969 170.085938 64.601562 L 170.085938 80.855469 L 160.914062 80.855469 L 160.914062 50.917969 L 170.085938 50.917969 L 170.085938 54.675781 C 171.015625 53.421875 172.230469 52.4375 173.730469 51.722656 C 175.234375 50.972656 176.929688 50.597656 178.828125 50.597656 C 181.078125 50.597656 183.082031 51.078125 184.832031 52.046875 C 186.621094 53.011719 188.015625 54.386719 189.015625 56.175781 C 190.050781 54.53125 191.464844 53.191406 193.253906 52.152344 C 195.039062 51.117188 196.988281 50.597656 199.097656 50.597656 Z M 242.675781 65.40625 C 242.675781 66.261719 242.625 67.15625 242.515625 68.085938 L 221.761719 68.085938 C 221.90625 69.949219 222.496094 71.378906 223.53125 72.378906 C 224.605469 73.34375 225.910156 73.828125 227.445312 73.828125 C 229.734375 73.828125 231.324219 72.863281 232.21875 70.929688 L 241.980469 70.929688 C 241.480469 72.898438 240.566406 74.667969 239.246094 76.242188 C 237.957031 77.816406 236.332031 79.050781 234.363281 79.945312 C 232.398438 80.839844 230.199219 81.285156 227.769531 81.285156 C 224.835938 81.285156 222.226562 80.660156 219.9375 79.410156 C 217.648438 78.15625 215.863281 76.367188 214.574219 74.042969 C 213.289062 71.71875 212.644531 69 212.644531 65.886719 C 212.644531 62.777344 213.269531 60.058594 214.523438 57.734375 C 215.808594 55.40625 217.597656 53.621094 219.886719 52.367188 C 222.171875 51.117188 224.800781 50.488281 227.769531 50.488281 C 230.664062 50.488281 233.238281 51.097656 235.492188 52.3125 C 237.742188 53.53125 239.496094 55.265625 240.746094 57.519531 C 242.035156 59.773438 242.675781 62.402344 242.675781 65.40625 Z M 233.292969 62.992188 C 233.292969 61.417969 232.757812 60.164062 231.683594 59.234375 C 230.609375 58.304688 229.269531 57.839844 227.660156 57.839844 C 226.125 57.839844 224.820312 58.289062 223.746094 59.179688 C 222.710938 60.074219 222.066406 61.34375 221.816406 62.992188 Z M 233.292969 62.992188 " fill-opacity="1" fill-rule="nonzero"/></svg>