<svg width="659" height="125" viewBox="0 0 659 125" fill="none" xmlns="http://www.w3.org/2000/svg">
<mask id="path-1-outside-1_3338_773" maskUnits="userSpaceOnUse" x="-1" y="-1" width="661" height="127" fill="black">
<rect fill="white" x="-1" y="-1" width="661" height="127"/>
<path d="M33.9716 99.3636C27.0019 99.3636 21.017 97.8333 16.017 94.7727C11.0473 91.7121 7.21402 87.4848 4.51705 82.0909C1.85038 76.6667 0.517045 70.4242 0.517045 63.3636C0.517045 56.2727 1.88068 50.0152 4.60795 44.5909C7.33523 39.1364 11.1837 34.8939 16.1534 31.8636C21.1534 28.803 27.0625 27.2727 33.8807 27.2727C39.5474 27.2727 44.5625 28.3182 48.9261 30.4091C53.3201 32.4697 56.8201 35.3939 59.4261 39.1818C62.0322 42.9394 63.517 47.3333 63.8807 52.3636H48.1534C47.517 49 46.0019 46.197 43.608 43.9545C41.2443 41.6818 38.0777 40.5455 34.108 40.5455C30.7443 40.5455 27.7898 41.4545 25.2443 43.2727C22.6989 45.0606 20.714 47.6364 19.2898 51C17.8958 54.3636 17.1989 58.3939 17.1989 63.0909C17.1989 67.8485 17.8958 71.9394 19.2898 75.3636C20.6837 78.7576 22.6383 81.3788 25.1534 83.2273C27.6989 85.0455 30.6837 85.9545 34.108 85.9545C36.5322 85.9545 38.6989 85.5 40.608 84.5909C42.5474 83.6515 44.1686 82.303 45.4716 80.5455C46.7746 78.7879 47.6686 76.6515 48.1534 74.1364H63.8807C63.4867 79.0758 62.0322 83.4545 59.517 87.2727C57.0019 91.0606 53.5777 94.0303 49.2443 96.1818C44.911 98.303 39.8201 99.3636 33.9716 99.3636ZM97.483 99.4091C93.0587 99.4091 89.0739 98.6212 85.5284 97.0455C82.0133 95.4394 79.2254 93.0758 77.1648 89.9545C75.1345 86.8333 74.1193 82.9848 74.1193 78.4091C74.1193 74.4697 74.8466 71.2121 76.3011 68.6364C77.7557 66.0606 79.7405 64 82.2557 62.4545C84.7708 60.9091 87.6042 59.7424 90.7557 58.9545C93.9375 58.1364 97.2254 57.5455 100.619 57.1818C104.71 56.7576 108.028 56.3788 110.574 56.0455C113.119 55.6818 114.968 55.1364 116.119 54.4091C117.301 53.6515 117.892 52.4848 117.892 50.9091V50.6364C117.892 47.2121 116.877 44.5606 114.847 42.6818C112.816 40.803 109.892 39.8636 106.074 39.8636C102.044 39.8636 98.8466 40.7424 96.483 42.5C94.1496 44.2576 92.5739 46.3333 91.7557 48.7273L76.392 46.5455C77.6042 42.303 79.6042 38.7576 82.392 35.9091C85.1799 33.0303 88.589 30.8788 92.6193 29.4545C96.6496 28 101.104 27.2727 105.983 27.2727C109.347 27.2727 112.695 27.6667 116.028 28.4545C119.362 29.2424 122.407 30.5455 125.165 32.3636C127.922 34.1515 130.134 36.5909 131.801 39.6818C133.498 42.7727 134.347 46.6364 134.347 51.2727V98H118.528V88.4091H117.983C116.983 90.3485 115.574 92.1667 113.756 93.8636C111.968 95.5303 109.71 96.8788 106.983 97.9091C104.286 98.9091 101.119 99.4091 97.483 99.4091ZM101.756 87.3182C105.059 87.3182 107.922 86.6667 110.347 85.3636C112.771 84.0303 114.634 82.2727 115.938 80.0909C117.271 77.9091 117.938 75.5303 117.938 72.9545V64.7273C117.422 65.1515 116.544 65.5455 115.301 65.9091C114.089 66.2727 112.725 66.5909 111.21 66.8636C109.695 67.1364 108.195 67.3788 106.71 67.5909C105.225 67.803 103.938 67.9848 102.847 68.1364C100.392 68.4697 98.1951 69.0152 96.2557 69.7727C94.3163 70.5303 92.786 71.5909 91.6648 72.9545C90.5436 74.2879 89.983 76.0152 89.983 78.1364C89.983 81.1667 91.089 83.4545 93.3011 85C95.5133 86.5455 98.3314 87.3182 101.756 87.3182ZM150.892 124.182V28.1818H167.074V39.7273H168.028C168.877 38.0303 170.074 36.2273 171.619 34.3182C173.165 32.3788 175.256 30.7273 177.892 29.3636C180.528 27.9697 183.892 27.2727 187.983 27.2727C193.377 27.2727 198.241 28.6515 202.574 31.4091C206.938 34.1364 210.392 38.1818 212.938 43.5455C215.513 48.8788 216.801 55.4242 216.801 63.1818C216.801 70.8485 215.544 77.3636 213.028 82.7273C210.513 88.0909 207.089 92.1818 202.756 95C198.422 97.8182 193.513 99.2273 188.028 99.2273C184.028 99.2273 180.71 98.5606 178.074 97.2273C175.438 95.8939 173.316 94.2879 171.71 92.4091C170.134 90.5 168.907 88.697 168.028 87H167.347V124.182H150.892ZM167.028 63.0909C167.028 67.6061 167.665 71.5606 168.938 74.9545C170.241 78.3485 172.104 81 174.528 82.9091C176.983 84.7879 179.953 85.7273 183.438 85.7273C187.074 85.7273 190.119 84.7576 192.574 82.8182C195.028 80.8485 196.877 78.1667 198.119 74.7727C199.392 71.3485 200.028 67.4545 200.028 63.0909C200.028 58.7576 199.407 54.9091 198.165 51.5455C196.922 48.1818 195.074 45.5455 192.619 43.6364C190.165 41.7273 187.104 40.7727 183.438 40.7727C179.922 40.7727 176.938 41.697 174.483 43.5455C172.028 45.3939 170.165 47.9848 168.892 51.3182C167.65 54.6515 167.028 58.5758 167.028 63.0909ZM230.892 98V28.1818H247.347V98H230.892ZM239.165 18.2727C236.559 18.2727 234.316 17.4091 232.438 15.6818C230.559 13.9242 229.619 11.8182 229.619 9.36363C229.619 6.87878 230.559 4.77272 232.438 3.04545C234.316 1.28787 236.559 0.409088 239.165 0.409088C241.801 0.409088 244.044 1.28787 245.892 3.04545C247.771 4.77272 248.71 6.87878 248.71 9.36363C248.71 11.8182 247.771 13.9242 245.892 15.6818C244.044 17.4091 241.801 18.2727 239.165 18.2727ZM299.131 28.1818V40.9091H258.994V28.1818H299.131ZM268.903 11.4545H285.358V77C285.358 79.2121 285.691 80.9091 286.358 82.0909C287.055 83.2424 287.964 84.0303 289.085 84.4545C290.206 84.8788 291.449 85.0909 292.812 85.0909C293.843 85.0909 294.782 85.0152 295.631 84.8636C296.509 84.7121 297.176 84.5758 297.631 84.4545L300.403 97.3182C299.525 97.6212 298.267 97.9545 296.631 98.3182C295.025 98.6818 293.055 98.8939 290.722 98.9545C286.6 99.0758 282.888 98.4545 279.585 97.0909C276.282 95.697 273.661 93.5455 271.722 90.6364C269.813 87.7273 268.873 84.0909 268.903 79.7273V11.4545ZM332.983 99.4091C328.559 99.4091 324.574 98.6212 321.028 97.0455C317.513 95.4394 314.725 93.0758 312.665 89.9545C310.634 86.8333 309.619 82.9848 309.619 78.4091C309.619 74.4697 310.347 71.2121 311.801 68.6364C313.256 66.0606 315.241 64 317.756 62.4545C320.271 60.9091 323.104 59.7424 326.256 58.9545C329.438 58.1364 332.725 57.5455 336.119 57.1818C340.21 56.7576 343.528 56.3788 346.074 56.0455C348.619 55.6818 350.468 55.1364 351.619 54.4091C352.801 53.6515 353.392 52.4848 353.392 50.9091V50.6364C353.392 47.2121 352.377 44.5606 350.347 42.6818C348.316 40.803 345.392 39.8636 341.574 39.8636C337.544 39.8636 334.347 40.7424 331.983 42.5C329.65 44.2576 328.074 46.3333 327.256 48.7273L311.892 46.5455C313.104 42.303 315.104 38.7576 317.892 35.9091C320.68 33.0303 324.089 30.8788 328.119 29.4545C332.15 28 336.604 27.2727 341.483 27.2727C344.847 27.2727 348.195 27.6667 351.528 28.4545C354.862 29.2424 357.907 30.5455 360.665 32.3636C363.422 34.1515 365.634 36.5909 367.301 39.6818C368.998 42.7727 369.847 46.6364 369.847 51.2727V98H354.028V88.4091H353.483C352.483 90.3485 351.074 92.1667 349.256 93.8636C347.468 95.5303 345.21 96.8788 342.483 97.9091C339.786 98.9091 336.619 99.4091 332.983 99.4091ZM337.256 87.3182C340.559 87.3182 343.422 86.6667 345.847 85.3636C348.271 84.0303 350.134 82.2727 351.438 80.0909C352.771 77.9091 353.438 75.5303 353.438 72.9545V64.7273C352.922 65.1515 352.044 65.5455 350.801 65.9091C349.589 66.2727 348.225 66.5909 346.71 66.8636C345.195 67.1364 343.695 67.3788 342.21 67.5909C340.725 67.803 339.438 67.9848 338.347 68.1364C335.892 68.4697 333.695 69.0152 331.756 69.7727C329.816 70.5303 328.286 71.5909 327.165 72.9545C326.044 74.2879 325.483 76.0152 325.483 78.1364C325.483 81.1667 326.589 83.4545 328.801 85C331.013 86.5455 333.831 87.3182 337.256 87.3182ZM402.847 4.90909V98H386.392V4.90909H402.847ZM419.767 98V28.1818H436.222V98H419.767ZM428.04 18.2727C425.434 18.2727 423.191 17.4091 421.312 15.6818C419.434 13.9242 418.494 11.8182 418.494 9.36363C418.494 6.87878 419.434 4.77272 421.312 3.04545C423.191 1.28787 425.434 0.409088 428.04 0.409088C430.676 0.409088 432.919 1.28787 434.767 3.04545C436.646 4.77272 437.585 6.87878 437.585 9.36363C437.585 11.8182 436.646 13.9242 434.767 15.6818C432.919 17.4091 430.676 18.2727 428.04 18.2727ZM508.324 46.6364L493.324 48.2727C492.9 46.7576 492.157 45.3333 491.097 44C490.066 42.6667 488.672 41.5909 486.915 40.7727C485.157 39.9545 483.006 39.5455 480.46 39.5455C477.036 39.5455 474.157 40.2879 471.824 41.7727C469.521 43.2576 468.384 45.1818 468.415 47.5455C468.384 49.5758 469.127 51.2273 470.642 52.5C472.188 53.7727 474.733 54.8182 478.278 55.6364L490.188 58.1818C496.794 59.6061 501.703 61.8636 504.915 64.9545C508.157 68.0455 509.794 72.0909 509.824 77.0909C509.794 81.4848 508.506 85.3636 505.96 88.7273C503.445 92.0606 499.945 94.6667 495.46 96.5455C490.975 98.4242 485.824 99.3636 480.006 99.3636C471.46 99.3636 464.581 97.5758 459.369 94C454.157 90.3939 451.051 85.3788 450.051 78.9545L466.097 77.4091C466.824 80.5606 468.369 82.9394 470.733 84.5455C473.097 86.1515 476.172 86.9545 479.96 86.9545C483.869 86.9545 487.006 86.1515 489.369 84.5455C491.763 82.9394 492.96 80.9545 492.96 78.5909C492.96 76.5909 492.188 74.9394 490.642 73.6364C489.127 72.3333 486.763 71.3333 483.551 70.6364L471.642 68.1364C464.945 66.7424 459.991 64.3939 456.778 61.0909C453.566 57.7576 451.975 53.5455 452.006 48.4545C451.975 44.1515 453.142 40.4242 455.506 37.2727C457.9 34.0909 461.218 31.6364 465.46 29.9091C469.733 28.1515 474.657 27.2727 480.233 27.2727C488.415 27.2727 494.854 29.0152 499.551 32.5C504.278 35.9848 507.203 40.697 508.324 46.6364ZM523.392 98V28.1818H539.119V40.0455H539.938C541.392 36.0455 543.801 32.9242 547.165 30.6818C550.528 28.4091 554.544 27.2727 559.21 27.2727C563.938 27.2727 567.922 28.4242 571.165 30.7273C574.438 33 576.741 36.1061 578.074 40.0455H578.801C580.347 36.1667 582.953 33.0758 586.619 30.7727C590.316 28.4394 594.695 27.2727 599.756 27.2727C606.18 27.2727 611.422 29.303 615.483 33.3636C619.544 37.4242 621.574 43.3485 621.574 51.1364V98H605.074V53.6818C605.074 49.3485 603.922 46.1818 601.619 44.1818C599.316 42.1515 596.498 41.1364 593.165 41.1364C589.195 41.1364 586.089 42.3788 583.847 44.8636C581.634 47.3182 580.528 50.5151 580.528 54.4545V98H564.392V53C564.392 49.3939 563.301 46.5152 561.119 44.3636C558.968 42.2121 556.15 41.1364 552.665 41.1364C550.301 41.1364 548.15 41.7424 546.21 42.9545C544.271 44.1364 542.725 45.8182 541.574 48C540.422 50.1515 539.847 52.6667 539.847 55.5455V98H523.392ZM648.403 99C645.646 99 643.282 98.0303 641.312 96.0909C639.343 94.1515 638.373 91.7879 638.403 89C638.373 86.2727 639.343 83.9394 641.312 82C643.282 80.0606 645.646 79.0909 648.403 79.0909C651.07 79.0909 653.388 80.0606 655.358 82C657.358 83.9394 658.373 86.2727 658.403 89C658.373 90.8485 657.888 92.5303 656.949 94.0455C656.04 95.5606 654.828 96.7727 653.312 97.6818C651.828 98.5606 650.191 99 648.403 99Z"/>
</mask>
<path d="M33.9716 99.3636C27.0019 99.3636 21.017 97.8333 16.017 94.7727C11.0473 91.7121 7.21402 87.4848 4.51705 82.0909C1.85038 76.6667 0.517045 70.4242 0.517045 63.3636C0.517045 56.2727 1.88068 50.0152 4.60795 44.5909C7.33523 39.1364 11.1837 34.8939 16.1534 31.8636C21.1534 28.803 27.0625 27.2727 33.8807 27.2727C39.5474 27.2727 44.5625 28.3182 48.9261 30.4091C53.3201 32.4697 56.8201 35.3939 59.4261 39.1818C62.0322 42.9394 63.517 47.3333 63.8807 52.3636H48.1534C47.517 49 46.0019 46.197 43.608 43.9545C41.2443 41.6818 38.0777 40.5455 34.108 40.5455C30.7443 40.5455 27.7898 41.4545 25.2443 43.2727C22.6989 45.0606 20.714 47.6364 19.2898 51C17.8958 54.3636 17.1989 58.3939 17.1989 63.0909C17.1989 67.8485 17.8958 71.9394 19.2898 75.3636C20.6837 78.7576 22.6383 81.3788 25.1534 83.2273C27.6989 85.0455 30.6837 85.9545 34.108 85.9545C36.5322 85.9545 38.6989 85.5 40.608 84.5909C42.5474 83.6515 44.1686 82.303 45.4716 80.5455C46.7746 78.7879 47.6686 76.6515 48.1534 74.1364H63.8807C63.4867 79.0758 62.0322 83.4545 59.517 87.2727C57.0019 91.0606 53.5777 94.0303 49.2443 96.1818C44.911 98.303 39.8201 99.3636 33.9716 99.3636ZM97.483 99.4091C93.0587 99.4091 89.0739 98.6212 85.5284 97.0455C82.0133 95.4394 79.2254 93.0758 77.1648 89.9545C75.1345 86.8333 74.1193 82.9848 74.1193 78.4091C74.1193 74.4697 74.8466 71.2121 76.3011 68.6364C77.7557 66.0606 79.7405 64 82.2557 62.4545C84.7708 60.9091 87.6042 59.7424 90.7557 58.9545C93.9375 58.1364 97.2254 57.5455 100.619 57.1818C104.71 56.7576 108.028 56.3788 110.574 56.0455C113.119 55.6818 114.968 55.1364 116.119 54.4091C117.301 53.6515 117.892 52.4848 117.892 50.9091V50.6364C117.892 47.2121 116.877 44.5606 114.847 42.6818C112.816 40.803 109.892 39.8636 106.074 39.8636C102.044 39.8636 98.8466 40.7424 96.483 42.5C94.1496 44.2576 92.5739 46.3333 91.7557 48.7273L76.392 46.5455C77.6042 42.303 79.6042 38.7576 82.392 35.9091C85.1799 33.0303 88.589 30.8788 92.6193 29.4545C96.6496 28 101.104 27.2727 105.983 27.2727C109.347 27.2727 112.695 27.6667 116.028 28.4545C119.362 29.2424 122.407 30.5455 125.165 32.3636C127.922 34.1515 130.134 36.5909 131.801 39.6818C133.498 42.7727 134.347 46.6364 134.347 51.2727V98H118.528V88.4091H117.983C116.983 90.3485 115.574 92.1667 113.756 93.8636C111.968 95.5303 109.71 96.8788 106.983 97.9091C104.286 98.9091 101.119 99.4091 97.483 99.4091ZM101.756 87.3182C105.059 87.3182 107.922 86.6667 110.347 85.3636C112.771 84.0303 114.634 82.2727 115.938 80.0909C117.271 77.9091 117.938 75.5303 117.938 72.9545V64.7273C117.422 65.1515 116.544 65.5455 115.301 65.9091C114.089 66.2727 112.725 66.5909 111.21 66.8636C109.695 67.1364 108.195 67.3788 106.71 67.5909C105.225 67.803 103.938 67.9848 102.847 68.1364C100.392 68.4697 98.1951 69.0152 96.2557 69.7727C94.3163 70.5303 92.786 71.5909 91.6648 72.9545C90.5436 74.2879 89.983 76.0152 89.983 78.1364C89.983 81.1667 91.089 83.4545 93.3011 85C95.5133 86.5455 98.3314 87.3182 101.756 87.3182ZM150.892 124.182V28.1818H167.074V39.7273H168.028C168.877 38.0303 170.074 36.2273 171.619 34.3182C173.165 32.3788 175.256 30.7273 177.892 29.3636C180.528 27.9697 183.892 27.2727 187.983 27.2727C193.377 27.2727 198.241 28.6515 202.574 31.4091C206.938 34.1364 210.392 38.1818 212.938 43.5455C215.513 48.8788 216.801 55.4242 216.801 63.1818C216.801 70.8485 215.544 77.3636 213.028 82.7273C210.513 88.0909 207.089 92.1818 202.756 95C198.422 97.8182 193.513 99.2273 188.028 99.2273C184.028 99.2273 180.71 98.5606 178.074 97.2273C175.438 95.8939 173.316 94.2879 171.71 92.4091C170.134 90.5 168.907 88.697 168.028 87H167.347V124.182H150.892ZM167.028 63.0909C167.028 67.6061 167.665 71.5606 168.938 74.9545C170.241 78.3485 172.104 81 174.528 82.9091C176.983 84.7879 179.953 85.7273 183.438 85.7273C187.074 85.7273 190.119 84.7576 192.574 82.8182C195.028 80.8485 196.877 78.1667 198.119 74.7727C199.392 71.3485 200.028 67.4545 200.028 63.0909C200.028 58.7576 199.407 54.9091 198.165 51.5455C196.922 48.1818 195.074 45.5455 192.619 43.6364C190.165 41.7273 187.104 40.7727 183.438 40.7727C179.922 40.7727 176.938 41.697 174.483 43.5455C172.028 45.3939 170.165 47.9848 168.892 51.3182C167.65 54.6515 167.028 58.5758 167.028 63.0909ZM230.892 98V28.1818H247.347V98H230.892ZM239.165 18.2727C236.559 18.2727 234.316 17.4091 232.438 15.6818C230.559 13.9242 229.619 11.8182 229.619 9.36363C229.619 6.87878 230.559 4.77272 232.438 3.04545C234.316 1.28787 236.559 0.409088 239.165 0.409088C241.801 0.409088 244.044 1.28787 245.892 3.04545C247.771 4.77272 248.71 6.87878 248.71 9.36363C248.71 11.8182 247.771 13.9242 245.892 15.6818C244.044 17.4091 241.801 18.2727 239.165 18.2727ZM299.131 28.1818V40.9091H258.994V28.1818H299.131ZM268.903 11.4545H285.358V77C285.358 79.2121 285.691 80.9091 286.358 82.0909C287.055 83.2424 287.964 84.0303 289.085 84.4545C290.206 84.8788 291.449 85.0909 292.812 85.0909C293.843 85.0909 294.782 85.0152 295.631 84.8636C296.509 84.7121 297.176 84.5758 297.631 84.4545L300.403 97.3182C299.525 97.6212 298.267 97.9545 296.631 98.3182C295.025 98.6818 293.055 98.8939 290.722 98.9545C286.6 99.0758 282.888 98.4545 279.585 97.0909C276.282 95.697 273.661 93.5455 271.722 90.6364C269.813 87.7273 268.873 84.0909 268.903 79.7273V11.4545ZM332.983 99.4091C328.559 99.4091 324.574 98.6212 321.028 97.0455C317.513 95.4394 314.725 93.0758 312.665 89.9545C310.634 86.8333 309.619 82.9848 309.619 78.4091C309.619 74.4697 310.347 71.2121 311.801 68.6364C313.256 66.0606 315.241 64 317.756 62.4545C320.271 60.9091 323.104 59.7424 326.256 58.9545C329.438 58.1364 332.725 57.5455 336.119 57.1818C340.21 56.7576 343.528 56.3788 346.074 56.0455C348.619 55.6818 350.468 55.1364 351.619 54.4091C352.801 53.6515 353.392 52.4848 353.392 50.9091V50.6364C353.392 47.2121 352.377 44.5606 350.347 42.6818C348.316 40.803 345.392 39.8636 341.574 39.8636C337.544 39.8636 334.347 40.7424 331.983 42.5C329.65 44.2576 328.074 46.3333 327.256 48.7273L311.892 46.5455C313.104 42.303 315.104 38.7576 317.892 35.9091C320.68 33.0303 324.089 30.8788 328.119 29.4545C332.15 28 336.604 27.2727 341.483 27.2727C344.847 27.2727 348.195 27.6667 351.528 28.4545C354.862 29.2424 357.907 30.5455 360.665 32.3636C363.422 34.1515 365.634 36.5909 367.301 39.6818C368.998 42.7727 369.847 46.6364 369.847 51.2727V98H354.028V88.4091H353.483C352.483 90.3485 351.074 92.1667 349.256 93.8636C347.468 95.5303 345.21 96.8788 342.483 97.9091C339.786 98.9091 336.619 99.4091 332.983 99.4091ZM337.256 87.3182C340.559 87.3182 343.422 86.6667 345.847 85.3636C348.271 84.0303 350.134 82.2727 351.438 80.0909C352.771 77.9091 353.438 75.5303 353.438 72.9545V64.7273C352.922 65.1515 352.044 65.5455 350.801 65.9091C349.589 66.2727 348.225 66.5909 346.71 66.8636C345.195 67.1364 343.695 67.3788 342.21 67.5909C340.725 67.803 339.438 67.9848 338.347 68.1364C335.892 68.4697 333.695 69.0152 331.756 69.7727C329.816 70.5303 328.286 71.5909 327.165 72.9545C326.044 74.2879 325.483 76.0152 325.483 78.1364C325.483 81.1667 326.589 83.4545 328.801 85C331.013 86.5455 333.831 87.3182 337.256 87.3182ZM402.847 4.90909V98H386.392V4.90909H402.847ZM419.767 98V28.1818H436.222V98H419.767ZM428.04 18.2727C425.434 18.2727 423.191 17.4091 421.312 15.6818C419.434 13.9242 418.494 11.8182 418.494 9.36363C418.494 6.87878 419.434 4.77272 421.312 3.04545C423.191 1.28787 425.434 0.409088 428.04 0.409088C430.676 0.409088 432.919 1.28787 434.767 3.04545C436.646 4.77272 437.585 6.87878 437.585 9.36363C437.585 11.8182 436.646 13.9242 434.767 15.6818C432.919 17.4091 430.676 18.2727 428.04 18.2727ZM508.324 46.6364L493.324 48.2727C492.9 46.7576 492.157 45.3333 491.097 44C490.066 42.6667 488.672 41.5909 486.915 40.7727C485.157 39.9545 483.006 39.5455 480.46 39.5455C477.036 39.5455 474.157 40.2879 471.824 41.7727C469.521 43.2576 468.384 45.1818 468.415 47.5455C468.384 49.5758 469.127 51.2273 470.642 52.5C472.188 53.7727 474.733 54.8182 478.278 55.6364L490.188 58.1818C496.794 59.6061 501.703 61.8636 504.915 64.9545C508.157 68.0455 509.794 72.0909 509.824 77.0909C509.794 81.4848 508.506 85.3636 505.96 88.7273C503.445 92.0606 499.945 94.6667 495.46 96.5455C490.975 98.4242 485.824 99.3636 480.006 99.3636C471.46 99.3636 464.581 97.5758 459.369 94C454.157 90.3939 451.051 85.3788 450.051 78.9545L466.097 77.4091C466.824 80.5606 468.369 82.9394 470.733 84.5455C473.097 86.1515 476.172 86.9545 479.96 86.9545C483.869 86.9545 487.006 86.1515 489.369 84.5455C491.763 82.9394 492.96 80.9545 492.96 78.5909C492.96 76.5909 492.188 74.9394 490.642 73.6364C489.127 72.3333 486.763 71.3333 483.551 70.6364L471.642 68.1364C464.945 66.7424 459.991 64.3939 456.778 61.0909C453.566 57.7576 451.975 53.5455 452.006 48.4545C451.975 44.1515 453.142 40.4242 455.506 37.2727C457.9 34.0909 461.218 31.6364 465.46 29.9091C469.733 28.1515 474.657 27.2727 480.233 27.2727C488.415 27.2727 494.854 29.0152 499.551 32.5C504.278 35.9848 507.203 40.697 508.324 46.6364ZM523.392 98V28.1818H539.119V40.0455H539.938C541.392 36.0455 543.801 32.9242 547.165 30.6818C550.528 28.4091 554.544 27.2727 559.21 27.2727C563.938 27.2727 567.922 28.4242 571.165 30.7273C574.438 33 576.741 36.1061 578.074 40.0455H578.801C580.347 36.1667 582.953 33.0758 586.619 30.7727C590.316 28.4394 594.695 27.2727 599.756 27.2727C606.18 27.2727 611.422 29.303 615.483 33.3636C619.544 37.4242 621.574 43.3485 621.574 51.1364V98H605.074V53.6818C605.074 49.3485 603.922 46.1818 601.619 44.1818C599.316 42.1515 596.498 41.1364 593.165 41.1364C589.195 41.1364 586.089 42.3788 583.847 44.8636C581.634 47.3182 580.528 50.5151 580.528 54.4545V98H564.392V53C564.392 49.3939 563.301 46.5152 561.119 44.3636C558.968 42.2121 556.15 41.1364 552.665 41.1364C550.301 41.1364 548.15 41.7424 546.21 42.9545C544.271 44.1364 542.725 45.8182 541.574 48C540.422 50.1515 539.847 52.6667 539.847 55.5455V98H523.392ZM648.403 99C645.646 99 643.282 98.0303 641.312 96.0909C639.343 94.1515 638.373 91.7879 638.403 89C638.373 86.2727 639.343 83.9394 641.312 82C643.282 80.0606 645.646 79.0909 648.403 79.0909C651.07 79.0909 653.388 80.0606 655.358 82C657.358 83.9394 658.373 86.2727 658.403 89C658.373 90.8485 657.888 92.5303 656.949 94.0455C656.04 95.5606 654.828 96.7727 653.312 97.6818C651.828 98.5606 650.191 99 648.403 99Z" fill="black"/>
<path d="M16.017 94.7727L15.4927 95.6242L15.495 95.6256L16.017 94.7727ZM4.51705 82.0909L3.61961 82.5321L3.62262 82.5381L4.51705 82.0909ZM4.60795 44.5909L5.50138 45.0401L5.50238 45.0381L4.60795 44.5909ZM16.1534 31.8636L16.674 32.7174L16.6755 32.7165L16.1534 31.8636ZM48.9261 30.4091L48.494 31.3109L48.5015 31.3145L48.9261 30.4091ZM59.4261 39.1818L58.6023 39.7486L58.6044 39.7517L59.4261 39.1818ZM63.8807 52.3636V53.3636H64.9556L64.8781 52.2915L63.8807 52.3636ZM48.1534 52.3636L47.1708 52.5495L47.3249 53.3636H48.1534V52.3636ZM43.608 43.9545L42.9148 44.6754L42.9243 44.6844L43.608 43.9545ZM25.2443 43.2727L25.8191 44.0911L25.8256 44.0865L25.2443 43.2727ZM19.2898 51L18.3689 50.6101L18.366 50.6172L19.2898 51ZM19.2898 75.3636L18.3636 75.7407L18.3648 75.7436L19.2898 75.3636ZM25.1534 83.2273L24.5612 84.0331L24.5722 84.041L25.1534 83.2273ZM40.608 84.5909L41.0379 85.4938L41.0439 85.4909L40.608 84.5909ZM45.4716 80.5455L44.6683 79.9499L44.6683 79.9499L45.4716 80.5455ZM48.1534 74.1364V73.1364H47.3278L47.1715 73.9471L48.1534 74.1364ZM63.8807 74.1364L64.8775 74.2159L64.9636 73.1364H63.8807V74.1364ZM59.517 87.2727L60.3501 87.8259L60.3521 87.8228L59.517 87.2727ZM49.2443 96.1818L49.684 97.08L49.689 97.0775L49.2443 96.1818ZM33.9716 98.3636C27.151 98.3636 21.3545 96.8674 16.5391 93.9198L15.495 95.6256C20.6796 98.7992 26.8528 100.364 33.9716 100.364V98.3636ZM16.5414 93.9212C11.7358 90.9617 8.02806 86.8769 5.41147 81.6437L3.62262 82.5381C6.39997 88.0928 10.3589 92.4626 15.4927 95.6242L16.5414 93.9212ZM5.41446 81.6497C2.82575 76.384 1.51705 70.2969 1.51705 63.3636H-0.482955C-0.482955 70.5516 0.875008 76.9493 3.61963 82.5321L5.41446 81.6497ZM1.51705 63.3636C1.51705 56.4026 2.85506 50.3034 5.50138 45.0401L3.71453 44.1417C0.906306 49.7269 -0.482955 56.1429 -0.482955 63.3636H1.51705ZM5.50238 45.0381C8.14989 39.7431 11.8725 35.6452 16.674 32.7174L15.6328 31.0098C10.495 34.1427 6.52057 38.5296 3.71353 44.1437L5.50238 45.0381ZM16.6755 32.7165C21.4942 29.7669 27.2162 28.2727 33.8807 28.2727V26.2727C26.9088 26.2727 20.8126 27.8392 15.6313 31.0107L16.6755 32.7165ZM33.8807 28.2727C39.4232 28.2727 44.2865 29.2948 48.494 31.3109L49.3583 29.5073C44.8385 27.3416 39.6715 26.2727 33.8807 26.2727V28.2727ZM48.5015 31.3145C52.744 33.304 56.1025 36.1153 58.6023 39.7486L60.25 38.615C57.5376 34.6726 53.8962 31.6354 49.3507 29.5037L48.5015 31.3145ZM58.6044 39.7517C61.0981 43.3473 62.5312 47.5652 62.8833 52.4357L64.8781 52.2915C64.5029 47.1015 62.9663 42.5315 60.2479 38.6119L58.6044 39.7517ZM63.8807 51.3636H48.1534V53.3636H63.8807V51.3636ZM49.136 52.1777C48.462 48.6154 46.8474 45.6188 44.2916 43.2247L42.9243 44.6844C45.1564 46.7752 46.5721 49.3846 47.1708 52.5495L49.136 52.1777ZM44.3011 43.2337C41.7133 40.7455 38.2783 39.5455 34.108 39.5455V41.5455C37.877 41.5455 40.7753 42.6182 42.9148 44.6754L44.3011 43.2337ZM34.108 39.5455C30.5525 39.5455 27.3911 40.5104 24.6631 42.459L25.8256 44.0865C28.1884 42.3987 30.9362 41.5455 34.108 41.5455V39.5455ZM24.6696 42.4544C21.9459 44.3674 19.8532 47.1046 18.3689 50.6101L20.2106 51.3899C21.5748 48.1682 23.4518 45.7538 25.8191 44.091L24.6696 42.4544ZM18.366 50.6172C16.9094 54.1318 16.1989 58.299 16.1989 63.0909H18.1989C18.1989 58.4889 18.8822 54.5955 20.2136 51.3828L18.366 50.6172ZM16.1989 63.0909C16.1989 67.9423 16.9091 72.1678 18.3636 75.7407L20.216 74.9866C18.8826 71.711 18.1989 67.7547 18.1989 63.0909H16.1989ZM18.3648 75.7436C19.816 79.2771 21.8739 82.058 24.5612 84.0331L25.7456 82.4215C23.4026 80.6995 21.5514 78.238 20.2148 74.9837L18.3648 75.7436ZM24.5722 84.041C27.3034 85.9918 30.496 86.9545 34.108 86.9545V84.9545C30.8714 84.9545 28.0944 84.0991 25.7346 82.4135L24.5722 84.041ZM34.108 86.9545C36.6592 86.9545 38.9761 86.4756 41.0379 85.4938L40.178 83.688C38.4216 84.5244 36.4052 84.9545 34.108 84.9545V86.9545ZM41.0439 85.4909C43.1308 84.48 44.8773 83.0262 46.2749 81.141L44.6683 79.9499C43.4598 81.5799 41.9639 82.823 40.172 83.6909L41.0439 85.4909ZM46.2749 81.141C47.6812 79.2442 48.6269 76.9629 49.1353 74.3256L47.1715 73.9471C46.7102 76.3401 45.8681 78.3315 44.6683 79.9499L46.2749 81.141ZM48.1534 75.1364H63.8807V73.1364H48.1534V75.1364ZM62.8838 74.0569C62.5022 78.8427 61.0967 83.0568 58.6819 86.7226L60.3521 87.8228C62.9677 83.8523 64.4713 79.3088 64.8775 74.2159L62.8838 74.0569ZM58.684 86.7196C56.2722 90.3517 52.9861 93.2075 48.7996 95.2861L49.689 97.0775C54.1692 94.8531 57.7316 91.7695 60.3501 87.8259L58.684 86.7196ZM48.8047 95.2837C44.6342 97.3251 39.6995 98.3636 33.9716 98.3636V100.364C39.9406 100.364 45.1878 99.2809 49.684 97.08L48.8047 95.2837ZM85.5284 97.0455L85.1128 97.9551L85.1223 97.9593L85.5284 97.0455ZM77.1648 89.9545L76.3265 90.4998L76.3302 90.5055L77.1648 89.9545ZM76.3011 68.6364L75.4304 68.1446L75.4304 68.1446L76.3011 68.6364ZM82.2557 62.4545L81.7322 61.6025L81.7322 61.6025L82.2557 62.4545ZM90.7557 58.9545L90.9982 59.9247L91.0047 59.923L90.7557 58.9545ZM100.619 57.1818L100.516 56.1871L100.513 56.1875L100.619 57.1818ZM110.574 56.0455L110.704 57.0371L110.715 57.0354L110.574 56.0455ZM116.119 54.4091L116.653 55.2546L116.659 55.251L116.119 54.4091ZM114.847 42.6818L115.526 41.9479L115.526 41.9479L114.847 42.6818ZM96.483 42.5L95.8862 41.6975L95.8813 41.7012L96.483 42.5ZM91.7557 48.7273L91.6151 49.7173L92.4343 49.8337L92.7019 49.0507L91.7557 48.7273ZM76.392 46.5455L75.4305 46.2707L75.1153 47.3742L76.2514 47.5355L76.392 46.5455ZM82.392 35.9091L83.1067 36.6086L83.1104 36.6048L82.392 35.9091ZM92.6193 29.4545L92.9525 30.3974L92.9588 30.3952L92.6193 29.4545ZM125.165 32.3636L124.614 33.1985L124.621 33.2027L125.165 32.3636ZM131.801 39.6818L130.921 40.1564L130.925 40.1631L131.801 39.6818ZM134.347 98V99H135.347V98H134.347ZM118.528 98H117.528V99H118.528V98ZM118.528 88.4091H119.528V87.4091H118.528V88.4091ZM117.983 88.4091V87.4091H117.373L117.094 87.9508L117.983 88.4091ZM113.756 93.8636L114.438 94.5951L114.438 94.5947L113.756 93.8636ZM106.983 97.9091L107.331 98.8467L107.336 98.8446L106.983 97.9091ZM110.347 85.3636L110.82 86.2445L110.829 86.2399L110.347 85.3636ZM115.938 80.0909L115.084 79.5694L115.079 79.5782L115.938 80.0909ZM117.938 64.7273H118.938V62.6083L117.302 63.9553L117.938 64.7273ZM115.301 65.9091L115.02 64.9493L115.014 64.9513L115.301 65.9091ZM111.21 66.8636L111.387 67.8478L111.387 67.8478L111.21 66.8636ZM102.847 68.1364L102.981 69.1273L102.984 69.1269L102.847 68.1364ZM96.2557 69.7727L95.8918 68.8413L95.8918 68.8413L96.2557 69.7727ZM91.6648 72.9545L92.4302 73.5982L92.4372 73.5896L91.6648 72.9545ZM93.3011 85L92.7284 85.8198L92.7284 85.8198L93.3011 85ZM97.483 98.4091C93.179 98.4091 89.3354 97.6431 85.9345 96.1316L85.1223 97.9593C88.8123 99.5993 92.9384 100.409 97.483 100.409V98.4091ZM85.944 96.1359C82.5934 94.605 79.9531 92.363 77.9993 89.4036L76.3302 90.5055C78.4977 93.7885 81.4332 96.2738 85.1128 97.955L85.944 96.1359ZM78.003 89.4093C76.1002 86.484 75.1193 82.8358 75.1193 78.4091H73.1193C73.1193 83.1339 74.1688 87.1827 76.3265 90.4998L78.003 89.4093ZM75.1193 78.4091C75.1193 74.5868 75.8256 71.5121 77.1719 69.1281L75.4304 68.1446C73.8676 70.9121 73.1193 74.3526 73.1193 78.4091H75.1193ZM77.1719 69.1281C78.5433 66.6996 80.4088 64.7631 82.7792 63.3066L81.7322 61.6025C79.0723 63.2369 76.9681 65.4216 75.4304 68.1446L77.1719 69.1281ZM82.7792 63.3066C85.199 61.8197 87.936 60.6902 90.9982 59.9247L90.5131 57.9844C87.2724 58.7946 84.3427 59.9985 81.7322 61.6025L82.7792 63.3066ZM91.0047 59.923C94.1379 59.1174 97.3781 58.5348 100.726 58.1761L100.513 56.1875C97.0726 56.5561 93.7371 57.1554 90.5066 57.9861L91.0047 59.923ZM100.722 58.1765C104.818 57.7518 108.146 57.372 110.704 57.037L110.444 55.0539C107.911 55.3856 104.603 55.7634 100.516 56.1872L100.722 58.1765ZM110.715 57.0354C113.298 56.6664 115.319 56.0976 116.653 55.2546L115.585 53.5636C114.617 54.1751 112.94 54.6972 110.432 55.0555L110.715 57.0354ZM116.659 55.251C118.167 54.2844 118.892 52.7763 118.892 50.9091H116.892C116.892 52.1934 116.435 53.0186 115.58 53.5672L116.659 55.251ZM118.892 50.9091V50.6364H116.892V50.9091H118.892ZM118.892 50.6364C118.892 47.0046 117.808 44.0593 115.526 41.9479L114.167 43.4158C115.946 45.0619 116.892 47.4197 116.892 50.6364H118.892ZM115.526 41.9479C113.25 39.8421 110.047 38.8636 106.074 38.8636V40.8636C109.737 40.8636 112.382 41.7639 114.167 43.4158L115.526 41.9479ZM106.074 38.8636C101.906 38.8636 98.4758 39.772 95.8863 41.6975L97.0797 43.3025C99.2174 41.7129 102.181 40.8636 106.074 40.8636V38.8636ZM95.8813 41.7012C93.4136 43.5601 91.7019 45.7925 90.8094 48.4039L92.7019 49.0507C93.4458 46.8741 94.8857 44.9551 97.0846 43.2988L95.8813 41.7012ZM91.8963 47.7372L76.5326 45.5554L76.2514 47.5355L91.6151 49.7173L91.8963 47.7372ZM77.3536 46.8202C78.525 42.7202 80.4472 39.3259 83.1067 36.6086L81.6774 35.2096C78.7611 38.1893 76.6833 41.8859 75.4305 46.2707L77.3536 46.8202ZM83.1104 36.6048C85.7836 33.8444 89.058 31.7736 92.9525 30.3974L92.2861 28.5117C88.12 29.9839 84.5762 32.2162 81.6737 35.2134L83.1104 36.6048ZM92.9588 30.3952C96.8663 28.9849 101.204 28.2727 105.983 28.2727V26.2727C101.004 26.2727 96.433 27.0151 92.2798 28.5139L92.9588 30.3952ZM105.983 28.2727C109.268 28.2727 112.539 28.6573 115.798 29.4277L116.258 27.4814C112.851 26.676 109.425 26.2727 105.983 26.2727V28.2727ZM115.798 29.4277C119.022 30.1896 121.958 31.4472 124.614 33.1985L125.715 31.5288C122.856 29.6437 119.702 28.2952 116.258 27.4814L115.798 29.4277ZM124.621 33.2027C127.228 34.893 129.328 37.2029 130.921 40.1564L132.681 39.2072C130.941 35.9789 128.617 33.41 125.709 31.5246L124.621 33.2027ZM130.925 40.1631C132.519 43.0673 133.347 46.7534 133.347 51.2727H135.347C135.347 46.5194 134.477 42.4782 132.678 39.2006L130.925 40.1631ZM133.347 51.2727V98H135.347V51.2727H133.347ZM134.347 97H118.528V99H134.347V97ZM119.528 98V88.4091H117.528V98H119.528ZM118.528 87.4091H117.983V89.4091H118.528V87.4091ZM117.094 87.9508C116.154 89.7749 114.819 91.5032 113.073 93.1326L114.438 94.5947C116.329 92.8301 117.812 90.9221 118.872 88.8674L117.094 87.9508ZM113.074 93.1322C111.398 94.6948 109.258 95.9806 106.63 96.9736L107.336 98.8446C110.162 97.777 112.538 96.3658 114.438 94.5951L113.074 93.1322ZM106.635 96.9715C104.075 97.9209 101.031 98.4091 97.483 98.4091V100.409C101.208 100.409 104.497 99.8973 107.331 98.8467L106.635 96.9715ZM101.756 88.3182C105.191 88.3182 108.224 87.6399 110.82 86.2445L109.873 84.4828C107.621 85.6934 104.926 86.3182 101.756 86.3182V88.3182ZM110.829 86.2399C113.394 84.8288 115.394 82.9513 116.796 80.6036L115.079 79.5782C113.875 81.5942 112.148 83.2318 109.865 84.4874L110.829 86.2399ZM116.791 80.6124C118.221 78.2723 118.938 75.7129 118.938 72.9545H116.938C116.938 75.3477 116.321 77.5459 115.084 79.5695L116.791 80.6124ZM118.938 72.9545V64.7273H116.938V72.9545H118.938ZM117.302 63.9553C116.949 64.2461 116.232 64.5947 115.02 64.9494L115.582 66.8688C116.855 66.4962 117.896 66.0569 118.573 65.4992L117.302 63.9553ZM115.014 64.9513C113.845 65.302 112.519 65.612 111.033 65.8795L111.387 67.8478C112.932 67.5698 114.333 67.2434 115.588 66.8669L115.014 64.9513ZM111.033 65.8795C109.529 66.1501 108.041 66.3906 106.569 66.601L106.852 68.5809C108.349 68.367 109.861 68.1226 111.387 67.8478L111.033 65.8795ZM106.569 66.601C105.085 66.813 103.798 66.9946 102.709 67.1459L102.984 69.1269C104.077 68.9751 105.366 68.7931 106.852 68.5809L106.569 66.601ZM102.712 67.1455C100.193 67.4875 97.9174 68.05 95.8918 68.8413L96.6195 70.7042C98.4728 69.9803 100.591 69.4519 102.981 69.1273L102.712 67.1455ZM95.8918 68.8413C93.8218 69.6499 92.1402 70.8018 90.8923 72.3194L92.4372 73.5896C93.4318 72.38 94.8107 71.4107 96.6195 70.7042L95.8918 68.8413ZM90.8994 72.3109C89.5956 73.8614 88.983 75.8329 88.983 78.1364H90.983C90.983 76.1974 91.4915 74.7143 92.4301 73.5981L90.8994 72.3109ZM88.983 78.1364C88.983 81.4466 90.2124 84.062 92.7284 85.8198L93.8738 84.1802C91.9656 82.8471 90.983 80.8867 90.983 78.1364H88.983ZM92.7284 85.8198C95.1487 87.5106 98.1818 88.3182 101.756 88.3182V86.3182C98.4811 86.3182 95.8778 85.5803 93.8738 84.1802L92.7284 85.8198ZM150.892 124.182H149.892V125.182H150.892V124.182ZM150.892 28.1818V27.1818H149.892V28.1818H150.892ZM167.074 28.1818H168.074V27.1818H167.074V28.1818ZM167.074 39.7273H166.074V40.7273H167.074V39.7273ZM168.028 39.7273V40.7273H168.646L168.923 40.1745L168.028 39.7273ZM171.619 34.3182L172.397 34.9474L172.401 34.9414L171.619 34.3182ZM177.892 29.3636L178.351 30.2519L178.359 30.2477L177.892 29.3636ZM202.574 31.4091L202.037 32.2528L202.044 32.2571L202.574 31.4091ZM212.938 43.5455L212.034 43.9742L212.037 43.9803L212.938 43.5455ZM213.028 82.7273L212.123 82.3027L212.123 82.3027L213.028 82.7273ZM202.756 95L203.301 95.8383L203.301 95.8383L202.756 95ZM178.074 97.2273L177.623 98.1196L177.623 98.1196L178.074 97.2273ZM171.71 92.4091L170.939 93.0457L170.944 93.0523L170.95 93.0589L171.71 92.4091ZM168.028 87L168.916 86.5401L168.637 86H168.028V87ZM167.347 87V86H166.347V87H167.347ZM167.347 124.182V125.182H168.347V124.182H167.347ZM168.938 74.9545L168.001 75.3057L168.004 75.313L168.938 74.9545ZM174.528 82.9091L173.91 83.6948L173.921 83.7032L174.528 82.9091ZM192.574 82.8182L193.194 83.6028L193.2 83.5981L192.574 82.8182ZM198.119 74.7727L197.182 74.4243L197.18 74.429L198.119 74.7727ZM198.165 51.5455L199.103 51.199L199.103 51.199L198.165 51.5455ZM192.619 43.6364L193.233 42.847L193.233 42.847L192.619 43.6364ZM174.483 43.5455L175.085 44.3443L175.085 44.3443L174.483 43.5455ZM168.892 51.3182L167.958 50.9615L167.955 50.9689L168.892 51.3182ZM151.892 124.182V28.1818H149.892V124.182H151.892ZM150.892 29.1818H167.074V27.1818H150.892V29.1818ZM166.074 28.1818V39.7273H168.074V28.1818H166.074ZM167.074 40.7273H168.028V38.7273H167.074V40.7273ZM168.923 40.1745C169.731 38.5579 170.884 36.8157 172.397 34.9474L170.842 33.689C169.264 35.6388 168.023 37.5027 167.134 39.2801L168.923 40.1745ZM172.401 34.9414C173.844 33.1315 175.816 31.5634 178.351 30.2518L177.433 28.4754C174.695 29.8912 172.486 31.626 170.837 33.695L172.401 34.9414ZM178.359 30.2477C180.808 28.9529 183.997 28.2727 187.983 28.2727V26.2727C183.787 26.2727 180.249 26.9865 177.425 28.4796L178.359 30.2477ZM187.983 28.2727C193.197 28.2727 197.872 29.6025 202.037 32.2527L203.111 30.5654C198.609 27.7005 193.557 26.2727 187.983 26.2727V28.2727ZM202.044 32.2571C206.222 34.8683 209.558 38.756 212.034 43.9742L213.841 43.1167C211.226 37.6077 207.653 33.4044 203.104 30.5611L202.044 32.2571ZM212.037 43.9803C214.53 49.1428 215.801 55.5301 215.801 63.1818H217.801C217.801 55.3184 216.496 48.6148 213.838 43.1106L212.037 43.9803ZM215.801 63.1818C215.801 70.7432 214.56 77.105 212.123 82.3027L213.934 83.1518C216.527 77.6223 217.801 70.9537 217.801 63.1818H215.801ZM212.123 82.3027C209.675 87.5227 206.366 91.4593 202.21 94.1617L203.301 95.8383C207.812 92.9043 211.351 88.6591 213.934 83.1518L212.123 82.3027ZM202.21 94.1617C198.05 96.8678 193.332 98.2273 188.028 98.2273V100.227C193.694 100.227 198.795 98.7686 203.301 95.8383L202.21 94.1617ZM188.028 98.2273C184.132 98.2273 180.981 97.577 178.525 96.3349L177.623 98.1196C180.439 99.5442 183.924 100.227 188.028 100.227V98.2273ZM178.525 96.3349C175.984 95.0498 173.975 93.52 172.47 91.7593L170.95 93.0589C172.657 95.0557 174.891 96.7381 177.623 98.1196L178.525 96.3349ZM172.481 91.7725C170.938 89.903 169.755 88.159 168.916 86.5401L167.14 87.4599C168.06 89.235 169.331 91.097 170.939 93.0457L172.481 91.7725ZM168.028 86H167.347V88H168.028V86ZM166.347 87V124.182H168.347V87H166.347ZM167.347 123.182H150.892V125.182H167.347V123.182ZM166.028 63.0909C166.028 67.6976 166.677 71.7757 168.001 75.3057L169.874 74.6034C168.652 71.3455 168.028 67.5145 168.028 63.0909H166.028ZM168.004 75.313C169.36 78.8448 171.321 81.6557 173.91 83.6947L175.147 82.1235C172.888 80.3443 171.121 77.8521 169.871 74.5961L168.004 75.313ZM173.921 83.7032C176.572 85.7323 179.762 86.7273 183.438 86.7273V84.7273C180.143 84.7273 177.394 83.8434 175.136 82.115L173.921 83.7032ZM183.438 86.7273C187.261 86.7273 190.535 85.7037 193.194 83.6028L191.954 82.0335C189.704 83.8115 186.887 84.7273 183.438 84.7273V86.7273ZM193.2 83.5981C195.817 81.4982 197.763 78.6558 199.058 75.1165L197.18 74.429C195.991 77.6776 194.24 80.1988 191.948 82.0383L193.2 83.5981ZM199.057 75.1211C200.378 71.5661 201.028 67.5509 201.028 63.0909H199.028C199.028 67.3582 198.406 71.1309 197.182 74.4243L199.057 75.1211ZM201.028 63.0909C201.028 58.6633 200.394 54.694 199.103 51.199L197.227 51.8919C198.421 55.1242 199.028 58.8519 199.028 63.0909H201.028ZM199.103 51.199C197.806 47.6877 195.856 44.8873 193.233 42.847L192.005 44.4257C194.291 46.2036 196.039 48.6759 197.227 51.8919L199.103 51.199ZM193.233 42.847C190.573 40.778 187.285 39.7727 183.438 39.7727V41.7727C186.923 41.7727 189.756 42.6765 192.005 44.4257L193.233 42.847ZM183.438 39.7727C179.738 39.7727 176.534 40.7492 173.881 42.7466L175.085 44.3443C177.341 42.6447 180.107 41.7727 183.438 41.7727V39.7727ZM173.881 42.7466C171.254 44.7255 169.287 47.4813 167.958 50.9615L169.826 51.6749C171.043 48.4884 172.803 46.0623 175.085 44.3443L173.881 42.7466ZM167.955 50.9689C166.661 54.4395 166.028 58.4872 166.028 63.0909H168.028C168.028 58.6643 168.638 54.8635 169.829 51.6674L167.955 50.9689ZM230.892 98H229.892V99H230.892V98ZM230.892 28.1818V27.1818H229.892V28.1818H230.892ZM247.347 28.1818H248.347V27.1818H247.347V28.1818ZM247.347 98V99H248.347V98H247.347ZM232.438 15.6818L231.754 16.4121L231.761 16.418L232.438 15.6818ZM232.438 3.04545L233.114 3.78164L233.121 3.77572L232.438 3.04545ZM245.892 3.04545L245.203 3.77015L245.209 3.77594L245.215 3.78162L245.892 3.04545ZM245.892 15.6818L246.575 16.4125L246.575 16.4121L245.892 15.6818ZM231.892 98V28.1818H229.892V98H231.892ZM230.892 29.1818H247.347V27.1818H230.892V29.1818ZM246.347 28.1818V98H248.347V28.1818H246.347ZM247.347 97H230.892V99H247.347V97ZM239.165 17.2727C236.804 17.2727 234.804 16.4993 233.114 14.9456L231.761 16.418C233.828 18.3189 236.314 19.2727 239.165 19.2727V17.2727ZM233.121 14.9515C231.433 13.3728 230.619 11.5267 230.619 9.36363H228.619C228.619 12.1096 229.684 14.4757 231.754 16.4121L233.121 14.9515ZM230.619 9.36363C230.619 7.16706 231.435 5.32534 233.114 3.78162L231.761 2.30928C229.682 4.22011 228.619 6.5905 228.619 9.36363H230.619ZM233.121 3.77572C234.812 2.19394 236.809 1.40909 239.165 1.40909V-0.590912C236.309 -0.590912 233.821 0.381813 231.754 2.31518L233.121 3.77572ZM239.165 1.40909C241.554 1.40909 243.547 2.19579 245.203 3.77015L246.581 2.32075C244.54 0.379957 242.048 -0.590912 239.165 -0.590912V1.40909ZM245.215 3.78162C246.894 5.32534 247.71 7.16706 247.71 9.36363H249.71C249.71 6.5905 248.647 4.22011 246.569 2.30928L245.215 3.78162ZM247.71 9.36363C247.71 11.5267 246.897 13.3728 245.209 14.9515L246.575 16.4121C248.645 14.4757 249.71 12.1096 249.71 9.36363H247.71ZM245.209 14.9512C243.554 16.4975 241.559 17.2727 239.165 17.2727V19.2727C242.043 19.2727 244.533 18.3207 246.575 16.4125L245.209 14.9512ZM299.131 28.1818H300.131V27.1818H299.131V28.1818ZM299.131 40.9091V41.9091H300.131V40.9091H299.131ZM258.994 40.9091H257.994V41.9091H258.994V40.9091ZM258.994 28.1818V27.1818H257.994V28.1818H258.994ZM268.903 11.4545V10.4545H267.903V11.4545H268.903ZM285.358 11.4545H286.358V10.4545H285.358V11.4545ZM286.358 82.0909L285.487 82.5822L285.495 82.5956L285.502 82.6087L286.358 82.0909ZM289.085 84.4545L288.731 85.3898L288.731 85.3898L289.085 84.4545ZM295.631 84.8636L295.461 83.8782L295.455 83.8792L295.631 84.8636ZM297.631 84.4545L298.608 84.2438L298.387 83.2179L297.373 83.4883L297.631 84.4545ZM300.403 97.3182L300.729 98.2636L301.568 97.9744L301.381 97.1075L300.403 97.3182ZM296.631 98.3182L296.414 97.342L296.41 97.3429L296.631 98.3182ZM290.722 98.9545L290.696 97.9549L290.692 97.955L290.722 98.9545ZM279.585 97.0909L279.196 98.0123L279.204 98.0152L279.585 97.0909ZM271.722 90.6364L270.886 91.185L270.89 91.1911L271.722 90.6364ZM268.903 79.7273L269.903 79.7342V79.7273H268.903ZM298.131 28.1818V40.9091H300.131V28.1818H298.131ZM299.131 39.9091H258.994V41.9091H299.131V39.9091ZM259.994 40.9091V28.1818H257.994V40.9091H259.994ZM258.994 29.1818H299.131V27.1818H258.994V29.1818ZM268.903 12.4545H285.358V10.4545H268.903V12.4545ZM284.358 11.4545V77H286.358V11.4545H284.358ZM284.358 77C284.358 79.2873 284.698 81.1841 285.487 82.5822L287.229 81.5996C286.684 80.6341 286.358 79.1369 286.358 77H284.358ZM285.502 82.6087C286.3 83.9268 287.375 84.8768 288.731 85.3898L289.439 83.5193C288.553 83.1838 287.81 82.5581 287.213 81.5731L285.502 82.6087ZM288.731 85.3898C289.98 85.8623 291.344 86.0909 292.812 86.0909V84.0909C291.553 84.0909 290.433 83.8953 289.439 83.5193L288.731 85.3898ZM292.812 86.0909C293.891 86.0909 294.89 86.0117 295.806 85.8481L295.455 83.8792C294.674 84.0186 293.795 84.0909 292.812 84.0909V86.0909ZM295.801 85.8491C296.688 85.6961 297.39 85.5538 297.888 85.4208L297.373 83.4883C296.963 83.5978 296.331 83.7281 295.461 83.8782L295.801 85.8491ZM296.653 84.6653L299.426 97.5289L301.381 97.1075L298.608 84.2438L296.653 84.6653ZM300.077 96.3728C299.252 96.6574 298.037 96.9812 296.414 97.342L296.848 99.2944C298.497 98.9279 299.797 98.585 300.729 98.2636L300.077 96.3728ZM296.41 97.3429C294.888 97.6874 292.988 97.8953 290.696 97.9549L290.748 99.9542C293.122 99.8925 295.161 99.6762 296.852 99.2935L296.41 97.3429ZM290.692 97.955C286.69 98.0727 283.121 97.4688 279.967 96.1666L279.204 98.0152C282.655 99.4403 286.511 100.079 290.751 99.9541L290.692 97.955ZM279.974 96.1696C276.847 94.8498 274.381 92.8234 272.554 90.0817L270.89 91.1911C272.94 94.2675 275.718 96.5442 279.196 98.0122L279.974 96.1696ZM272.558 90.0877C270.781 87.3811 269.874 83.9507 269.903 79.7342L267.903 79.7203C267.872 84.2311 268.844 88.0735 270.886 91.185L272.558 90.0877ZM269.903 79.7273V11.4545H267.903V79.7273H269.903ZM321.028 97.0455L320.613 97.9551L320.622 97.9593L321.028 97.0455ZM312.665 89.9545L311.826 90.4998L311.83 90.5055L312.665 89.9545ZM311.801 68.6364L310.93 68.1446L310.93 68.1446L311.801 68.6364ZM317.756 62.4545L317.232 61.6025L317.232 61.6025L317.756 62.4545ZM326.256 58.9545L326.498 59.9247L326.505 59.923L326.256 58.9545ZM336.119 57.1818L336.016 56.1871L336.013 56.1875L336.119 57.1818ZM346.074 56.0455L346.204 57.0371L346.215 57.0354L346.074 56.0455ZM351.619 54.4091L352.153 55.2546L352.159 55.251L351.619 54.4091ZM350.347 42.6818L351.026 41.9479L351.026 41.9479L350.347 42.6818ZM331.983 42.5L331.386 41.6975L331.381 41.7012L331.983 42.5ZM327.256 48.7273L327.115 49.7173L327.934 49.8337L328.202 49.0507L327.256 48.7273ZM311.892 46.5455L310.931 46.2707L310.615 47.3742L311.751 47.5355L311.892 46.5455ZM317.892 35.9091L318.607 36.6086L318.61 36.6048L317.892 35.9091ZM328.119 29.4545L328.453 30.3974L328.459 30.3952L328.119 29.4545ZM360.665 32.3636L360.114 33.1985L360.121 33.2027L360.665 32.3636ZM367.301 39.6818L366.421 40.1564L366.425 40.1631L367.301 39.6818ZM369.847 98V99H370.847V98H369.847ZM354.028 98H353.028V99H354.028V98ZM354.028 88.4091H355.028V87.4091H354.028V88.4091ZM353.483 88.4091V87.4091H352.873L352.594 87.9508L353.483 88.4091ZM349.256 93.8636L349.938 94.5951L349.938 94.5947L349.256 93.8636ZM342.483 97.9091L342.831 98.8467L342.836 98.8446L342.483 97.9091ZM345.847 85.3636L346.32 86.2445L346.329 86.2399L345.847 85.3636ZM351.438 80.0909L350.584 79.5694L350.579 79.5782L351.438 80.0909ZM353.438 64.7273H354.438V62.6083L352.802 63.9553L353.438 64.7273ZM350.801 65.9091L350.52 64.9493L350.514 64.9513L350.801 65.9091ZM346.71 66.8636L346.887 67.8478L346.887 67.8478L346.71 66.8636ZM338.347 68.1364L338.481 69.1273L338.484 69.1269L338.347 68.1364ZM331.756 69.7727L331.392 68.8413L331.392 68.8413L331.756 69.7727ZM327.165 72.9545L327.93 73.5982L327.937 73.5896L327.165 72.9545ZM328.801 85L328.228 85.8198L328.228 85.8198L328.801 85ZM332.983 98.4091C328.679 98.4091 324.835 97.6431 321.435 96.1316L320.622 97.9593C324.312 99.5993 328.438 100.409 332.983 100.409V98.4091ZM321.444 96.1359C318.093 94.605 315.453 92.363 313.499 89.4036L311.83 90.5055C313.998 93.7885 316.933 96.2738 320.613 97.955L321.444 96.1359ZM313.503 89.4093C311.6 86.484 310.619 82.8358 310.619 78.4091H308.619C308.619 83.1339 309.669 87.1827 311.827 90.4998L313.503 89.4093ZM310.619 78.4091C310.619 74.5868 311.326 71.5121 312.672 69.1281L310.93 68.1446C309.368 70.9121 308.619 74.3526 308.619 78.4091H310.619ZM312.672 69.1281C314.043 66.6996 315.909 64.7631 318.279 63.3066L317.232 61.6025C314.572 63.2369 312.468 65.4216 310.93 68.1446L312.672 69.1281ZM318.279 63.3066C320.699 61.8197 323.436 60.6902 326.498 59.9247L326.013 57.9844C322.772 58.7946 319.843 59.9985 317.232 61.6025L318.279 63.3066ZM326.505 59.923C329.638 59.1174 332.878 58.5348 336.226 58.1761L336.013 56.1875C332.573 56.5561 329.237 57.1554 326.007 57.9861L326.505 59.923ZM336.222 58.1765C340.318 57.7518 343.646 57.372 346.204 57.037L345.944 55.0539C343.411 55.3856 340.103 55.7634 336.016 56.1872L336.222 58.1765ZM346.215 57.0354C348.798 56.6664 350.819 56.0976 352.153 55.2546L351.085 53.5636C350.117 54.1751 348.44 54.6972 345.932 55.0555L346.215 57.0354ZM352.159 55.251C353.667 54.2844 354.392 52.7763 354.392 50.9091H352.392C352.392 52.1934 351.935 53.0186 351.08 53.5672L352.159 55.251ZM354.392 50.9091V50.6364H352.392V50.9091H354.392ZM354.392 50.6364C354.392 47.0046 353.308 44.0593 351.026 41.9479L349.667 43.4158C351.446 45.0619 352.392 47.4197 352.392 50.6364H354.392ZM351.026 41.9479C348.75 39.8421 345.547 38.8636 341.574 38.8636V40.8636C345.237 40.8636 347.882 41.7639 349.667 43.4158L351.026 41.9479ZM341.574 38.8636C337.406 38.8636 333.976 39.772 331.386 41.6975L332.58 43.3025C334.717 41.7129 337.681 40.8636 341.574 40.8636V38.8636ZM331.381 41.7012C328.914 43.5601 327.202 45.7925 326.309 48.4039L328.202 49.0507C328.946 46.8741 330.386 44.9551 332.585 43.2988L331.381 41.7012ZM327.396 47.7372L312.033 45.5554L311.751 47.5355L327.115 49.7173L327.396 47.7372ZM312.854 46.8202C314.025 42.7202 315.947 39.3259 318.607 36.6086L317.177 35.2096C314.261 38.1893 312.183 41.8859 310.931 46.2707L312.854 46.8202ZM318.61 36.6048C321.284 33.8444 324.558 31.7736 328.453 30.3974L327.786 28.5117C323.62 29.9839 320.076 32.2162 317.174 35.2134L318.61 36.6048ZM328.459 30.3952C332.366 28.9849 336.704 28.2727 341.483 28.2727V26.2727C336.504 26.2727 331.933 27.0151 327.78 28.5139L328.459 30.3952ZM341.483 28.2727C344.768 28.2727 348.039 28.6573 351.298 29.4277L351.758 27.4814C348.351 26.676 344.925 26.2727 341.483 26.2727V28.2727ZM351.298 29.4277C354.522 30.1896 357.458 31.4472 360.114 33.1985L361.215 31.5288C358.356 29.6437 355.202 28.2952 351.758 27.4814L351.298 29.4277ZM360.121 33.2027C362.728 34.893 364.828 37.2029 366.421 40.1564L368.181 39.2072C366.441 35.9789 364.117 33.41 361.209 31.5246L360.121 33.2027ZM366.425 40.1631C368.019 43.0673 368.847 46.7534 368.847 51.2727H370.847C370.847 46.5194 369.977 42.4782 368.178 39.2006L366.425 40.1631ZM368.847 51.2727V98H370.847V51.2727H368.847ZM369.847 97H354.028V99H369.847V97ZM355.028 98V88.4091H353.028V98H355.028ZM354.028 87.4091H353.483V89.4091H354.028V87.4091ZM352.594 87.9508C351.654 89.7749 350.319 91.5032 348.573 93.1326L349.938 94.5947C351.829 92.8301 353.312 90.9221 354.372 88.8674L352.594 87.9508ZM348.574 93.1322C346.898 94.6948 344.758 95.9806 342.13 96.9736L342.836 98.8446C345.662 97.777 348.038 96.3658 349.938 94.5951L348.574 93.1322ZM342.135 96.9715C339.575 97.9209 336.531 98.4091 332.983 98.4091V100.409C336.708 100.409 339.997 99.8973 342.831 98.8467L342.135 96.9715ZM337.256 88.3182C340.691 88.3182 343.724 87.6399 346.32 86.2445L345.373 84.4828C343.121 85.6934 340.426 86.3182 337.256 86.3182V88.3182ZM346.329 86.2399C348.894 84.8288 350.894 82.9513 352.296 80.6036L350.579 79.5782C349.375 81.5942 347.648 83.2318 345.365 84.4874L346.329 86.2399ZM352.291 80.6124C353.721 78.2723 354.438 75.7129 354.438 72.9545H352.438C352.438 75.3477 351.821 77.5459 350.584 79.5695L352.291 80.6124ZM354.438 72.9545V64.7273H352.438V72.9545H354.438ZM352.802 63.9553C352.449 64.2461 351.732 64.5947 350.52 64.9494L351.082 66.8688C352.355 66.4962 353.396 66.0569 354.073 65.4992L352.802 63.9553ZM350.514 64.9513C349.345 65.302 348.019 65.612 346.533 65.8795L346.887 67.8478C348.432 67.5698 349.833 67.2434 351.088 66.8669L350.514 64.9513ZM346.533 65.8795C345.029 66.1501 343.541 66.3906 342.069 66.601L342.352 68.5809C343.849 68.367 345.361 68.1226 346.887 67.8478L346.533 65.8795ZM342.069 66.601C340.585 66.813 339.298 66.9946 338.209 67.1459L338.484 69.1269C339.577 68.9751 340.866 68.7931 342.352 68.5809L342.069 66.601ZM338.212 67.1455C335.693 67.4875 333.417 68.05 331.392 68.8413L332.12 70.7042C333.973 69.9803 336.091 69.4519 338.481 69.1273L338.212 67.1455ZM331.392 68.8413C329.322 69.6499 327.64 70.8018 326.392 72.3194L327.937 73.5896C328.932 72.38 330.311 71.4107 332.12 70.7042L331.392 68.8413ZM326.399 72.3109C325.096 73.8614 324.483 75.8329 324.483 78.1364H326.483C326.483 76.1974 326.992 74.7143 327.93 73.5981L326.399 72.3109ZM324.483 78.1364C324.483 81.4466 325.712 84.062 328.228 85.8198L329.374 84.1802C327.466 82.8471 326.483 80.8867 326.483 78.1364H324.483ZM328.228 85.8198C330.649 87.5106 333.682 88.3182 337.256 88.3182V86.3182C333.981 86.3182 331.378 85.5803 329.374 84.1802L328.228 85.8198ZM402.847 4.90909H403.847V3.90909H402.847V4.90909ZM402.847 98V99H403.847V98H402.847ZM386.392 98H385.392V99H386.392V98ZM386.392 4.90909V3.90909H385.392V4.90909H386.392ZM401.847 4.90909V98H403.847V4.90909H401.847ZM402.847 97H386.392V99H402.847V97ZM387.392 98V4.90909H385.392V98H387.392ZM386.392 5.90909H402.847V3.90909H386.392V5.90909ZM419.767 98H418.767V99H419.767V98ZM419.767 28.1818V27.1818H418.767V28.1818H419.767ZM436.222 28.1818H437.222V27.1818H436.222V28.1818ZM436.222 98V99H437.222V98H436.222ZM421.312 15.6818L420.629 16.4121L420.636 16.418L421.312 15.6818ZM421.312 3.04545L421.989 3.78164L421.996 3.77572L421.312 3.04545ZM434.767 3.04545L434.078 3.77015L434.084 3.77594L434.09 3.78162L434.767 3.04545ZM434.767 15.6818L435.45 16.4125L435.45 16.4121L434.767 15.6818ZM420.767 98V28.1818H418.767V98H420.767ZM419.767 29.1818H436.222V27.1818H419.767V29.1818ZM435.222 28.1818V98H437.222V28.1818H435.222ZM436.222 97H419.767V99H436.222V97ZM428.04 17.2727C425.679 17.2727 423.679 16.4993 421.989 14.9456L420.636 16.418C422.703 18.3189 425.189 19.2727 428.04 19.2727V17.2727ZM421.996 14.9515C420.308 13.3728 419.494 11.5267 419.494 9.36363H417.494C417.494 12.1096 418.559 14.4757 420.629 16.4121L421.996 14.9515ZM419.494 9.36363C419.494 7.16706 420.31 5.32534 421.989 3.78162L420.636 2.30928C418.557 4.22011 417.494 6.5905 417.494 9.36363H419.494ZM421.996 3.77572C423.687 2.19394 425.684 1.40909 428.04 1.40909V-0.590912C425.184 -0.590912 422.696 0.381813 420.629 2.31518L421.996 3.77572ZM428.04 1.40909C430.429 1.40909 432.422 2.19579 434.078 3.77015L435.456 2.32075C433.415 0.379957 430.923 -0.590912 428.04 -0.590912V1.40909ZM434.09 3.78162C435.769 5.32534 436.585 7.16706 436.585 9.36363H438.585C438.585 6.5905 437.522 4.22011 435.444 2.30928L434.09 3.78162ZM436.585 9.36363C436.585 11.5267 435.772 13.3728 434.084 14.9515L435.45 16.4121C437.52 14.4757 438.585 12.1096 438.585 9.36363H436.585ZM434.084 14.9512C432.429 16.4975 430.434 17.2727 428.04 17.2727V19.2727C430.918 19.2727 433.408 18.3207 435.45 16.4125L434.084 14.9512ZM508.324 46.6364L508.432 47.6305L509.507 47.5132L509.307 46.4509L508.324 46.6364ZM493.324 48.2727L492.361 48.5424L492.589 49.3588L493.432 49.2668L493.324 48.2727ZM491.097 44L490.305 44.6115L490.314 44.6225L491.097 44ZM486.915 40.7727L487.337 39.8661L487.337 39.8661L486.915 40.7727ZM471.824 41.7727L471.287 40.929L471.282 40.9323L471.824 41.7727ZM468.415 47.5455L469.415 47.5604L469.415 47.5465L469.415 47.5326L468.415 47.5455ZM470.642 52.5L469.999 53.2657L470.006 53.2719L470.642 52.5ZM478.278 55.6364L478.054 56.6108L478.061 56.6126L478.069 56.6143L478.278 55.6364ZM490.188 58.1818L490.398 57.2043L490.397 57.2039L490.188 58.1818ZM504.915 64.9545L504.221 65.6751L504.225 65.6784L504.915 64.9545ZM509.824 77.0909L510.824 77.0978L510.824 77.0848L509.824 77.0909ZM505.96 88.7273L505.163 88.1238L505.162 88.125L505.96 88.7273ZM495.46 96.5455L495.847 97.4678L495.46 96.5455ZM459.369 94L458.8 94.8224L458.804 94.8246L459.369 94ZM450.051 78.9545L449.955 77.9592L448.9 78.0608L449.063 79.1084L450.051 78.9545ZM466.097 77.4091L467.071 77.1842L466.874 76.3296L466.001 76.4137L466.097 77.4091ZM470.733 84.5455L471.295 83.7183L471.295 83.7183L470.733 84.5455ZM489.369 84.5455L488.812 83.715L488.807 83.7183L489.369 84.5455ZM490.642 73.6364L489.99 74.3946L489.997 74.4009L490.642 73.6364ZM483.551 70.6364L483.763 69.6591L483.757 69.6577L483.551 70.6364ZM471.642 68.1364L471.847 67.1577L471.846 67.1573L471.642 68.1364ZM456.778 61.0909L456.058 61.7848L456.062 61.7881L456.778 61.0909ZM452.006 48.4545L453.006 48.4605L453.006 48.4475L452.006 48.4545ZM455.506 37.2727L454.707 36.6715L454.706 36.6727L455.506 37.2727ZM465.46 29.9091L465.837 30.8353L465.841 30.8339L465.46 29.9091ZM499.551 32.5L498.955 33.3031L498.958 33.3049L499.551 32.5ZM508.215 45.6423L493.215 47.2786L493.432 49.2668L508.432 47.6305L508.215 45.6423ZM494.287 48.0031C493.824 46.3491 493.016 44.8065 491.879 43.3775L490.314 44.6225C491.298 45.8602 491.976 47.166 492.361 48.5424L494.287 48.0031ZM491.888 43.3886C490.746 41.9109 489.217 40.7416 487.337 39.8661L486.493 41.6793C488.127 42.4402 489.387 43.4224 490.305 44.6114L491.888 43.3886ZM487.337 39.8661C485.412 38.9703 483.108 38.5455 480.46 38.5455V40.5455C482.904 40.5455 484.902 40.9387 486.493 41.6793L487.337 39.8661ZM480.46 38.5455C476.891 38.5455 473.815 39.3203 471.287 40.9291L472.361 42.6164C474.499 41.2555 477.181 40.5455 480.46 40.5455V38.5455ZM471.282 40.9323C468.744 42.5688 467.379 44.7905 467.415 47.5583L469.415 47.5326C469.39 45.5732 470.298 43.9464 472.366 42.6132L471.282 40.9323ZM467.415 47.5305C467.38 49.8523 468.247 51.7938 469.999 53.2657L471.285 51.7343C470.007 50.6607 469.389 49.2992 469.415 47.5604L467.415 47.5305ZM470.006 53.2719C471.733 54.6937 474.461 55.7818 478.054 56.6108L478.503 54.662C475.005 53.8546 472.642 52.8517 471.278 51.7281L470.006 53.2719ZM478.069 56.6143L489.978 59.1597L490.397 57.2039L478.487 54.6585L478.069 56.6143ZM489.977 59.1594C496.488 60.5632 501.195 62.7632 504.221 65.6751L505.608 64.234C502.21 60.964 497.099 58.6489 490.398 57.2043L489.977 59.1594ZM504.225 65.6784C507.247 68.5593 508.795 72.3337 508.824 77.097L510.824 77.0848C510.792 71.8481 509.067 67.5316 505.605 64.2307L504.225 65.6784ZM508.824 77.084C508.795 81.2721 507.573 84.9395 505.163 88.1238L506.758 89.3307C509.439 85.7877 510.792 81.6976 510.824 77.0978L508.824 77.084ZM505.162 88.125C502.77 91.2953 499.423 93.8013 495.074 95.6231L495.847 97.4678C500.468 95.532 504.12 92.8259 506.758 89.3296L505.162 88.125ZM495.074 95.6231C490.733 97.4416 485.717 98.3636 480.006 98.3636V100.364C485.931 100.364 491.218 99.4069 495.847 97.4678L495.074 95.6231ZM480.006 98.3636C471.593 98.3636 464.931 96.603 459.935 93.1754L458.804 94.8246C464.232 98.5485 471.328 100.364 480.006 100.364V98.3636ZM459.938 93.1776C454.958 89.732 451.998 84.962 451.039 78.8007L449.063 79.1084C450.104 85.7956 453.356 91.0558 458.8 94.8224L459.938 93.1776ZM450.147 79.9499L466.192 78.4045L466.001 76.4137L449.955 77.9592L450.147 79.9499ZM465.122 77.6339C465.898 80.9961 467.571 83.606 470.171 85.3726L471.295 83.7183C469.168 82.2728 467.75 80.1251 467.071 77.1842L465.122 77.6339ZM470.171 85.3726C472.747 87.1227 476.036 87.9545 479.96 87.9545V85.9545C476.309 85.9545 473.447 85.1804 471.295 83.7183L470.171 85.3726ZM479.96 87.9545C483.998 87.9545 487.351 87.1258 489.931 85.3726L488.807 83.7183C486.66 85.1772 483.741 85.9545 479.96 85.9545V87.9545ZM489.926 85.3759C492.528 83.6307 493.96 81.3636 493.96 78.5909H491.96C491.96 80.5455 490.999 82.2481 488.812 83.715L489.926 85.3759ZM493.96 78.5909C493.96 76.2925 493.055 74.3625 491.287 72.8718L489.997 74.4009C491.32 75.5163 491.96 76.8893 491.96 78.5909H493.96ZM491.294 72.8782C489.596 71.4181 487.045 70.3712 483.763 69.6591L483.339 71.6136C486.482 72.2955 488.658 73.2486 489.99 74.3945L491.294 72.8782ZM483.757 69.6577L471.847 67.1577L471.437 69.115L483.346 71.615L483.757 69.6577ZM471.846 67.1573C465.255 65.7855 460.516 63.5 457.495 60.3937L456.062 61.7881C459.465 65.2879 464.635 67.6994 471.438 69.1154L471.846 67.1573ZM457.498 60.397C454.486 57.2711 452.977 53.319 453.006 48.4605L451.006 48.4486C450.974 53.7719 452.646 58.2441 456.058 61.7848L457.498 60.397ZM453.006 48.4475C452.977 44.3418 454.086 40.8328 456.306 37.8727L454.706 36.6727C452.198 40.0156 450.974 43.9612 451.006 48.4616L453.006 48.4475ZM456.305 37.8739C458.575 34.8572 461.737 32.5048 465.837 30.8353L465.083 28.9829C460.699 30.7679 457.225 33.3246 454.707 36.6715L456.305 37.8739ZM465.841 30.8339C469.97 29.1351 474.761 28.2727 480.233 28.2727V26.2727C474.553 26.2727 469.495 27.1679 465.08 28.9843L465.841 30.8339ZM480.233 28.2727C488.284 28.2727 494.487 29.9882 498.955 33.3031L500.147 31.6969C495.221 28.0421 488.546 26.2727 480.233 26.2727V28.2727ZM498.958 33.3049C503.475 36.6351 506.265 41.1227 507.341 46.8219L509.307 46.4509C508.14 40.2713 505.082 35.3346 500.145 31.6951L498.958 33.3049ZM523.392 98H522.392V99H523.392V98ZM523.392 28.1818V27.1818H522.392V28.1818H523.392ZM539.119 28.1818H540.119V27.1818H539.119V28.1818ZM539.119 40.0455H538.119V41.0455H539.119V40.0455ZM539.938 40.0455V41.0455H540.638L540.877 40.3872L539.938 40.0455ZM547.165 30.6818L547.719 31.5139L547.725 31.5104L547.165 30.6818ZM571.165 30.7273L570.586 31.5426L570.594 31.5486L571.165 30.7273ZM578.074 40.0455L577.127 40.366L577.357 41.0455H578.074V40.0455ZM578.801 40.0455V41.0455H579.479L579.73 40.4156L578.801 40.0455ZM586.619 30.7727L587.151 31.6195L587.153 31.6184L586.619 30.7727ZM621.574 98V99H622.574V98H621.574ZM605.074 98H604.074V99H605.074V98ZM601.619 44.1818L600.958 44.932L600.964 44.9368L601.619 44.1818ZM583.847 44.8636L583.104 44.1937L583.104 44.1942L583.847 44.8636ZM580.528 98V99H581.528V98H580.528ZM564.392 98H563.392V99H564.392V98ZM561.119 44.3636L560.412 45.0708L560.417 45.0757L561.119 44.3636ZM546.21 42.9545L546.731 43.8085L546.74 43.8025L546.21 42.9545ZM541.574 48L542.456 48.4719L542.458 48.4668L541.574 48ZM539.847 98V99H540.847V98H539.847ZM524.392 98V28.1818H522.392V98H524.392ZM523.392 29.1818H539.119V27.1818H523.392V29.1818ZM538.119 28.1818V40.0455H540.119V28.1818H538.119ZM539.119 41.0455H539.938V39.0455H539.119V41.0455ZM540.877 40.3872C542.263 36.5762 544.543 33.6316 547.719 31.5139L546.61 29.8498C543.059 32.2169 540.521 35.5147 538.998 39.7037L540.877 40.3872ZM547.725 31.5104C550.899 29.3654 554.712 28.2727 559.21 28.2727V26.2727C554.375 26.2727 550.158 27.4527 546.605 29.8532L547.725 31.5104ZM559.21 28.2727C563.77 28.2727 567.542 29.381 570.586 31.5425L571.744 29.912C568.302 27.4675 564.105 26.2727 559.21 26.2727V28.2727ZM570.594 31.5486C573.683 33.6935 575.859 36.6201 577.127 40.366L579.021 39.7249C577.622 35.592 575.192 32.3065 571.735 29.9059L570.594 31.5486ZM578.074 41.0455H578.801V39.0455H578.074V41.0455ZM579.73 40.4156C581.194 36.7414 583.657 33.8143 587.151 31.6195L586.087 29.9259C582.248 32.3373 579.499 35.5919 577.872 39.6753L579.73 40.4156ZM587.153 31.6184C590.666 29.401 594.854 28.2727 599.756 28.2727V26.2727C594.537 26.2727 589.966 27.4778 586.086 29.9271L587.153 31.6184ZM599.756 28.2727C605.949 28.2727 610.926 30.2207 614.776 34.0707L616.19 32.6565C611.919 28.3854 606.411 26.2727 599.756 26.2727V28.2727ZM614.776 34.0707C618.59 37.8849 620.574 43.5167 620.574 51.1364H622.574C622.574 43.1803 620.497 36.9636 616.19 32.6565L614.776 34.0707ZM620.574 51.1364V98H622.574V51.1364H620.574ZM621.574 97H605.074V99H621.574V97ZM606.074 98V53.6818H604.074V98H606.074ZM606.074 53.6818C606.074 49.1846 604.877 45.686 602.275 43.4268L600.964 44.9368C602.968 46.6776 604.074 49.5123 604.074 53.6818H606.074ZM602.281 43.4317C599.779 41.226 596.719 40.1364 593.165 40.1364V42.1364C596.277 42.1364 598.854 43.077 600.958 44.9319L602.281 43.4317ZM593.165 40.1364C588.97 40.1364 585.572 41.4595 583.104 44.1937L584.589 45.5336C586.606 43.2981 589.421 42.1364 593.165 42.1364V40.1364ZM583.104 44.1942C580.695 46.8665 579.528 50.3181 579.528 54.4545H581.528C581.528 50.7122 582.574 47.7698 584.589 45.5331L583.104 44.1942ZM579.528 54.4545V98H581.528V54.4545H579.528ZM580.528 97H564.392V99H580.528V97ZM565.392 98V53H563.392V98H565.392ZM565.392 53C565.392 49.1774 564.227 46.0241 561.821 43.6516L560.417 45.0757C562.375 47.0062 563.392 49.6105 563.392 53H565.392ZM561.826 43.6565C559.46 41.2898 556.373 40.1364 552.665 40.1364V42.1364C555.926 42.1364 558.476 43.1344 560.412 45.0707L561.826 43.6565ZM552.665 40.1364C550.12 40.1364 547.784 40.7916 545.68 42.1065L546.74 43.8025C548.515 42.6932 550.482 42.1364 552.665 42.1364V40.1364ZM545.69 42.1006C543.583 43.3843 541.918 45.2061 540.689 47.5332L542.458 48.4668C543.533 46.4302 544.958 44.8884 546.731 43.8085L545.69 42.1006ZM540.692 47.5281C539.45 49.8488 538.847 52.5316 538.847 55.5455H540.847C540.847 52.8017 541.395 50.4542 542.456 48.4719L540.692 47.5281ZM538.847 55.5455V98H540.847V55.5455H538.847ZM539.847 97H523.392V99H539.847V97ZM641.312 96.0909L640.611 96.8035L640.611 96.8035L641.312 96.0909ZM638.403 89L639.403 89.0109L639.403 88.9999L639.403 88.9889L638.403 89ZM641.312 82L642.014 82.7126L642.014 82.7126L641.312 82ZM655.358 82L654.656 82.7126L654.662 82.7179L655.358 82ZM658.403 89L659.403 89.0164L659.404 89.0026L659.403 88.9889L658.403 89ZM656.949 94.0455L656.099 93.5185L656.095 93.5247L656.091 93.531L656.949 94.0455ZM653.312 97.6818L653.822 98.5424L653.827 98.5393L653.312 97.6818ZM648.403 98C645.909 98 643.797 97.134 642.014 95.3783L640.611 96.8035C642.767 98.9266 645.383 100 648.403 100V98ZM642.014 95.3783C640.24 93.6314 639.376 91.5297 639.403 89.0109L637.403 88.9891C637.37 92.046 638.446 94.6716 640.611 96.8035L642.014 95.3783ZM639.403 88.9889C639.376 86.5375 640.235 84.4642 642.014 82.7126L640.611 81.2874C638.451 83.4146 637.37 86.008 637.403 89.0111L639.403 88.9889ZM642.014 82.7126C643.797 80.9569 645.909 80.0909 648.403 80.0909V78.0909C645.383 78.0909 642.767 79.1643 640.611 81.2874L642.014 82.7126ZM648.403 80.0909C650.797 80.0909 652.866 80.9499 654.656 82.7126L656.06 81.2874C653.91 79.1714 651.343 78.0909 648.403 78.0909V80.0909ZM654.662 82.7179C656.475 84.4761 657.376 86.5569 657.403 89.0111L659.403 88.9889C659.37 85.9886 658.241 83.4027 656.054 81.2821L654.662 82.7179ZM657.404 88.9836C657.376 90.6585 656.94 92.1627 656.099 93.5185L657.799 94.5724C658.837 92.8979 659.37 91.0385 659.403 89.0164L657.404 88.9836ZM656.091 93.531C655.267 94.9054 654.172 95.9997 652.798 96.8243L653.827 98.5393C655.483 97.5458 656.813 96.2159 657.806 94.56L656.091 93.531ZM652.803 96.8212C651.478 97.6054 650.019 98 648.403 98V100C650.364 100 652.177 99.5158 653.822 98.5424L652.803 96.8212Z" fill="white" mask="url(#path-1-outside-1_3338_773)"/>
</svg>
