<svg width="1438" height="210" viewBox="0 0 1438 210" fill="none" xmlns="http://www.w3.org/2000/svg">
<path d="M-9.71556e-05 210V-1.43051e-05H44.9999V210H-9.71556e-05ZM138.83 210L215.33 -1.43051e-05H266.93L343.43 210H295.73L240.83 50.7L185.93 210H138.83ZM172.13 164.1L184.13 129.3H294.23L305.93 164.1H172.13ZM369.433 210V-1.43051e-05H423.433L484.634 126.3L545.234 -1.43051e-05H598.934V210H553.934V75.9L502.334 180.6H466.334L414.433 75.9V210H369.433ZM692.833 210L769.333 -1.43051e-05H820.934L897.434 210H849.734L794.834 50.7L739.933 210H692.833ZM726.133 164.1L738.133 129.3H848.234L859.934 164.1H726.133ZM923.437 210V-1.43051e-05H968.437V175.2H1059.04V210H923.437ZM1093.95 210V-1.43051e-05H1234.65V36.3H1138.95V85.8H1225.65V120.6H1138.95V173.7H1234.65V210H1093.95ZM1259.81 210L1326.41 103.5L1258.61 -1.43051e-05H1310.81L1355.51 68.1L1395.41 -1.43051e-05H1446.41L1380.11 105.6L1448.51 210H1396.31L1351.31 140.7L1310.81 210H1259.81Z" fill="black"/>
</svg>
