<?xml version="1.0" encoding="UTF-8" standalone="no"?>
<!DOCTYPE svg PUBLIC "-//W3C//DTD SVG 1.1//EN" "http://www.w3.org/Graphics/SVG/1.1/DTD/svg11.dtd">
<svg width="100%" height="100%" viewBox="0 0 743 120" version="1.1" xmlns="http://www.w3.org/2000/svg" xmlns:xlink="http://www.w3.org/1999/xlink" xml:space="preserve" xmlns:serif="http://www.serif.com/" style="fill-rule:evenodd;clip-rule:evenodd;stroke-linejoin:round;stroke-miterlimit:2;">
    <g transform="matrix(1.613831,0,0,1.613831,-16.186782,-13.147298)">
        <path d="M28.152,79.127L12.909,79.127L12.909,12.376L28.152,12.376L28.152,79.127ZM20.53,12.376" style="fill-rule:nonzero;"/>
        <path d="M172.293,12.376L194.361,12.376L194.361,79.127L180.064,79.127L180.064,33.977C180.064,32.679 180.081,30.86 180.114,28.52C180.147,26.181 180.164,24.377 180.164,23.109L166.266,79.127L151.372,79.127L137.573,23.109C137.573,24.377 137.59,26.181 137.623,28.52C137.656,30.86 137.673,32.679 137.673,33.977L137.673,79.127L123.376,79.127L123.376,12.376L145.693,12.376L159.043,64.862L172.293,12.376Z" style="fill-rule:nonzero;"/>
        <path d="M251.465,27.637L251.465,27.637ZM242.947,12.376L260.282,12.376L286.285,79.127L269.647,79.127L251.465,27.637L232.785,79.127L216.745,79.127L242.947,12.376ZM251.515,12.376" style="fill-rule:nonzero;"/>
        <g transform="matrix(1,0,0,1,-166.159512,0)">
            <path d="M251.465,27.637L251.465,27.637ZM242.947,12.376L260.282,12.376L286.285,79.127L269.647,79.127L251.465,27.637L232.785,79.127L216.745,79.127L242.947,12.376ZM251.515,12.376" style="fill-rule:nonzero;"/>
        </g>
        <path d="M289.785,12.376L305.127,12.376L305.127,67.126L341.492,67.126L341.492,79.127L289.785,79.127L289.785,12.376Z" style="fill-rule:nonzero;"/>
        <path d="M400.584,24.196L361.729,24.196L361.729,38.37L397.396,38.37L397.396,49.963L361.729,49.963L361.729,67.126L402.377,67.126L402.377,79.127L346.735,79.127L346.735,12.376L400.584,12.376L400.584,24.196Z" style="fill-rule:nonzero;"/>
        <path d="M420.224,79.127L402.39,79.127L426.002,45.117L403.536,12.376L421.868,12.376L434.969,34.061L448.418,12.376L466.152,12.376L443.686,44.574L467.547,79.127L448.916,79.127L434.969,56.374L420.224,79.127Z" style="fill-rule:nonzero;"/>
    </g>
</svg>
