<svg width="743" height="120" viewBox="0 0 743 120" fill="none" xmlns="http://www.w3.org/2000/svg">
<path d="M60.9638 30.8466L46.9013 32.3807C46.5036 30.9602 45.8075 29.625 44.8132 28.375C43.8473 27.125 42.5405 26.1165 40.8928 25.3494C39.245 24.5824 37.228 24.1989 34.8416 24.1989C31.6314 24.1989 28.9325 24.8949 26.745 26.2869C24.5859 27.679 23.5206 29.483 23.549 31.6989C23.5206 33.6023 24.2166 35.1506 25.6371 36.3438C27.0859 37.5369 29.4723 38.517 32.7962 39.2841L43.9609 41.6705C50.1541 43.0057 54.7564 45.1222 57.7678 48.0199C60.8075 50.9176 62.3416 54.7102 62.37 59.3977C62.3416 63.517 61.1342 67.1534 58.7479 70.3068C56.3899 73.4318 53.1087 75.875 48.9041 77.6364C44.6996 79.3977 39.87 80.2784 34.4155 80.2784C26.4041 80.2784 19.9553 78.6023 15.0689 75.25C10.1825 71.8693 7.2706 67.1676 6.3331 61.1449L21.3757 59.696C22.0575 62.6506 23.5064 64.8807 25.7223 66.3864C27.9382 67.892 30.8217 68.6449 34.3729 68.6449C38.0376 68.6449 40.978 67.892 43.1939 66.3864C45.4382 64.8807 46.5604 63.0199 46.5604 60.804C46.5604 58.929 45.8359 57.3807 44.3871 56.1591C42.9666 54.9375 40.7507 54 37.7393 53.3466L26.5746 51.0028C20.2962 49.696 15.6513 47.4943 12.6399 44.3977C9.62855 41.2727 8.13707 37.3239 8.16548 32.5511C8.13707 28.517 9.23082 25.0227 11.4467 22.0682C13.6911 19.0852 16.8018 16.7841 20.7791 15.1648C24.7848 13.517 29.4013 12.6932 34.6286 12.6932C42.299 12.6932 48.3359 14.3267 52.7393 17.5938C57.1712 20.8608 59.9126 25.2784 60.9638 30.8466ZM103.641 80.2784C97.2493 80.2784 91.7095 78.8722 87.022 76.0597C82.3345 73.2472 78.6982 69.3125 76.1129 64.2557C73.5561 59.1989 72.2777 53.2898 72.2777 46.5284C72.2777 39.767 73.5561 33.8437 76.1129 28.7585C78.6982 23.6733 82.3345 19.7244 87.022 16.9119C91.7095 14.0994 97.2493 12.6932 103.641 12.6932C110.033 12.6932 115.573 14.0994 120.261 16.9119C124.948 19.7244 128.57 23.6733 131.127 28.7585C133.712 33.8437 135.005 39.767 135.005 46.5284C135.005 53.2898 133.712 59.1989 131.127 64.2557C128.57 69.3125 124.948 73.2472 120.261 76.0597C115.573 78.8722 110.033 80.2784 103.641 80.2784ZM103.727 67.9205C107.192 67.9205 110.09 66.9687 112.42 65.0653C114.749 63.1335 116.482 60.5483 117.619 57.3097C118.783 54.071 119.366 50.4631 119.366 46.4858C119.366 42.4801 118.783 38.858 117.619 35.6193C116.482 32.3523 114.749 29.7528 112.42 27.821C110.09 25.8892 107.192 24.9233 103.727 24.9233C100.175 24.9233 97.2209 25.8892 94.8629 27.821C92.5334 29.7528 90.7862 32.3523 89.6214 35.6193C88.4851 38.858 87.9169 42.4801 87.9169 46.4858C87.9169 50.4631 88.4851 54.071 89.6214 57.3097C90.7862 60.5483 92.5334 63.1335 94.8629 65.0653C97.2209 66.9687 100.175 67.9205 103.727 67.9205ZM148.098 79V13.5455H162.842V24.6676H163.609C164.973 20.9176 167.232 17.9915 170.385 15.8892C173.538 13.7585 177.303 12.6932 181.678 12.6932C186.109 12.6932 189.845 13.7727 192.885 15.9318C195.953 18.0625 198.112 20.9744 199.362 24.6676H200.044C201.493 21.0312 203.936 18.1335 207.374 15.9744C210.839 13.7869 214.945 12.6932 219.689 12.6932C225.712 12.6932 230.626 14.5966 234.433 18.4034C238.24 22.2102 240.143 27.7642 240.143 35.0653V79H224.675V37.4517C224.675 33.3892 223.595 30.4205 221.436 28.5455C219.277 26.642 216.635 25.6903 213.51 25.6903C209.788 25.6903 206.876 26.8551 204.774 29.1847C202.7 31.4858 201.663 34.483 201.663 38.1761V79H186.536V36.8125C186.536 33.4318 185.513 30.733 183.467 28.7159C181.45 26.6989 178.808 25.6903 175.541 25.6903C173.325 25.6903 171.308 26.2585 169.49 27.3949C167.672 28.5028 166.223 30.0795 165.143 32.125C164.064 34.142 163.524 36.5 163.524 39.1989V79H148.098ZM284.771 80.2784C278.208 80.2784 272.54 78.9148 267.768 76.1875C263.023 73.4318 259.373 69.5398 256.816 64.5114C254.259 59.4545 252.981 53.5028 252.981 46.6562C252.981 39.9233 254.259 34.0142 256.816 28.929C259.401 23.8153 263.009 19.8381 267.64 16.9972C272.271 14.1278 277.711 12.6932 283.961 12.6932C287.995 12.6932 291.802 13.3466 295.381 14.6534C298.989 15.9318 302.171 17.9205 304.927 20.6193C307.711 23.3182 309.898 26.7557 311.489 30.9318C313.08 35.0795 313.876 40.0227 313.876 45.7614V50.4915H260.225V40.0938H299.089C299.06 37.1392 298.421 34.5114 297.171 32.2102C295.921 29.8807 294.174 28.0483 291.93 26.7131C289.714 25.3778 287.129 24.7102 284.174 24.7102C281.021 24.7102 278.251 25.4773 275.864 27.0114C273.478 28.517 271.617 30.5057 270.282 32.9773C268.975 35.4205 268.308 38.1051 268.279 41.0312V50.108C268.279 53.9148 268.975 57.1818 270.367 59.9091C271.759 62.608 273.705 64.6818 276.205 66.1307C278.705 67.5511 281.631 68.2614 284.984 68.2614C287.228 68.2614 289.259 67.9489 291.077 67.3239C292.896 66.6705 294.472 65.7188 295.808 64.4688C297.143 63.2188 298.151 61.6705 298.833 59.8239L313.237 61.4432C312.327 65.25 310.594 68.5739 308.038 71.4148C305.509 74.2273 302.271 76.4148 298.322 77.9773C294.373 79.5114 289.856 80.2784 284.771 80.2784ZM356.692 103.545V13.5455H371.862V24.3693H372.757C373.553 22.7784 374.675 21.0881 376.124 19.2983C377.572 17.4801 379.533 15.9318 382.004 14.6534C384.476 13.3466 387.629 12.6932 391.464 12.6932C396.521 12.6932 401.081 13.9858 405.143 16.571C409.234 19.1278 412.473 22.9205 414.859 27.9489C417.274 32.9489 418.482 39.0852 418.482 46.358C418.482 53.5455 417.303 59.6534 414.945 64.6818C412.587 69.7102 409.376 73.5455 405.314 76.1875C401.251 78.8295 396.649 80.1506 391.507 80.1506C387.757 80.1506 384.646 79.5256 382.175 78.2756C379.703 77.0256 377.714 75.5199 376.209 73.7585C374.732 71.9687 373.581 70.2784 372.757 68.6875H372.118V103.545H356.692ZM371.82 46.2727C371.82 50.5057 372.416 54.2131 373.609 57.3949C374.831 60.5767 376.578 63.0625 378.851 64.8523C381.152 66.6136 383.936 67.4943 387.203 67.4943C390.612 67.4943 393.467 66.5852 395.768 64.767C398.07 62.9205 399.803 60.4062 400.967 57.2244C402.161 54.0142 402.757 50.3636 402.757 46.2727C402.757 42.2102 402.175 38.6023 401.01 35.4489C399.845 32.2955 398.112 29.8239 395.811 28.0341C393.51 26.2443 390.641 25.3494 387.203 25.3494C383.908 25.3494 381.109 26.2159 378.808 27.9489C376.507 29.6818 374.76 32.1108 373.567 35.2358C372.402 38.3608 371.82 42.0398 371.82 46.2727ZM460.669 80.2784C454.107 80.2784 448.439 78.9148 443.666 76.1875C438.922 73.4318 435.271 69.5398 432.714 64.5114C430.158 59.4545 428.879 53.5028 428.879 46.6562C428.879 39.9233 430.158 34.0142 432.714 28.929C435.3 23.8153 438.908 19.8381 443.538 16.9972C448.169 14.1278 453.609 12.6932 459.859 12.6932C463.893 12.6932 467.7 13.3466 471.28 14.6534C474.888 15.9318 478.07 17.9205 480.825 20.6193C483.609 23.3182 485.797 26.7557 487.388 30.9318C488.979 35.0795 489.774 40.0227 489.774 45.7614V50.4915H436.124V40.0938H474.987C474.959 37.1392 474.32 34.5114 473.07 32.2102C471.82 29.8807 470.072 28.0483 467.828 26.7131C465.612 25.3778 463.027 24.7102 460.072 24.7102C456.919 24.7102 454.149 25.4773 451.763 27.0114C449.376 28.517 447.516 30.5057 446.18 32.9773C444.874 35.4205 444.206 38.1051 444.178 41.0312V50.108C444.178 53.9148 444.874 57.1818 446.266 59.9091C447.658 62.608 449.604 64.6818 452.104 66.1307C454.604 67.5511 457.53 68.2614 460.882 68.2614C463.126 68.2614 465.158 67.9489 466.976 67.3239C468.794 66.6705 470.371 65.7188 471.706 64.4688C473.041 63.2188 474.05 61.6705 474.732 59.8239L489.135 61.4432C488.226 65.25 486.493 68.5739 483.936 71.4148C481.408 74.2273 478.169 76.4148 474.22 77.9773C470.271 79.5114 465.754 80.2784 460.669 80.2784ZM531.802 80.2784C525.239 80.2784 519.572 78.9148 514.799 76.1875C510.055 73.4318 506.404 69.5398 503.847 64.5114C501.29 59.4545 500.012 53.5028 500.012 46.6562C500.012 39.9233 501.29 34.0142 503.847 28.929C506.433 23.8153 510.04 19.8381 514.671 16.9972C519.302 14.1278 524.742 12.6932 530.992 12.6932C535.026 12.6932 538.833 13.3466 542.413 14.6534C546.021 15.9318 549.202 17.9205 551.958 20.6193C554.742 23.3182 556.93 26.7557 558.521 30.9318C560.112 35.0795 560.907 40.0227 560.907 45.7614V50.4915H507.256V40.0938H546.12C546.092 37.1392 545.452 34.5114 544.202 32.2102C542.952 29.8807 541.205 28.0483 538.961 26.7131C536.745 25.3778 534.16 24.7102 531.205 24.7102C528.052 24.7102 525.282 25.4773 522.896 27.0114C520.509 28.517 518.648 30.5057 517.313 32.9773C516.006 35.4205 515.339 38.1051 515.31 41.0312V50.108C515.31 53.9148 516.006 57.1818 517.398 59.9091C518.79 62.608 520.737 64.6818 523.237 66.1307C525.737 67.5511 528.663 68.2614 532.015 68.2614C534.259 68.2614 536.29 67.9489 538.109 67.3239C539.927 66.6705 541.504 65.7188 542.839 64.4688C544.174 63.2188 545.183 61.6705 545.864 59.8239L560.268 61.4432C559.359 65.25 557.626 68.5739 555.069 71.4148C552.54 74.2273 549.302 76.4148 545.353 77.9773C541.404 79.5114 536.887 80.2784 531.802 80.2784ZM573.957 103.545V13.5455H589.128V24.3693H590.023C590.818 22.7784 591.94 21.0881 593.389 19.2983C594.838 17.4801 596.798 15.9318 599.27 14.6534C601.741 13.3466 604.895 12.6932 608.73 12.6932C613.787 12.6932 618.347 13.9858 622.409 16.571C626.5 19.1278 629.739 22.9205 632.125 27.9489C634.54 32.9489 635.747 39.0852 635.747 46.358C635.747 53.5455 634.568 59.6534 632.21 64.6818C629.852 69.7102 626.642 73.5455 622.58 76.1875C618.517 78.8295 613.915 80.1506 608.773 80.1506C605.023 80.1506 601.912 79.5256 599.44 78.2756C596.969 77.0256 594.98 75.5199 593.474 73.7585C591.997 71.9687 590.847 70.2784 590.023 68.6875H589.384V103.545H573.957ZM589.085 46.2727C589.085 50.5057 589.682 54.2131 590.875 57.3949C592.097 60.5767 593.844 63.0625 596.116 64.8523C598.418 66.6136 601.202 67.4943 604.469 67.4943C607.878 67.4943 610.733 66.5852 613.034 64.767C615.335 62.9205 617.068 60.4062 618.233 57.2244C619.426 54.0142 620.023 50.3636 620.023 46.2727C620.023 42.2102 619.44 38.6023 618.276 35.4489C617.111 32.2955 615.378 29.8239 613.077 28.0341C610.776 26.2443 607.906 25.3494 604.469 25.3494C601.173 25.3494 598.375 26.2159 596.074 27.9489C593.773 29.6818 592.026 32.1108 590.832 35.2358C589.668 38.3608 589.085 42.0398 589.085 46.2727ZM700.69 30.8466L686.628 32.3807C686.23 30.9602 685.534 29.625 684.54 28.375C683.574 27.125 682.267 26.1165 680.619 25.3494C678.972 24.5824 676.955 24.1989 674.568 24.1989C671.358 24.1989 668.659 24.8949 666.472 26.2869C664.312 27.679 663.247 29.483 663.276 31.6989C663.247 33.6023 663.943 35.1506 665.364 36.3438C666.813 37.5369 669.199 38.517 672.523 39.2841L683.688 41.6705C689.881 43.0057 694.483 45.1222 697.494 48.0199C700.534 50.9176 702.068 54.7102 702.097 59.3977C702.068 63.517 700.861 67.1534 698.474 70.3068C696.116 73.4318 692.835 75.875 688.631 77.6364C684.426 79.3977 679.597 80.2784 674.142 80.2784C666.131 80.2784 659.682 78.6023 654.795 75.25C649.909 71.8693 646.997 67.1676 646.06 61.1449L661.102 59.696C661.784 62.6506 663.233 64.8807 665.449 66.3864C667.665 67.892 670.548 68.6449 674.099 68.6449C677.764 68.6449 680.705 67.892 682.92 66.3864C685.165 64.8807 686.287 63.0199 686.287 60.804C686.287 58.929 685.563 57.3807 684.114 56.1591C682.693 54.9375 680.477 54 677.466 53.3466L666.301 51.0028C660.023 49.696 655.378 47.4943 652.366 44.3977C649.355 41.2727 647.864 37.3239 647.892 32.5511C647.864 28.517 648.957 25.0227 651.173 22.0682C653.418 19.0852 656.528 16.7841 660.506 15.1648C664.511 13.517 669.128 12.6932 674.355 12.6932C682.026 12.6932 688.063 14.3267 692.466 17.5938C696.898 20.8608 699.639 25.2784 700.69 30.8466ZM724.32 79.9375C721.734 79.9375 719.518 79.0284 717.672 77.2102C715.825 75.392 714.916 73.1761 714.945 70.5625C714.916 68.0057 715.825 65.8182 717.672 64C719.518 62.1818 721.734 61.2727 724.32 61.2727C726.82 61.2727 728.993 62.1818 730.839 64C732.714 65.8182 733.666 68.0057 733.695 70.5625C733.666 72.2955 733.212 73.8722 732.331 75.2926C731.479 76.7131 730.342 77.8494 728.922 78.7017C727.53 79.5256 725.996 79.9375 724.32 79.9375Z" fill="black"/>
</svg>
