<?xml version="1.0" encoding="UTF-8" standalone="no"?>
<!DOCTYPE svg PUBLIC "-//W3C//DTD SVG 1.1//EN" "http://www.w3.org/Graphics/SVG/1.1/DTD/svg11.dtd">
<svg width="100%" height="100%" viewBox="0 0 97 101" version="1.1" xmlns="http://www.w3.org/2000/svg" xmlns:xlink="http://www.w3.org/1999/xlink" xml:space="preserve" xmlns:serif="http://www.serif.com/" style="fill-rule:evenodd;clip-rule:evenodd;stroke-linejoin:round;stroke-miterlimit:2;">
    <g transform="matrix(1,0,0,1,-1.837588,-12.451389)">
        <g transform="matrix(-1.186929,0,0,1.186929,109.405962,3.54899)">
            <path d="M12.056,28.045C12.994,27.108 14.126,26.352 15.385,25.846C14.636,24.414 14.208,22.837 14.191,21.178C14.16,18.333 15.354,15.774 17.234,13.984C20.79,10.598 26.146,10.316 30.364,13.329C30.827,12.314 31.467,11.366 32.28,10.523C34.075,8.663 36.63,7.474 39.473,7.501C42.373,7.529 45.029,8.807 47.104,10.882L64.445,28.223C64.978,25.135 66.15,21.908 68.446,18.922C71.704,14.683 76.976,13.465 81.311,15.328C85.825,17.269 88.481,22.203 87.039,27.648C85.827,32.225 86.21,38.827 87.538,43.68C90.015,50.11 91.308,56.559 90.263,63.064C89.188,69.755 85.76,75.769 80.105,81.424C73.252,88.277 64.754,91.872 56.037,91.833C47.329,91.794 38.879,88.132 32.096,81.349L13.276,62.528C11.2,60.452 9.932,57.807 9.88,54.933C9.829,52.117 10.963,49.554 12.79,47.727C13.571,46.946 14.486,46.292 15.498,45.803L12.542,42.847C10.466,40.771 9.198,38.126 9.146,35.252C9.095,32.435 10.229,29.873 12.056,28.045ZM21.811,24.551C17.289,20.004 23.195,14.38 27.716,18.927L49.215,40.426C50.221,41.432 51.853,41.432 52.859,40.426C53.865,39.42 53.865,37.788 52.859,36.782L51.265,35.188L37.135,21.058C36.234,20.157 35.738,19.201 35.557,18.283C34.828,14.579 39.227,11.49 42.861,15.124L64.257,36.52L64.826,37.089L65.248,37.511C65.623,37.886 66.101,38.326 66.632,38.785C67.062,39.157 67.526,39.541 67.998,39.914C69.276,40.925 70.763,39.811 70.52,38.2C70.459,37.792 70.4,37.373 70.346,36.944C70.244,36.136 70.16,35.294 70.111,34.431C70.1,34.231 70.09,34.03 70.083,33.828C69.949,30.109 70.534,26.051 73.203,22.578C76.427,18.384 82.603,20.961 81.239,26.112C79.662,32.068 80.24,39.953 81.838,45.576C86.499,57.507 85.838,67.206 75.862,77.181C64.228,88.816 47.876,88.643 36.339,77.106L17.519,58.286C13.885,54.652 16.907,50.186 20.584,50.889C21.496,51.063 22.448,51.555 23.349,52.456L32.602,61.709C33.849,62.955 35.95,62.611 36.733,61.032C37.224,60.041 37.028,58.847 36.246,58.065L16.785,38.604C13.102,34.922 16.255,30.385 19.999,31.238C20.865,31.436 21.763,31.922 22.615,32.774L38.151,48.31L39.733,49.892L39.739,49.897C40.746,50.905 42.38,50.905 43.388,49.897C44.393,48.892 44.395,47.262 43.393,46.254L43.388,46.248L41.81,44.662L26.312,29.077L23.298,26.046L21.811,24.551Z"/>
        </g>
    </g>
</svg>
