<svg width="55" height="58" viewBox="0 0 55 58" fill="none" xmlns="http://www.w3.org/2000/svg">
<path d="M27.1049 45.6582C26.3868 45.6582 25.7285 46.2566 25.7285 47.0346V55.7714C25.7285 56.4895 26.3269 57.1478 27.1049 57.1478C27.8828 57.1478 28.4812 56.5494 28.4812 55.7714V47.0346C28.4812 46.2566 27.8828 45.6582 27.1049 45.6582Z" fill="black"/>
<path d="M15.2577 42.7255L10.1113 49.7868C9.69238 50.3852 9.81207 51.223 10.4105 51.7017C10.6498 51.8813 10.9491 51.9411 11.1884 51.9411C11.6073 51.9411 12.0262 51.7616 12.2656 51.4025L17.4119 44.3412C17.8308 43.7428 17.7112 42.905 17.1127 42.4263C16.5143 41.9476 15.6765 42.1271 15.2577 42.7255Z" fill="black"/>
<path d="M10.9486 33.9297C10.7093 33.2116 9.93133 32.8526 9.21323 33.0321L0.955092 35.7249C0.236993 35.9643 -0.122057 36.7423 0.0574678 37.4604C0.236993 38.0588 0.775567 38.4178 1.37398 38.4178C1.49367 38.4178 1.67319 38.4178 1.79287 38.358L10.1109 35.6651C10.7691 35.3659 11.188 34.6478 10.9486 33.9297Z" fill="black"/>
<path d="M0.955092 21.6017L9.27307 24.2946C9.39276 24.3545 9.57228 24.3545 9.69196 24.3545C10.2904 24.3545 10.7691 23.9954 11.0085 23.397C11.2478 22.6789 10.829 21.901 10.1109 21.6616L1.79287 19.0286C1.07477 18.7892 0.296834 19.2081 0.0574678 19.9262C-0.122057 20.5844 0.236993 21.3624 0.955092 21.6017Z" fill="black"/>
<path d="M15.2569 14.5992C15.4963 14.9583 15.9152 15.1378 16.3341 15.1378C16.6333 15.1378 16.8727 15.078 17.112 14.8984C17.7104 14.4795 17.8301 13.5819 17.4112 12.9835L12.2649 5.9222C11.846 5.32378 11.0082 5.2041 10.3499 5.62299C9.75152 6.04188 9.63184 6.93951 10.0507 7.53792L15.2569 14.5992Z" fill="black"/>
<path d="M27.1049 11.668C27.8828 11.668 28.4812 11.0696 28.4812 10.2917V1.61464C28.4812 0.896539 27.8828 0.238281 27.1049 0.238281C26.3868 0.238281 25.7285 0.836697 25.7285 1.61464V10.3515C25.7884 11.0696 26.3868 11.668 27.1049 11.668Z" fill="black"/>
<path d="M13.2832 28.6633C13.2832 36.323 19.5067 42.4867 27.1066 42.4867C34.7663 42.4867 40.93 36.2631 40.93 28.6633C40.93 21.0035 34.7065 14.8398 27.1066 14.8398C19.5067 14.8398 13.2832 21.0035 13.2832 28.6633ZM15.9761 28.6633C15.9761 22.6193 20.8232 17.7122 26.8074 17.5327V39.7938C20.8232 39.6143 15.9761 34.7073 15.9761 28.6633Z" fill="black"/>
<path d="M46.7341 21.3017C48.29 22.0198 49.5467 23.3961 50.2648 25.0717C50.3845 25.3709 50.8632 25.3709 50.9829 25.0717C51.701 23.3961 53.0175 22.0198 54.5135 21.3017C54.8127 21.1221 54.8127 20.7032 54.5135 20.5237C52.9577 19.8056 51.701 18.4293 50.9829 16.7537C50.8632 16.4545 50.3845 16.4545 50.2648 16.7537C49.5467 18.4293 48.2302 19.8056 46.7341 20.5237C46.3751 20.7032 46.3751 21.182 46.7341 21.3017Z" fill="black"/>
<path d="M54.5741 36.0237C53.0182 35.3056 51.7616 33.9293 51.0435 32.2537C50.9238 31.9545 50.4451 31.9545 50.3254 32.2537C49.6073 33.9293 48.2908 35.3056 46.7947 36.0237C46.4955 36.2032 46.4955 36.6221 46.7947 36.8017C48.3506 37.5198 49.6073 38.8961 50.3254 40.5717C50.4451 40.8709 50.9238 40.8709 51.0435 40.5717C51.7616 38.8961 53.0781 37.5198 54.5741 36.8017C54.8733 36.6221 54.8733 36.1434 54.5741 36.0237Z" fill="black"/>
<path d="M44.8183 9.51396C43.2624 8.79586 42.0057 7.4195 41.2876 5.74394C41.1679 5.44473 40.6892 5.44473 40.5695 5.74394C39.8514 7.4195 38.5349 8.79586 37.0389 9.51396C36.7397 9.69348 36.7397 10.1124 37.0389 10.2919C38.5947 11.01 39.8514 12.3864 40.5695 14.0619C40.6892 14.3611 41.1679 14.3611 41.2876 14.0619C42.0057 12.3864 43.3222 11.01 44.8183 10.2919C45.1175 10.1124 45.1175 9.69348 44.8183 9.51396Z" fill="black"/>
<path d="M44.8183 47.0354C43.2624 46.3173 42.0057 44.941 41.2876 43.2654C41.1679 42.9662 40.6892 42.9662 40.5695 43.2654C39.8514 44.941 38.5349 46.3173 37.0389 47.0354C36.7397 47.215 36.7397 47.6339 37.0389 47.8134C38.5947 48.5315 39.8514 49.9078 40.5695 51.5834C40.6892 51.8826 41.1679 51.8826 41.2876 51.5834C42.0057 49.9078 43.3222 48.5315 44.8183 47.8134C45.1175 47.6339 45.1175 47.215 44.8183 47.0354Z" fill="black"/>
</svg>
