<svg width="56" height="56" viewBox="0 0 56 56" fill="none" xmlns="http://www.w3.org/2000/svg">
<path d="M49.6355 23.9634H48.4726L33.2771 8.60959C33.6516 7.81302 33.8684 6.95671 33.8684 6.04066C33.8684 2.75482 31.2077 0.0664062 27.9557 0.0664062C24.7037 0.0664062 22.043 2.75482 22.043 6.04066C22.043 6.95671 22.2598 7.81302 22.6343 8.60959L7.43877 23.9634H6.27594C3.02398 23.9634 0.363281 26.6518 0.363281 29.9377V49.8518C0.363281 53.1377 3.02398 55.8261 6.27594 55.8261H49.6355C52.8874 55.8261 55.5481 53.1377 55.5481 49.8518V29.9377C55.5481 26.6518 52.8874 23.9634 49.6355 23.9634ZM37.3568 35.195L27.5024 47.1435C27.1476 47.5816 26.6352 47.8405 26.0637 47.8604H25.9848C25.4724 47.8604 24.96 47.6613 24.5855 47.2829L18.6728 41.3087C17.9042 40.532 17.9042 39.2575 18.6728 38.4809C19.4415 37.7042 20.7028 37.7042 21.4715 38.4809L25.8469 42.9217L34.3217 32.646C35.0115 31.8096 36.2531 31.6901 37.1006 32.3871C37.9284 33.104 38.0467 34.3586 37.3568 35.195ZM12.9967 23.9634L25.4133 11.4175C26.2016 11.7959 27.0491 12.0149 27.9557 12.0149C28.8623 12.0149 29.7098 11.7959 30.4982 11.4175L42.9147 23.9634H12.9967Z" fill="black"/>
</svg>
