<svg width="59" height="55" viewBox="0 0 59 55" fill="none" xmlns="http://www.w3.org/2000/svg">
<path d="M44.145 33.9038L47.482 37.1981C46.2672 40.2961 44.2403 43.0198 41.6089 45.0905C38.9775 47.1611 35.836 48.5044 32.506 48.9827V27.7705H37.9321V22.4139H32.506V16.5752C34.3162 15.9434 35.8419 14.7002 36.8133 13.0653C37.7848 11.4304 38.1396 9.50915 37.8149 7.64105C37.4902 5.77294 36.507 4.07828 35.0391 2.85659C33.5711 1.6349 31.713 0.964844 29.793 0.964844C27.873 0.964844 26.0148 1.6349 24.5469 2.85659C23.079 4.07828 22.0958 5.77294 21.7711 7.64105C21.4464 9.50915 21.8012 11.4304 22.7726 13.0653C23.7441 14.7002 25.2698 15.9434 27.0799 16.5752V22.4139H21.6539V27.7705H27.0799V48.9827C23.7499 48.5044 20.6084 47.1611 17.977 45.0905C15.3456 43.0198 13.3188 40.2961 12.104 37.1981L15.441 33.9038L8.08867 26.6724L0.736328 33.9038L4.56171 37.6802L6.08102 36.1804C7.40423 41.3925 10.4536 46.0187 14.7448 49.3243C19.0359 52.6298 24.3229 54.4252 29.7659 54.4252C35.2088 54.4252 40.4958 52.6298 44.787 49.3243C49.0781 46.0187 52.1275 41.3925 53.4507 36.1804L54.97 37.6802L58.7954 33.9038L51.4973 26.6724L44.145 33.9038ZM29.793 11.7006C29.2564 11.7006 28.7319 11.5436 28.2857 11.2493C27.8395 10.955 27.4918 10.5367 27.2865 10.0473C27.0811 9.55789 27.0274 9.01937 27.1321 8.49983C27.2368 7.98029 27.4952 7.50306 27.8746 7.12849C28.254 6.75392 28.7374 6.49884 29.2637 6.39549C29.79 6.29215 30.3355 6.34519 30.8312 6.5479C31.327 6.75062 31.7507 7.09391 32.0488 7.53435C32.3469 7.9748 32.506 8.49262 32.506 9.02234C32.506 9.73267 32.2202 10.4139 31.7114 10.9162C31.2026 11.4185 30.5125 11.7006 29.793 11.7006Z" fill="black"/>
</svg>
