<svg width="67" height="50" viewBox="0 0 67 50" fill="none" xmlns="http://www.w3.org/2000/svg">
<path fill-rule="evenodd" clip-rule="evenodd" d="M44.2556 49.7001L34.1002 43.8668L22.9807 37.4794V13.0326L30.3683 17.2767L30.4814 26.0631C30.4673 26.4063 30.6397 26.7466 30.9592 26.9322L36.5205 30.1245C37.1566 30.4901 37.9709 30.0345 37.9624 29.2863L37.8635 21.5799L44.2588 25.2532V49.7L44.2556 49.7001ZM17.8063 36.7959C18.3379 36.7959 18.7704 37.2262 18.7704 37.755C18.7704 38.2837 18.3378 38.714 17.8063 38.714H10.5627C10.0312 38.714 9.59861 38.2837 9.59861 37.755C9.59861 37.2262 10.0312 36.7959 10.5627 36.7959H17.8063ZM17.8063 23.7455C18.3379 23.7455 18.7704 24.1759 18.7704 24.7046C18.7704 25.2334 18.3378 25.6637 17.8063 25.6637H5.58088C5.04935 25.6637 4.6168 25.2333 4.6168 24.7046C4.6168 24.1758 5.04938 23.7455 5.58088 23.7455H17.8063ZM17.8063 10.6981C18.3379 10.6981 18.7704 11.1284 18.7704 11.6571C18.7704 12.1859 18.3378 12.6162 17.8063 12.6162H1.35471C0.82318 12.6162 0.390625 12.1859 0.390625 11.6571C0.390625 11.1284 0.823202 10.6981 1.35471 10.6981H17.8063ZM56.8198 38.3094C56.3589 38.571 55.7737 38.4134 55.5107 37.9578C55.2478 37.4994 55.4061 36.9172 55.8641 36.6556L61.4254 33.4633C61.8862 33.2017 62.4715 33.3592 62.7344 33.8149C62.9974 34.2733 62.839 34.8555 62.381 35.1171L56.8198 38.3094ZM46.1837 25.2561V48.6006L66.4975 36.9341V13.5897L46.1837 25.2561ZM32.2987 18.3935L32.392 25.5515L36.0165 27.6328L35.9232 20.4748L32.2987 18.3935ZM57.1983 7.14606L53.5568 5.05353L33.2373 16.7229L36.8788 18.8154L57.1983 7.14606ZM51.6398 3.95097L45.2191 0.263672L24.8967 11.9359L31.3174 15.6232L51.6398 3.95097ZM38.7985 19.9181L45.2192 23.6054L65.5416 11.9332L59.1209 8.24589L38.7985 19.9181Z" fill="black"/>
</svg>
