<svg width="41" height="41" viewBox="0 0 41 41" fill="none" xmlns="http://www.w3.org/2000/svg">
<rect x="0.804688" y="0.804688" width="39" height="39" rx="19.5" fill="#494949" stroke="white"/>
<path d="M32.2141 22.5324C32.1158 22.3271 31.9444 22.1646 31.7328 22.0754C31.5211 21.9863 31.2837 21.977 31.0655 22.0489C29.3056 22.637 27.4083 22.6968 25.6138 22.2206C23.8194 21.7444 22.2085 20.7538 20.9847 19.3739C19.7606 17.994 18.979 16.287 18.7383 14.4686C18.4976 12.6502 18.8087 10.8022 19.6321 9.15867C19.734 8.95427 19.756 8.72 19.6943 8.5007C19.6325 8.28114 19.4914 8.09187 19.2973 7.96852C19.1034 7.84497 18.8702 7.79625 18.6421 7.83149C15.5994 8.30106 12.8483 9.88683 10.9388 12.2715C9.02908 14.6561 8.10166 17.6643 8.34199 20.6947C8.58231 23.7251 9.97248 26.5539 12.2346 28.6169C14.4967 30.6795 17.4643 31.8234 20.544 31.8203C23.1764 31.8087 25.7358 30.9641 27.8461 29.4109C29.9562 27.8575 31.5058 25.6771 32.2673 23.1903L32.2672 23.1893C32.3315 22.9715 32.3126 22.7376 32.2141 22.5324ZM26.0091 28.4066C24.3689 29.4148 22.4769 29.9534 20.5444 29.9621L20.5442 29.962C18.0924 29.9557 15.7223 29.091 13.8562 27.5215C11.99 25.9521 10.749 23.7798 10.3538 21.3916C9.95869 19.0033 10.4356 16.5543 11.6991 14.4805C12.9626 12.4067 14.9309 10.8429 17.2535 10.0676C16.9397 11.0981 16.7811 12.1687 16.783 13.2449C16.7862 16.1997 17.977 19.0324 20.0942 21.1224C22.2113 23.212 25.0818 24.3873 28.076 24.3904C28.6644 24.3901 29.2519 24.3439 29.833 24.2521C28.9732 25.9599 27.6492 27.3983 26.0091 28.4066Z" fill="white"/>
</svg>
